<svg width="32.000000" height="32.000000" viewBox="0 0 32 32" fill="none" xmlns="http://www.w3.org/2000/svg" xmlns:xlink="http://www.w3.org/1999/xlink">
	<desc>
			Created with Pixso.
	</desc>
	<defs>
		<filter id="filter_2_26_dd" x="0.000000" y="0.000000" width="32.000000" height="32.000000" filterUnits="userSpaceOnUse" color-interpolation-filters="sRGB">
			<feFlood flood-opacity="0" result="BackgroundImageFix"/>
			<feColorMatrix in="SourceAlpha" type="matrix" values="0 0 0 0 0 0 0 0 0 0 0 0 0 0 0 0 0 0 127 0" result="hardAlpha"/>
			<feOffset dx="0" dy="4"/>
			<feGaussianBlur stdDeviation="1.33333"/>
			<feComposite in2="hardAlpha" operator="out" k2="-1" k3="1"/>
			<feColorMatrix type="matrix" values="0 0 0 0 0 0 0 0 0 0 0 0 0 0 0 0 0 0 0.25 0"/>
			<feBlend mode="normal" in2="BackgroundImageFix" result="effect_dropShadow_1"/>
			<feBlend mode="normal" in="SourceGraphic" in2="effect_dropShadow_1" result="shape"/>
		</filter>
		<clipPath id="clip2_26">
			<rect id="visibility_off" width="24.000000" height="24.000000" transform="translate(4.000000 0.000000)" fill="white" fill-opacity="0"/>
		</clipPath>
	</defs>
	<g filter="url(#filter_2_26_dd)">
		<g clip-path="url(#clip2_26)">
			<path id="Vector" d="M16 6C19.79 6 23.17 8.13 24.82 11.5C24.23 12.72 23.4 13.77 22.41 14.62L23.82 16.03C25.21 14.8 26.31 13.26 27 11.5C25.27 7.11 21 4 16 4C14.73 4 13.51 4.2 12.36 4.57L14.01 6.22C14.66 6.09 15.32 6 16 6ZM14.93 7.14L17 9.21C17.57 9.46 18.03 9.92 18.28 10.49L20.35 12.56C20.43 12.22 20.49 11.86 20.49 11.49C20.5 9.01 18.48 7 16 7C15.63 7 15.28 7.05 14.93 7.14ZM6.01 3.87L8.68 6.55C7.06 7.83 5.76 9.53 5 11.5C6.73 15.89 11 19 16 19C17.52 19 18.98 18.7 20.32 18.18L23.74 21.6L25.15 20.19L7.42 2.45L6.01 3.87ZM13.51 11.37L16.12 13.98C16.08 13.99 16.04 14 16 14C14.62 14 13.5 12.88 13.5 11.5C13.5 11.45 13.51 11.42 13.51 11.37ZM10.1 7.97L11.86 9.72C11.63 10.27 11.5 10.87 11.5 11.5C11.5 13.98 13.52 16 16 16C16.62 16 17.23 15.87 17.77 15.64L18.75 16.62C17.87 16.86 16.95 17 16 17C12.21 17 8.82 14.87 7.17 11.5C7.88 10.07 8.89 8.89 10.1 7.97Z" fill="#999999" fill-opacity="1.000000" fill-rule="nonzero"/>
		</g>
	</g>
</svg>
