<?xml version="1.0" encoding="UTF-8"?>
<svg fill="none" viewBox="0 0 79 101" xmlns="http://www.w3.org/2000/svg">
<path d="m18.399 66.972c5.863-6.1346 6.172-8.2484 7.1809-15.718 0.5555-4.1131 1.3943-8.0535 1.4232-12.237 0.0518-7.4811 1.9623-17.068 9.0941-21.216 14.033-8.1618 30.524 13.088 20.542 25.512-3.799 4.7285-8.9636 7.6072-13.274 11.875-1.7286 1.7116-2.9777 3.7322-5.0285 5.2163-1.9666 1.4233-4.4105 3.1958-5.0071 5.4513-0.504 1.9053-0.5895 4.5259-2.3825 5.8537-2.4769 1.8344-1.4986 0.8128-4.2545 0.0838-1.8944-0.5011-4.2897-2.7458-5.4941-4.3722-0.86-1.1611-2.1126 1.208-1.4696-1.2227 0.552-2.0865 0.7644-0.1731-0.6087-0.5363" stroke="#00ADB5" stroke-linecap="round" stroke-linejoin="round" stroke-opacity=".5" stroke-width="1.6633"/>
<path d="m25.404 75.955c-3.455-2.1105-13.177-7.3543-11.591-3.6291 1.9132 4.4945 3.6473 2.9544 6.9957 4.686 1.7123 0.8856 2.0007 6.9698-0.0453 6.5554-2.9223-0.5919-3.8062-4.9681-6.7369-5.7434-2.6673-0.7056-3.4048 2.8553-2.1345 4.5225 1.6776 2.2015 4.5735 1.0781 5.3182 4.0129 1.1767 4.6377-4.7853 2.3566-6.2755 0.946-1.5014-1.4212-2.7754-3.3571-3.8392-4.5599" stroke="#00ADB5" stroke-linecap="round" stroke-linejoin="round" stroke-opacity=".5" stroke-width="1.6633"/>
<path d="m18.7 65.832c-0.0331 0.318-0.5289 2.3932 0.2944 2.611 0.4433 0.1173 0.7183-0.0976 1.0638 0.2345 0.4063 0.3907 0.6883 1.1317 1.0474 1.6166 0.3165 0.4274 1.5186 0.703 1.6415 1.164 0.2008 0.7532 0.8651 1.3121 1.5527 1.5782 0.8915 0.3451 1.1092 0.896 2.1444 0.9374 0.3164 0.0126 0.3973-0.1712 0.6772-0.0971 0.4322 0.1143 0.5641 0.3703 0.9863 0.0941 0.4673-0.3058 1.1071-0.3376 1.4423-0.9007 0.4557-0.7656 1.4384-0.9718 0.0182-0.7978" stroke="#00ADB5" stroke-linecap="round" stroke-linejoin="round" stroke-opacity=".5" stroke-width="1.6633"/>
<path d="m44.808 35.586c-1.5711-0.4065-2.8945-0.6484-3.8693 0.8737-0.6632 1.0357-0.9639 2.1464-1.2748 3.3218-0.3023 1.1427 0.1561 2.247-0.1284 3.3226-0.3761 1.4219-1.4517 0.8883-2.5286 1.0668-1.0174 0.1686-1.7665 0.3361-2.5013 1.1209-0.7278 0.7772-0.8226 2.627-1.0175 3.6296-0.1677 0.8626-0.2412 2.771-1.0171 3.3325-0.4216 0.3052-2.3217 0.4458-0.9567-0.1071" stroke="#00ADB5" stroke-linecap="round" stroke-linejoin="round" stroke-opacity=".5" stroke-width="1.6633"/>
<path d="m53.85 54.959c1.0355 1.1669 2.1308 2.2049 3.3958 3.103 0.5305 0.3766 1.2015 0.9757 1.3137 0.0191" stroke="#00ADB5" stroke-linecap="round" stroke-linejoin="round" stroke-opacity=".5" stroke-width="1.6633"/>
<path d="m61.611 44.065c2.0845 1.1249 4.1359 2.3138 6.1857 3.4918 0.341 0.196-0.256-0.9549-0.2798-0.9913" stroke="#00ADB5" stroke-linecap="round" stroke-linejoin="round" stroke-opacity=".5" stroke-width="1.6633"/>
<path d="m65.263 32.74c2.3942 0.2748 4.8028 0.467 7.2045 0.6653 1.1057 0.0913 1.5161 0.348 1.156-0.7053" stroke="#00ADB5" stroke-linecap="round" stroke-linejoin="round" stroke-opacity=".5" stroke-width="1.6633"/>
<path d="m56.036 17.259c1.9062 0.1617 3.5667 0.271 5.4307-0.1167 0.8724-0.1814 1.7368-0.4482 2.6254-0.5459 1.0559-0.1162 1.0458 0.0016 0.1494-0.9196" stroke="#00ADB5" stroke-linecap="round" stroke-linejoin="round" stroke-opacity=".5" stroke-width="1.6633"/>
<path d="m42.253 5.1688c-0.7581 1.7907-0.9651 2.9285-0.6584 4.8139 0.1654 1.0164 0.2047 2.2562 0.1458 3.291-0.0203 0.3564-0.0326 0.559 0.1287 0.8732 0.0603 0.1176 0.0454-1.0947 0.037-1.2828" stroke="#00ADB5" stroke-linecap="round" stroke-linejoin="round" stroke-opacity=".5" stroke-width="1.6633"/>
<path d="m26.866 9.0731c0.0694 2.092 0.4074 4.1705 0.3916 6.2436-8e-3 1.0488-0.1812 1.0668-0.3442-0.0389" stroke="#00ADB5" stroke-linecap="round" stroke-linejoin="round" stroke-opacity=".5" stroke-width="1.6633"/>
<path d="m17.566 21.53c1.5361 2.2512 2.6037 4.8237 3.5909 7.3505 0.1238 0.3166 0.323 0.4702 0.4812 0.7423 0.3595 0.6181-0.1922-0.7092-0.2543-0.8908" stroke="#00ADB5" stroke-linecap="round" stroke-linejoin="round" stroke-opacity=".5" stroke-width="1.6633"/>
</svg>
