<?xml version="1.0" encoding="UTF-8"?>
<svg width="153" height="116"  fill="none" viewBox="0 0 65 55" xmlns="http://www.w3.org/2000/svg">
<path d="m9.0757 30.344c7.1649-3.4136 12.957-9.0576 18.781-14.38 4.5774-4.1831 9.3778-8.3165 14.43-11.926 0.9967-0.7123 2.405-2.1458 3.7524-1.5348 1.3353 0.6054 2.1051 2.2537 3.1604 3.2298 2.599 2.4037 4.9359 5.3411 7.0726 8.1659 2.3522 3.1095-1.1752 4.8306-3.3557 6.8665-2.4769 2.3126-4.8424 4.6974-7.548 6.7381-2.5717 1.9397-4.638 4.6131-6.9923 6.809-3.588 3.3465-6.9439 6.9094-10.522 10.259-2.1297 1.9941-4.5732 3.6222-6.6241 5.6872-0.7186 0.7236-1.3833 1.68-2.212 2.2825-0.6656 0.4839-1.5869-1.377-1.8238-1.7275-1.8808-2.7818-4.7943-4.6847-6.636-7.5944-1.1579-1.8294-1.9371-4.0871-3.3231-5.7578-0.66166-0.7976-2.3158-2.5927-1.5911-3.7578 0.73998-1.1895 2.8411-1.7594 3.9872-2.6113 0.8934-0.6641 1.9794-1.484 2.9962-1.9458 0.739-0.3356 1.4644-0.9305 2.1253-1.3886 1.7393-1.2057-0.1038-0.6903-1.2802-0.2423" stroke="#00ADB5" stroke-linecap="round" stroke-linejoin="round"/>
<path d="m10.17 35.806c4.3618 2.7002 8.2744 6.6079 11.679 10.462 0.0863 0.0977 0.915 0.6752 0.7887 0.889-0.244 0.4127-3.075-1.4503-3.3454-1.637" stroke="#00ADB5" stroke-linecap="round" stroke-linejoin="round"/>
<path d="m14.494 31.902c3.5362 1.0126 5.6437 2.9394 8.4989 5.0009 1.2717 0.9182 2.5671 1.747 3.7087 2.8268 0.536 0.507 0.9178 1.1748 1.413 1.7216 0.6789 0.7494-2.0932-0.8701-2.4197-1.0566" stroke="#00ADB5" stroke-linecap="round" stroke-linejoin="round"/>
<path d="m19.633 28.876c2.4746 2.2333 4.9623 4.4359 7.5145 6.5794 0.9697 0.8144 2.0703 1.5618 2.9078 2.5209 1.4865 1.7026-0.4603-0.5067-1.1216-1.1304" stroke="#00ADB5" stroke-linecap="round" stroke-linejoin="round"/>
<path d="m23.1 26.747c1.8355 1.1159 3.7529 2.1973 5.3071 3.7021 0.6376 0.6173 1.1665 1.3448 1.8481 1.9167 0.8397 0.7044 1.5753 1.5262 2.4205 2.2109 1.2036 0.975 1.3846 1.2596-0.0452 0.0359" stroke="#00ADB5" stroke-linecap="round" stroke-linejoin="round"/>
<path d="m27.57 23.47c2.0251 1.5848 3.8993 3.1942 5.5927 5.1275 0.7499 0.8562 1.3543 1.8446 2.3061 2.5015 0.872 0.6018 1.4832 0.7756 0.4624-0.2023" stroke="#00ADB5" stroke-linecap="round" stroke-linejoin="round"/>
<path d="m31.873 20.13c1.7831 1.3397 3.541 2.5628 4.9652 4.2884 0.652 0.79 1.1668 1.6979 1.895 2.4266 1.4786 1.4796 0.4617 0.7337-0.6079-0.2705" stroke="#00ADB5" stroke-linecap="round" stroke-linejoin="round"/>
<path d="m35.842 16.664c2.5032 2.3947 4.5998 5.1995 7.1075 7.5649 1.6886 1.5926-0.7307-0.9595-1.1266-1.4129" stroke="#00ADB5" stroke-linecap="round" stroke-linejoin="round"/>
<path d="m40.688 13.909c2.107-0.8603 4.2927-1.8858 5.4251-3.988 0.3122-0.57971 0.7145-1.0844 0.8428-1.7377 0.1763-0.89719 0.1418-0.51233-0.5232 0.06828" stroke="#00ADB5" stroke-linecap="round" stroke-linejoin="round"/>
<path d="m44.08 16.803c1.6705-1.5501 3.5378-3.2433 4.7619-5.211 0.6105-0.9815 1.7735-2.1794 0.1476-0.7599" stroke="#00ADB5" stroke-linecap="round" stroke-linejoin="round"/>
<path d="m49.436 20.052c1.522-1.654 2.8764-3.1922 4.2774-4.9217 0.4527-0.5588 1.8317-1.2839 0.1726-0.8405" stroke="#00ADB5" stroke-linecap="round" stroke-linejoin="round"/>
<path d="m48.225 19.216c1.5931-1.3652 3.3948-2.9547 4.6573-4.6786 0.3368-0.4598 0.5959-0.9721 0.9043-1.4499 0.5165-0.8004 0.5492-0.5301-0.2343-0.4479" stroke="#00ADB5" stroke-linecap="round" stroke-linejoin="round"/>
<path d="m14.471 38.564c7.937-3.2242 9.8954-11.975 16.363-16.923 0.7868-0.602 1.426-1.2712 2.3435-1.6879 0.6135-0.2786 1.3711-0.412 1.9296-0.7685 0.3407-0.2175 3.1695-2.3786 1.2036-1.4858" stroke="#00ADB5" stroke-linecap="round" stroke-linejoin="round"/>
<path d="m10.776 36.224c0.8906-1.0831 1.6814-2.0101 2.8114-2.7934 0.1853-0.1284 0.4713-0.1501 0.6237-0.3217 0.3019-0.3399 0.7594-0.8369 0.8758-1.2753 0.4583-1.7267 2.6976-1.4075 3.8867-2.2732 1.1312-0.8237 2.2202-1.6575 3.3734-2.4713 1.2706-0.8965 1.8584-1.6828 2.8788-2.8315 0.9373-1.0553 1.8472-2.1227 2.8394-3.1217 0.8116-0.8173 2.087-1.5606 2.6037-2.6066 0.583-1.1805 2.0732-2.5316 3.4145-2.3128 0.4608 0.0751 3.8459 2.0367 1.6333 0.7825" stroke="#00ADB5" stroke-linecap="round" stroke-linejoin="round"/>
<path d="m17.958 40.444c5.9643-3.1462 9.2744-10.005 13.303-15.187 1.4838-1.9085 3.6043-3.1767 5.1575-5.0519 0.6643-0.8022 2.1314-1.6542 0.4251-1.6404" stroke="#00ADB5" stroke-linecap="round" stroke-linejoin="round"/>
<path d="m20.088 42.387c5.4044-3.3225 8.8648-9.5041 12.797-14.403 1.7889-2.2287 3.5154-4.504 5.3263-6.7145 0.8256-1.0078 2.2651-1.6374 0.4178-0.6055" stroke="#00ADB5" stroke-linecap="round" stroke-linejoin="round"/>
<path d="m22.216 45.854c3.3723-3.2887 6.0951-6.8375 8.8544-10.642 1.6778-2.3131 3.1282-4.9131 5.0984-6.9959 1.1304-1.195 2.0007-2.5943 3.027-3.8612 0.4134-0.5103 0.6987-1.105 1.1235-1.6111 0.9571-1.14 0.2898-0.1086-0.3766 0.5098" stroke="#00ADB5" stroke-linecap="round" stroke-linejoin="round"/>
<path d="m23.01 47.296c1.6782-1.6439 4.1371-3.2263 5.2567-5.3588 0.4065-0.7742 1.4124-2.6435 2.1178-3.1172 0.9324-0.6263 1.3768-1.9586 2.0556-2.7965 0.7068-0.8726 1.3987-1.7241 2.1657-2.554 0.7192-0.7783 0.9494-2.1442 1.8398-2.814 0.9918-0.7461 1.4744-1.901 2.2656-2.7917 0.6847-0.771 1.9883-1.5699 2.8379-2.1588 0.4707-0.3263 0.7994-0.771 1.3333-1.0135 1.0821-0.4914 0.3799-0.2399-0.6107-0.2769" stroke="#00ADB5" stroke-linecap="round" stroke-linejoin="round"/>
<path d="m40.552 14.525c1.3883 0.366 3.1001 0.6174 4.3652 1.374 0.8165 0.4882 1.5274 0.9784 0.0406 0.0893" stroke="#00ADB5" stroke-linecap="round" stroke-linejoin="round"/>
<path d="m41.993 12.208c1.9804 0.5174 3.3801 1.0974 4.995 2.1503 1.0559 0.6885 0.8865 0.4979-0.2134-0.1648" stroke="#00ADB5" stroke-linecap="round" stroke-linejoin="round"/>
<path d="m44.396 9.8698c1.7006 0.95642 3.3505 2.0433 5.109 2.876 1.0343 0.4898 0.4914 0.4555-0.3069 0.0701" stroke="#00ADB5" stroke-linecap="round" stroke-linejoin="round"/>
<path d="m45.764 8.0011c1.7881 0.81418 3.4365 1.625 5.0829 2.6492 0.7508 0.4671 0.0695 0.4973-0.5 0.1194" stroke="#00ADB5" stroke-linecap="round" stroke-linejoin="round"/>
<path d="m41.429 13.711c1.3511-1.6062 2.7063-3.1281 3.9363-4.7745 0.3495-0.46776 2.478-3.072 1.5581-1.7392" stroke="#00ADB5" stroke-linecap="round" stroke-linejoin="round"/>
<path d="m42.848 16.531c1.7578-1.554 4.2911-3.626 4.8584-5.9477 0.167-0.68328 0.5291-1.3662 1.0599-1.8362 0.5382-0.47668 1.1009-0.69197 0.2969 0.11147" stroke="#00ADB5" stroke-linecap="round" stroke-linejoin="round"/>
<path d="m41.439 16.478c1.8744-2.0188 3.4763-3.3757 4.5353-5.8626 0.275-0.64589 0.5903-1.1812 1.0418-1.6894 0.4784-0.5386 1.1651-1.043 0.2413-0.07881" stroke="#00ADB5" stroke-linecap="round" stroke-linejoin="round"/>
<path d="m48.403 17.472c0.8631 0.5473 1.7285 1.0543 2.6255 1.5097 0.3705 0.1881-0.0878-0.1759-0.2453-0.235" stroke="#00ADB5" stroke-linecap="round" stroke-linejoin="round"/>
<path d="m50.085 14.769c0.0583 0.0495 3.4515 2.9569 2.8497 2.3085" stroke="#00ADB5" stroke-linecap="round" stroke-linejoin="round"/>
<path d="m52.1 13.715c0.7485 0.7201 3.0408 2.8263 2.2337 2.1725" stroke="#00ADB5" stroke-linecap="round" stroke-linejoin="round"/>
<path d="m47.4 18.621c1.2404-1.1552 3.9608-3.4437 4.6274-5.2193 0.2626-0.6996 1.4658-1.5987 0.3343-0.6368" stroke="#00ADB5" stroke-linecap="round" stroke-linejoin="round"/>
<path d="m47.556 18.965c0.1178 0.0943 2.4903 2.6497 2.9963 1.4106 0.2582-0.6324 0.5945-1.4562 1.228-1.8048 1.1114-0.6116 1.3165-2.5378 2.4542-3.0545 1.2907-0.5861 1.1701-1.5691-0.0318-1.9178-0.4723-0.1369-0.0998-1.0675-0.5902-0.9944-0.449 0.0669-0.6867-0.0988-1.1886-0.0068" stroke="#00ADB5" stroke-linecap="round" stroke-linejoin="round"/>
<path d="m40.395 14.181c0.8137 1.5549 0.9676 2.1187 2.2805 2.7671 0.3544 0.1751 0.817-0.0677 1.0859 0.0689 0.5322 0.2701 1.5839 0.2758 1.9811-0.2146 0.7987-0.986 1.0927-1.6224 2.3164-2.2221 0.772-0.3784 1.393-1.2711 1.7502-2.0112 0.3927-0.8133 1.0997-1.4262 1.5142-2.2427 0.1765-0.3476-1.2482-1.243-1.2611-1.8445-0.0036-0.17054-1.6953-0.17565-1.9768-0.31854-0.341-0.17314-0.4974-0.41718-0.661-0.77753-0.2391-0.52634-0.663 0.12718-1.3053 0.17707" stroke="#00ADB5" stroke-linecap="round" stroke-linejoin="round"/>
<path d="m12.218 33.906c1.9219 0.7305 3.598 1.6724 5.3283 2.7149 1.5023 0.905 3.2 1.3872 4.6927 2.2644 1.0627 0.6245 2.1656 2.0503 2.9499 2.9867 0.2613 0.312 0.4565 0.604 0.6418 0.9556 0.4253 0.8068-0.0171-1.1436-0.0622-1.3574" stroke="#00ADB5" stroke-linecap="round" stroke-linejoin="round"/>
<path d="m30.777 19.242c0.5329 0.5596 2.6911 3.6489 2.2654 1.3268" stroke="#00ADB5" stroke-linecap="round" stroke-linejoin="round"/>
</svg>
