<?xml version="1.0" encoding="UTF-8"?>
<svg fill="none" viewBox="0 0 364 364" xmlns="http://www.w3.org/2000/svg">
<path d="m106 293.25c-0.927 0.137-2.017 0.209-2.238 1.313-0.171 0.856-0.106 1.736 0.406 2.478 0.877 1.268 2.178 2.008 3.746 1.747 1.402-0.234 3.327-1.504 3.327-3.081 0-0.89-0.641-1.785-1.171-2.451-0.568-0.713-1.059-1.464-1.774-2.047-0.965-0.787-1.744-0.864-2.611 0.064-0.475 0.507-0.924 1.2-1.131 1.865-0.103 0.327-0.028 0.59-0.028 0.919 0 0.438-0.081-0.208 0-0.425" stroke="#00ADB5" stroke-linecap="round" stroke-linejoin="round"/>
<path d="m110.81 295.75c0.789 0.701 1.457 1.334 2.852 1.368 0.977 0.024 1.953-0.22 2.868-0.482 0.655-0.188 2.756-1.183 1.054-1.263" stroke="#00ADB5" stroke-linecap="round" stroke-linejoin="round"/>
<path d="m118.94 289.64c-1.041 1.15-2.477 3.402-1.938 5.128 0.19 0.608 0.465 1.016 0.822 1.535 0.718 1.044 1.83 0.719 2.839 0.446 0.731-0.198 1.6-0.821 1.88-1.529 0.386-0.977-0.419-2.505-1.092-3.178-0.751-0.751-1.346-1.665-2.183-2.323-0.223-0.175-0.392-0.365-0.683-0.3-0.326 0.072-0.461 0.385-0.027 0.385" stroke="#00ADB5" stroke-linecap="round" stroke-linejoin="round"/>
<path d="m192.53 132.13c-0.927 0.137-2.018 0.21-2.238 1.313-0.171 0.856-0.107 1.736 0.406 2.478 0.876 1.268 2.178 2.008 3.746 1.747 1.401-0.234 3.326-1.504 3.326-3.081 0-0.89-0.64-1.785-1.17-2.451-0.568-0.713-1.059-1.463-1.774-2.047-0.965-0.787-1.744-0.864-2.612 0.064-0.474 0.508-0.923 1.2-1.131 1.865-0.102 0.328-0.027 0.59-0.027 0.919 0 0.438-0.081-0.208 0-0.425" stroke="#00ADB5" stroke-linecap="round" stroke-linejoin="round"/>
<path d="m197.33 134.64c0.789 0.7 1.457 1.333 2.852 1.368 0.976 0.024 1.953-0.22 2.868-0.483 0.655-0.187 2.755-1.182 1.053-1.263" stroke="#00ADB5" stroke-linecap="round" stroke-linejoin="round"/>
<path d="m205.47 128.53c-1.041 1.15-2.478 3.402-1.938 5.129 0.189 0.607 0.465 1.016 0.822 1.534 0.717 1.044 1.829 0.719 2.838 0.446 0.732-0.197 1.6-0.82 1.88-1.528 0.387-0.978-0.418-2.506-1.091-3.179-0.752-0.751-1.347-1.665-2.184-2.323-0.223-0.175-0.392-0.365-0.682-0.3-0.327 0.073-0.461 0.385-0.028 0.385" stroke="#00ADB5" stroke-linecap="round" stroke-linejoin="round"/>
<path d="m112.69 98.716c5.344-2.5462 9.664-6.756 14.008-10.726 3.415-3.1202 6.995-6.2034 10.763-8.896 0.744-0.5313 1.794-1.6005 2.799-1.1448 0.996 0.4516 1.571 1.6811 2.358 2.4091 1.938 1.793 3.681 3.984 5.275 6.091 1.755 2.3194-0.876 3.6031-2.503 5.1217-1.847 1.725-3.612 3.5038-5.63 5.0259-1.918 1.4469-3.459 3.4412-5.215 5.0792-2.677 2.496-5.18 5.153-7.848 7.652-1.589 1.488-3.412 2.702-4.941 4.242-0.536 0.54-1.032 1.253-1.65 1.703-0.497 0.361-1.184-1.027-1.361-1.289-1.403-2.075-3.576-3.494-4.95-5.664-0.863-1.365-1.444-3.049-2.478-4.295-0.494-0.595-1.728-1.934-1.187-2.803 0.552-0.887 2.119-1.3124 2.974-1.9479 0.666-0.4953 1.476-1.1069 2.235-1.4513 0.551-0.2504 1.092-0.6941 1.585-1.0358 1.297-0.8993-0.077-0.5149-0.955-0.1807" stroke="#00ADB5" stroke-linecap="round" stroke-linejoin="round"/>
<path d="m113.5 102.79c3.254 2.015 6.172 4.929 8.712 7.804 0.064 0.073 0.682 0.503 0.588 0.663-0.182 0.308-2.294-1.082-2.495-1.221" stroke="#00ADB5" stroke-linecap="round" stroke-linejoin="round"/>
<path d="m116.73 99.878c2.638 0.7554 4.21 2.1924 6.34 3.7304 0.948 0.685 1.915 1.303 2.766 2.108 0.4 0.378 0.685 0.877 1.054 1.284 0.506 0.559-1.561-0.649-1.805-0.788" stroke="#00ADB5" stroke-linecap="round" stroke-linejoin="round"/>
<path d="m120.56 97.62c1.846 1.6659 3.701 3.3087 5.605 4.9077 0.723 0.607 1.544 1.165 2.169 1.88 1.109 1.27-0.343-0.378-0.837-0.843" stroke="#00ADB5" stroke-linecap="round" stroke-linejoin="round"/>
<path d="m123.15 96.032c1.369 0.8324 2.8 1.639 3.959 2.7614 0.475 0.4605 0.87 1.0031 1.378 1.4293 0.627 0.526 1.175 1.139 1.806 1.649 0.898 0.728 1.033 0.94-0.034 0.027" stroke="#00ADB5" stroke-linecap="round" stroke-linejoin="round"/>
<path d="m126.48 93.588c1.51 1.1821 2.908 2.3825 4.171 3.8246 0.559 0.6386 1.01 1.3759 1.72 1.8658 0.651 0.4489 1.107 0.5786 0.345-0.1508" stroke="#00ADB5" stroke-linecap="round" stroke-linejoin="round"/>
<path d="m129.69 91.097c1.33 0.9994 2.641 1.9117 3.704 3.1988 0.486 0.5893 0.87 1.2665 1.413 1.81 1.103 1.1036 0.345 0.5473-0.453-0.2018" stroke="#00ADB5" stroke-linecap="round" stroke-linejoin="round"/>
<path d="m132.65 88.512c1.867 1.7862 3.431 3.8784 5.301 5.6427 1.26 1.1879-0.545-0.7157-0.84-1.0539" stroke="#00ADB5" stroke-linecap="round" stroke-linejoin="round"/>
<path d="m136.27 86.457c1.572-0.6417 3.202-1.4066 4.047-2.9747 0.233-0.4324 0.533-0.8088 0.628-1.2961 0.132-0.6692 0.106-0.3821-0.39 0.051" stroke="#00ADB5" stroke-linecap="round" stroke-linejoin="round"/>
<path d="m138.8 88.615c1.246-1.1562 2.639-2.4192 3.552-3.8869 0.456-0.7321 1.323-1.6256 0.11-0.5668" stroke="#00ADB5" stroke-linecap="round" stroke-linejoin="round"/>
<path d="m142.79 91.039c1.136-1.2337 2.146-2.3811 3.191-3.6711 0.337-0.4168 1.366-0.9577 0.128-0.6269" stroke="#00ADB5" stroke-linecap="round" stroke-linejoin="round"/>
<path d="m141.89 90.415c1.188-1.0183 2.532-2.2039 3.474-3.4898 0.251-0.343 0.444-0.7251 0.674-1.0815 0.386-0.597 0.41-0.3954-0.174-0.3341" stroke="#00ADB5" stroke-linecap="round" stroke-linejoin="round"/>
<path d="m116.71 104.85c5.92-2.405 7.381-8.9322 12.206-12.623 0.587-0.449 1.063-0.9482 1.748-1.259 0.457-0.2078 1.022-0.3073 1.439-0.5732 0.254-0.1623 2.364-1.7742 0.898-1.1083" stroke="#00ADB5" stroke-linecap="round" stroke-linejoin="round"/>
<path d="m113.96 103.1c0.664-0.808 1.254-1.499 2.097-2.083 0.138-0.096 0.351-0.112 0.465-0.24 0.225-0.254 0.566-0.625 0.653-0.9517 0.342-1.2879 2.012-1.0498 2.899-1.6956 0.844-0.6143 1.656-1.2362 2.517-1.8432 0.947-0.6688 1.386-1.2552 2.147-2.1121 0.699-0.7871 1.378-1.5833 2.118-2.3285 0.605-0.6096 1.556-1.164 1.942-1.9443 0.435-0.8805 1.546-1.8883 2.547-1.7251 0.343 0.0561 2.868 1.5192 1.218 0.5837" stroke="#00ADB5" stroke-linecap="round" stroke-linejoin="round"/>
<path d="m119.31 106.25c4.449-2.346 6.918-7.4627 9.923-11.328 1.106-1.4235 2.688-2.3695 3.847-3.7682 0.495-0.5983 1.589-1.2338 0.317-1.2236" stroke="#00ADB5" stroke-linecap="round" stroke-linejoin="round"/>
<path d="m120.9 107.7c4.031-2.479 6.613-7.09 9.546-10.744 1.334-1.6623 2.622-3.3595 3.972-5.0083 0.616-0.7517 1.69-1.2213 0.312-0.4516" stroke="#00ADB5" stroke-linecap="round" stroke-linejoin="round"/>
<path d="m122.49 110.28c2.516-2.453 4.547-5.1 6.605-7.938 1.251-1.725 2.333-3.6645 3.803-5.2181 0.843-0.8913 1.492-1.9351 2.258-2.88 0.308-0.3807 0.521-0.8243 0.838-1.2018 0.714-0.8503 0.216-0.081-0.281 0.3803" stroke="#00ADB5" stroke-linecap="round" stroke-linejoin="round"/>
<path d="m123.08 111.36c1.252-1.226 3.086-2.407 3.921-3.997 0.303-0.578 1.053-1.972 1.579-2.326 0.696-0.467 1.027-1.46 1.534-2.085 0.527-0.651 1.043-1.286 1.615-1.905 0.537-0.581 0.708-1.5998 1.372-2.0994 0.74-0.5565 1.1-1.418 1.69-2.0824 0.511-0.575 1.484-1.1709 2.117-1.6102 0.351-0.2434 0.597-0.5751 0.995-0.756 0.807-0.3665 0.283-0.1789-0.456-0.2065" stroke="#00ADB5" stroke-linecap="round" stroke-linejoin="round"/>
<path d="m136.17 86.916c1.035 0.273 2.312 0.4605 3.256 1.0248 0.609 0.3642 1.139 0.7299 0.03 0.0667" stroke="#00ADB5" stroke-linecap="round" stroke-linejoin="round"/>
<path d="m137.24 85.188c1.477 0.3859 2.521 0.8186 3.726 1.6039 0.787 0.5135 0.661 0.3713-0.159-0.1229" stroke="#00ADB5" stroke-linecap="round" stroke-linejoin="round"/>
<path d="m139.03 83.444c1.268 0.7134 2.499 1.5241 3.811 2.1452 0.771 0.3653 0.366 0.3398-0.229 0.0523" stroke="#00ADB5" stroke-linecap="round" stroke-linejoin="round"/>
<path d="m140.05 82.05c1.333 0.6073 2.563 1.2121 3.791 1.9761 0.56 0.3483 0.052 0.3709-0.373 0.089" stroke="#00ADB5" stroke-linecap="round" stroke-linejoin="round"/>
<path d="m136.82 86.309c1.008-1.198 2.019-2.3333 2.936-3.5613 0.261-0.3489 1.848-2.2914 1.162-1.2972" stroke="#00ADB5" stroke-linecap="round" stroke-linejoin="round"/>
<path d="m137.88 88.412c1.311-1.1591 3.2-2.7046 3.624-4.4364 0.124-0.5097 0.394-1.019 0.79-1.3696 0.402-0.3556 0.821-0.5162 0.222 0.0831" stroke="#00ADB5" stroke-linecap="round" stroke-linejoin="round"/>
<path d="m136.83 88.373c1.398-1.5058 2.593-2.5179 3.383-4.3729 0.205-0.4817 0.44-0.881 0.777-1.2601 0.357-0.4018 0.869-0.778 0.18-0.0588" stroke="#00ADB5" stroke-linecap="round" stroke-linejoin="round"/>
<path d="m142.02 89.115c0.644 0.4081 1.289 0.7864 1.958 1.126 0.277 0.1403-0.065-0.1312-0.183-0.1753" stroke="#00ADB5" stroke-linecap="round" stroke-linejoin="round"/>
<path d="m143.28 87.098c0.044 0.037 2.575 2.2056 2.126 1.722" stroke="#00ADB5" stroke-linecap="round" stroke-linejoin="round"/>
<path d="m144.78 86.312c0.558 0.5372 2.268 2.1082 1.666 1.6206" stroke="#00ADB5" stroke-linecap="round" stroke-linejoin="round"/>
<path d="m141.27 89.971c0.925-0.8616 2.954-2.5686 3.451-3.893 0.196-0.5219 1.094-1.1925 0.25-0.475" stroke="#00ADB5" stroke-linecap="round" stroke-linejoin="round"/>
<path d="m141.39 90.228c0.087 0.0704 1.857 1.9764 2.234 1.0522 0.193-0.4717 0.444-1.0862 0.916-1.3462 0.829-0.4562 0.982-1.893 1.831-2.2784 0.963-0.4372 0.873-1.1704-0.024-1.4304-0.352-0.1022-0.074-0.7964-0.44-0.7418-0.335 0.0499-0.512-0.0737-0.886-0.0051" stroke="#00ADB5" stroke-linecap="round" stroke-linejoin="round"/>
<path d="m136.05 86.659c0.607 1.1599 0.722 1.5804 1.701 2.0641 0.264 0.1305 0.609-0.0505 0.81 0.0513 0.397 0.2015 1.181 0.2057 1.478-0.16 0.595-0.7355 0.815-1.2101 1.728-1.6575 0.575-0.2822 1.039-0.9481 1.305-1.5001 0.293-0.6067 0.82-1.0638 1.129-1.6728 0.132-0.2594-0.931-0.9273-0.94-1.3759-3e-3 -0.1272-1.265-0.131-1.475-0.2376-0.254-0.1291-0.371-0.3111-0.493-0.5799-0.178-0.3926-0.494 0.0948-0.973 0.1321" stroke="#00ADB5" stroke-linecap="round" stroke-linejoin="round"/>
<path d="m115.03 101.37c1.434 0.545 2.684 1.248 3.975 2.025 1.12 0.676 2.386 1.035 3.5 1.69 0.792 0.465 1.615 1.529 2.2 2.227 0.195 0.233 0.341 0.451 0.479 0.713 0.317 0.602-0.013-0.853-0.047-1.012" stroke="#00ADB5" stroke-linecap="round" stroke-linejoin="round"/>
<path d="m128.87 90.434c0.398 0.4174 2.008 2.7217 1.69 0.9897" stroke="#00ADB5" stroke-linecap="round" stroke-linejoin="round"/>
<path d="m132.19 250.39c0.17 0.877 0.604 1.447 0.94 2.245 0.229 0.544 0.657 0.965 0.895 1.498 0.258 0.576 0.643 1.253 1.002 1.766 0.308 0.439 0.509 0.856 0.898 1.244 0.686 0.686 1.205 1.504 1.894 2.18 1.002 0.983 2.699 2.266 4.159 2.185 0.469-0.026 0.988 0.119 1.448 0.05 0.394-0.06 0.873-0.08 1.269-0.012 0.649 0.112 1.354 0 1.976 0.134 0.335 0.072 0.7-0.033 1.04 0.029 0.44 0.082 0.956 0.102 1.405 0.102 1.469 0 2.934-8e-3 4.399-0.194 0.794-0.101 1.58 0.162 2.366 0.022 0.737-0.131 1.72 4e-3 2.413-0.299 0.853-0.373 1.701-0.96 2.36-1.618 0.33-0.33 0.58-0.725 0.804-1.133 0.294-0.536 0.457-1.115 0.752-1.65 1.03-1.866 1.617-3.943 2.45-5.888 0.197-0.458 0.52-0.829 0.755-1.253 0.059-0.107 0.086-0.244 0.183-0.347 0.364-0.384-0.332-0.425-0.652-0.571" stroke="#00ADB5" stroke-linecap="round" stroke-linejoin="round"/>
<path d="m132.02 250.47c0.729-0.954 1.347-1.654 2.406-2.193 0.887-0.452 1.807-0.988 2.609-1.578 1.231-0.905 2.926-1.309 4.426-1.582 1.632-0.296 3.238-0.643 4.899-0.643 0.514 0 1.023 0.155 1.537 0.163 0.615 0.01 1.232 0.029 1.844 0.082 0.94 0.08 1.905 0.061 2.847 0.081 1.313 0.029 2.571 0.709 3.884 0.814 0.781 0.062 1.692 0.179 2.452 0.392 0.285 0.079 0.609 0.134 0.875 0.263 0.33 0.16 0.562 0.432 0.866 0.621 0.98 0.609 2.075 0.896 3.134 1.359 0.324 0.142 0.882 0.386 1.242 0.386 0.494 0 0.469 0.913 0.469 0" stroke="#00ADB5" stroke-linecap="round" stroke-linejoin="round"/>
<path d="m165.43 249.21c-0.605 0.811-1.036 1.119-1.894 1.593-0.674 0.372-1.421 0.635-2.176 0.773-0.705 0.128-1.475 0.23-2.189 0.287-0.595 0.048-1.201-0.021-1.809 0.048-1.373 0.157-2.759 0.511-4.083 0.897-1.891 0.553-3.717 0.611-5.67 0.717-2.133 0.115-4.27-0.048-6.359-0.481-0.705-0.146-1.45-0.015-2.167-0.043-0.79-0.031-1.564-0.248-2.307-0.505-0.313-0.108-0.601-0.275-0.929-0.349-0.384-0.088-0.775-0.053-1.156-0.145-0.531-0.129-1.151-0.361-1.6-0.671-0.195-0.135-0.488-0.247-0.641-0.451-0.045-0.06-0.102-0.192-0.102-0.263 0-0.169-0.139-0.126 0.081 0.02" stroke="#00ADB5" stroke-linecap="round" stroke-linejoin="round"/>
<path d="m147.89 257.49c0.496-0.055 1.152-0.045 0.947-0.684-0.066-0.205-0.232-0.227-0.408-0.285-0.525-0.175-1.464 0.163-1.661 0.711-0.354 0.983 0.316 2.045 1.369 1.704 0.286-0.092 0.794-0.295 0.976-0.555 0.219-0.312-0.109-0.22-0.326-0.523" stroke="#00ADB5" stroke-linecap="round" stroke-linejoin="round"/>
<path d="m146.38 256.43c0.792-0.318 1.197-0.449 1.997-0.449 0.323 0 0.484-0.023 0.768 0.163 0.47 0.307 0.632 0.891 0.583 1.405-0.042 0.435-0.185 1.03-0.338 1.442-0.114 0.306-0.395 0.359-0.682 0.417-0.263 0.052-0.836-0.095-1.043 0.02-0.219 0.122-0.89 0.163-1.06-0.063-0.156-0.209-0.324-0.298-0.438-0.551-0.108-0.241-0.157-0.472-0.244-0.712-0.12-0.329-0.336-1.229 0.111-1.427 0.261-0.117 0.373-0.186 0.673-0.186 0.085 0 0.158 0.063 0.245 0.063 0.125 0-0.242-0.081-0.368-0.081" stroke="#00ADB5" stroke-linecap="round" stroke-linejoin="round"/>
<path d="m147.81 253.16c0.575-0.744 1.101-1.512 1.695-2.235 0.32-0.388 0.717-0.723 1.061-1.095 0.986-1.064 1.99-2.229 2.742-3.474 0.74-1.225 1.751-2.56 2.849-3.481 0.579-0.486 1.097-1.023 1.602-1.584 0.489-0.543 0.715-1.304 1.178-1.878 0.359-0.445 2.709-3.473 3.119-1.632 0.16 0.723-0.545 1.229-0.988 1.672-0.503 0.503-1.009 1.142-1.437 1.714-0.413 0.551-0.916 1.035-1.317 1.591-0.546 0.756-1.539 1.296-1.938 2.152-0.328 0.707-0.873 1.274-1.282 1.929-0.567 0.907-1.232 1.665-1.899 2.495-0.53 0.658-1.359 1.199-1.734 1.949-0.313 0.627-0.869 0.891-1.376 1.296-0.22 0.177-0.488 0.275-0.684 0.519-0.065 0.082-0.182 0.176-0.243 0.084-0.034-0.052-0.167 0.065-0.142 0.123 0.087 0.202-0.125-0.489-0.145-0.553" stroke="#00ADB5" stroke-linecap="round" stroke-linejoin="round"/>
<path d="m147.48 253.37c0.156 0.08 1.142 0.828 1.142 0.225 0-0.183 0.235-0.487 0.317-0.673 0.063-0.141-0.501-6e-3 -0.584 0.102-0.11 0.141-0.322 0.255 0.022 0.265 0.265 7e-3 0.472-0.106 0.673-0.263 0.058-0.045 0.836 0.078 0.143 0.059-0.369-0.01-0.727 0-1.081 0-0.306 0 0.314-0.082 0.403-0.082 0.072 0-0.517 0.35-0.618 0.236-0.025-0.028-0.068-0.104 0.031-0.154" stroke="#00ADB5" stroke-linecap="round" stroke-linejoin="round"/>
<path d="m134.51 250.35c0.046 0.024 1.504 0.788 1.509 0.693 7e-3 -0.114-0.074-0.213-0.018-0.326 0.247-0.493 0.566-0.257 0.99-0.066 0.332 0.149-0.171-1.501 0.828-0.804 0.516 0.36 0.653 0.302 0.568-0.302-0.064-0.457 0.094-0.458 0.488-0.41 0.267 0.033 0.459 0.092 0.612-0.163 0.185-0.309 0.394-0.484 0.772-0.351 0.314 0.11 0.593 0.421 0.809 0.025 0.095-0.175 0.015-0.696 0.315-0.596 0.188 0.062 0.436 0.308 0.651 0.231 0.162-0.059 0.287-0.562 0.471-0.483 0.192 0.083 0.388 0.448 0.63 0.36 0.117-0.042 0.334-0.424 0.104-0.378" stroke="#00ADB5" stroke-linecap="round" stroke-linejoin="round"/>
<path d="m140.26 249.62c0.505 0.411 2.399 2.609 2.955 0.967 0.099-0.294 0.115-0.876 0.394-0.394 0.23 0.397 0.576 0.673 0.952 0.297 0.249-0.249 0.36-0.672 0.716-0.802 0.327-0.12 0.567 0.494 0.839 0.136 0.219-0.29 0.113-0.787-0.209-0.961-0.105-0.057-0.135 0.139-0.181 0.186" stroke="#00ADB5" stroke-linecap="round" stroke-linejoin="round"/>
<path d="m144.63 247.09c0.788-0.136 1.78-0.411 2.38 0.294 0.278 0.327 0.251 0.745 0.068 1.115-0.134 0.271-0.495 0.406-0.725 0.141-0.189-0.218 0.2-0.577 0.34-0.71 0.477-0.455 1.185 0.274 1.334 0.769 0.125 0.413-1.004 1.37-0.868 0.96" stroke="#00ADB5" stroke-linecap="round" stroke-linejoin="round"/>
<path d="m157.89 248.47c0.234-0.08 1.739-0.565 1.45 0.236-0.148 0.411-0.716 0.631-1.088 0.766-0.176 0.064-0.631 0.053-0.335-0.204 0.256-0.222 0.616-0.326 0.952-0.299 1.309 0.106-0.522 1.61-0.898 1.818-0.73 0.402-1.724 0.826-2.488 0.335" stroke="#00ADB5" stroke-linecap="round" stroke-linejoin="round"/>
<path d="m149.85 246.07c0.31 0.505 0.684 1.012 0.949 1.543 0.091 0.183-0.304-0.285-0.396-0.467-0.025-0.048-0.195-0.584-0.211-0.58-0.199 0.044-0.246 0.954-0.299 1.122-0.254 0.794-0.882 0.49-1.498 0.43-0.746-0.071-1.079 0.664-1.492 1.134-0.329 0.375-0.459 0.49-0.235 0.938 0.181 0.362 0.256 0.713 0 1.04-0.2 0.255-0.45 0.417-0.691 0.628-0.221 0.193 0.095 0.161 0.054 0.045-0.113-0.317-0.811-0.251-1.04-0.236-0.849 0.056-1.714-0.157-2.547-0.104-0.443 0.028-0.86 0.275-1.299 0.34-0.446 0.066 0.144 0.453 0.31 0.564 0.288 0.192-0.562-0.407-0.874-0.555-0.524-0.248-1.007-0.44-1.278-0.988-0.272-0.55-0.511-0.925-0.97-1.328-0.159-0.139-0.177-0.351-0.1-0.539 0.179-0.437 0.576-0.793 0.97-1.029" stroke="#00ADB5" stroke-linecap="round" stroke-linejoin="round"/>
<path d="m149.77 247.7c-1.022-0.713-1.866-1.021-3.068-1.183-0.423-0.056-0.874-0.349-1.149-0.673-0.245-0.287-0.106-0.211-0.395 0.179-0.394 0.533-0.686 0.055-1.189 0.195-0.772 0.215-1.434 0.933-2.217 1.065-0.214 0.037-0.162-0.322-0.43-0.167-0.451 0.26-0.797 0.506-1.324 0.589-0.319 0.05-0.923 0.26-0.875 0.648" stroke="#00ADB5" stroke-linecap="round" stroke-linejoin="round"/>
<path d="m156.7 247.7c0.986 0.095 1.986 0.083 2.968 0.188 0.346 0.038 0.523 0.177 0.766 0.404 0.22 0.204 0.563 0.685 0.877 0.711 0.455 0.038 0.689-0.15 1.113-0.283 0.255-0.08 1.07 0 0.802 0" stroke="#00ADB5" stroke-linecap="round" stroke-linejoin="round"/>
<path d="m155.97 248.8c-1.061 0.699-1.628 1.759-2.763 2.395-0.225 0.126-0.913 0.37-0.861 0.784 0.037 0.3 2.335-0.638 2.685-0.813" stroke="#00ADB5" stroke-linecap="round" stroke-linejoin="round"/>
<path d="m159.93 249.78c0.577 0.429 1.074 1.043 1.795 0.825 0.195-0.059 0.603-0.082 0.734-0.213" stroke="#00ADB5" stroke-linecap="round" stroke-linejoin="round"/>
<path d="m302.48 232c-2.979 0.572-5.144 1.432-7.032 3.859-1.197 1.538-0.935 3.96-0.15 5.591 1.291 2.687 4.467 4.204 7.332 4.336 3.338 0.154 7.978-0.827 8.662-4.808 0.367-2.134-1.672-4.152-2.626-5.902-0.777-1.423-1.946-3.342-3.581-3.945-0.667-0.245-2.216-0.16-2.701 0.504-0.217 0.297-0.496 0.61-0.654 0.944-0.128 0.27 9e-3 -0.688-0.022-0.965" stroke="#00ADB5" stroke-linecap="round" stroke-linejoin="round"/>
<path d="m303.74 239.33c-0.803 0.414-2.108 0.687-1.404 1.592 0.161 0.207 0.389 0.195 0.584 0 0.167-0.166 1.007-1.041 0.386-1.248-1.266-0.422-0.803 2.104 0.102 0.986 0.486-0.601-0.194-1.192-0.804-0.826-0.726 0.436-0.152 1.197 0.418 0.536 0.43-0.498 0.087-0.88-0.38-0.412-0.419 0.418 6e-3 1.085 0.418 0.52 0.422-0.581-0.059-1.072-0.568-0.563-0.59 0.589 0.048 0.527 0.466 0.139 0.421-0.391-0.326-0.333-0.568-0.027-0.563 0.712 0.319 0.611 0.461 0 0.208-0.897-0.717 1.165-0.268-0.407" stroke="#00ADB5" stroke-linecap="round" stroke-linejoin="round"/>
<path d="m300.46 236.34c0.857 1.131 1.735 2.204 2.455 3.334 0.199 0.314 0.04 0.628 0.15 0.622 0.406-0.022 0.822-0.096 1.254-0.096 0.99 0 1.77-0.483 2.723-0.483 1.155 0 2.852-0.3 0.944-1.254" stroke="#00ADB5" stroke-linecap="round" stroke-linejoin="round"/>
<path d="m299.49 231.9c-0.18-0.912-1.061-3.123 0.579-2.889 0.588 0.084 0.983 0.693 1.329 1.077 0.901 1.001 0.805 2.209-0.654 2.295-0.382 0.022-0.919 0.78-1.35 0.241-0.488-0.61 0.01-0.569 0.096-1.303 0.057-0.48-0.257-0.44-0.391-0.911-0.103-0.361 0.111-0.757 0.198-1.018" stroke="#00ADB5" stroke-linecap="round" stroke-linejoin="round"/>
<path d="m300.07 230.84c-8e-3 0.23-0.364 2.307 0.391 1.967 0.253-0.114 0.472-0.279 0.574-0.541 0.099-0.254-6e-3 -0.406-0.118-0.654-0.288-0.64-1.122-1.634-0.868-0.193 0.16 0.909 1.175 0.696 1.254-0.172 0.06-0.663-0.776-1.551-1.308-0.793-0.376 0.536 0.294 1.717 0.686 0.89 0.199-0.42-0.277-1.489-0.782-0.965-0.519 0.537 0.26 1.67 0.771 1.211 0.506-0.453 0.162-1.835-0.385-1.308-0.502 0.483 0.25 1.443 0.632 0.708 0.426-0.82-0.512-1.438-0.804-0.579-0.26 0.767 0.552 1.592 0.74 0.547 0.143-0.796-1.319-1.219-1.319-0.268 0 0.876 0.783 0.786 0.783-0.011 0-0.83-0.837-0.644-0.488 0.054 0.349 0.697 0.816-0.541 0.423-0.933-0.458-0.458-1.064 0.25-0.525 0.691 0.368 0.301 0.87-0.947 0.252-1.179-0.534-0.2-0.239 0.89-0.054 0.643 0.287-0.382-0.152-0.638 0.151-0.562 0.266 0.066 0.915 0.209 1.098 0.445 0.145 0.185 0.729 1.216 0.729 1.484 0 0.82-1.253 1.262-1.972 1.056-0.516-0.147-0.669 0.217-0.488 0.097 0.439-0.293 0.531-1.056 0.531-0.767" stroke="#00ADB5" stroke-linecap="round" stroke-linejoin="round"/>
<path d="m299.97 245.7c-0.497 1.054-0.938 2.113-1.523 3.109-0.131 0.225-0.378 0.682-0.407 0.944-0.078 0.704 0.629-1.679 0.772-2.026" stroke="#00ADB5" stroke-linecap="round" stroke-linejoin="round"/>
<path d="m309.72 243.67c1.222 1.543 2.569 2.643 3.521 4.337 0.094 0.166 0.257 0.299 0.386 0.428 0.434 0.434-0.804-0.925-1.206-1.388" stroke="#00ADB5" stroke-linecap="round" stroke-linejoin="round"/>
<path d="m228.78 153.71c0.765 2.884 3.715 13.604 4.421 17.52 1.943 10.785-1.106-3.931-1.114 0.832" stroke="#00ADB5" stroke-linecap="round" stroke-linejoin="round" stroke-width="2"/>
<path d="m223.61 158.37c-0.261-4.388-1.245-10.478 4.908-9.851 2.894 0.295 6.083 2.013 7.887 4.312 2.789 3.552 1.318 9.058-1.695 11.886-1.604 1.504-3.16 2.258-5.259 2.827-3.555 0.963-0.749-3.975-0.177-5.328" stroke="#00ADB5" stroke-linecap="round" stroke-linejoin="round" stroke-width="2"/>
<path d="m239.61 163.73c6.114-0.327 11.741-1.531 13.928 5.1 1.271 3.853 2.819 8.534 1.759 12.595-0.957 3.669-3.019 5.963-6.789 4.4-5.388-2.234-5.381-6.439-2.448-10.632 1.079-1.544 5.214-4.636 5.217-6.441" stroke="#00ADB5" stroke-linecap="round" stroke-linejoin="round" stroke-width="2"/>
<path d="m250.63 156.58c-0.208 1.609-0.212 12.988-3.291 13.097-0.578 0.021-1.063 0.321-1.567 0.572-1.939 0.966-0.76 0.097-0.036-0.908 1.64-2.276 4.96-1.435 6.623-4.456 1.806-3.28 2.637-4.893 0.049-7.431-1.814-1.778-1.017-4.803-2.445-0.541" stroke="#00ADB5" stroke-linecap="round" stroke-linejoin="round" stroke-width="2"/>
<path d="m259.65 146.25c2.363 5.319 4.523 12.247 8.313 16.877 1.002 1.224 1.564 0.159 1.549-0.794-0.02-1.205-0.359-2.42-0.708-3.56" stroke="#00ADB5" stroke-linecap="round" stroke-linejoin="round" stroke-width="2"/>
<path d="m252.79 160.08c3.749-1.475 12.954-2.968 14.523-7.649" stroke="#00ADB5" stroke-linecap="round" stroke-linejoin="round" stroke-width="2"/>
<path d="m264.32 146.43c16.249 28.422 0.418 8.445 8.677 3.247 5.014-3.155 5.432 11.716 6.821 5.284" stroke="#00ADB5" stroke-linecap="round" stroke-linejoin="round" stroke-width="2"/>
<path d="m278.84 145.45c0.59 1.763 2.57 13.399 6.692 10.741 1.843-1.189 3.99-3.455 4.345-5.683 0.382-2.39-1.112-8.463-4.491-7.809-1.542 0.298-4.121 0.371-5.127 1.836-0.972 1.416-1.586 4.734-0.419 1.25" stroke="#00ADB5" stroke-linecap="round" stroke-linejoin="round" stroke-width="2"/>
<path d="m290.35 142.63c4.608-2.959 10.024-3.93 10.725 3.037 0.088 0.875 0.105 1.976 0.506 2.781 0.465 0.934-0.49-2.282-1.395-2.801" stroke="#00ADB5" stroke-linecap="round" stroke-linejoin="round" stroke-width="2"/>
<path d="m290.01 145.3c0.209 3.642-0.312 8.576 1.39 11.992 0.058 0.117 0.462 1.008 0.258 0.52-0.403-0.967-0.57-1.623-1.33-2.671" stroke="#00ADB5" stroke-linecap="round" stroke-linejoin="round" stroke-width="2"/>
<path d="m173.38 178.27c-0.639 5.92 0.474 24.146-9.58 23.012-2.096-0.237-4-0.587-4.996-2.562-1.043-2.068-1.905-3.867-2.009-6.216-0.128-2.886 1.021-4.247 3.354-5.549 0.818-0.457-0.94 1.392-1.096 1.571-1.025 1.178 2.454-0.258 3.783-0.553" stroke="#00ADB5" stroke-linecap="round" stroke-linejoin="round" stroke-width="2"/>
<path d="m186.29 181.12c-5.086 0.475-12.264 1.44-13.084 7.802-0.445 3.45 4.685 3.87 6.912 5.045 3.826 2.02 6.729 8.605 2.438 11.504-2.985 2.015-5.242 0.944-8.146 1.145-2.949 0.205-0.895-0.882 0.853-1.18" stroke="#00ADB5" stroke-linecap="round" stroke-linejoin="round" stroke-width="2"/>
<path d="m213.85 24.484c-0.407 4.0842-0.655 8.2102-1.159 12.285-0.048 0.392-0.434 1.9395 0.022 0.6884 0.334-0.9149 0.226-1.8682 0.762-2.7357 0.738-1.1949 4.073-5.7463 5.64-5.2859 3.139 0.9227-0.03 6.746-0.929 8.4146-0.31 0.5755-1.154 1.8238-0.717 2.4692 0.583 0.8604 1.662-2.3192 1.707-2.4165" stroke="#00ADB5" stroke-linecap="round" stroke-linejoin="round" stroke-width="2"/>
<path d="m226.25 27.166c-0.372 1.8247-3.498 10.831-0.486 12.323 0.849 0.421 2.729-0.3737 3.314-1.0588 0.608-0.7134 0.29-1.8058 0.224-2.6338" stroke="#00ADB5" stroke-linecap="round" stroke-linejoin="round" stroke-width="2"/>
<path d="m220.05 27.362c3.304 0.9825 6.702 1.6366 9.984 2.6503 0.775 0.2393 1.066 0.3477 1.483 1.0389 0.649 1.0752-1.075 0.093-1.372-0.2327" stroke="#00ADB5" stroke-linecap="round" stroke-linejoin="round" stroke-width="2"/>
<path d="m234.99 33.746c-0.758 2.2894-1.471 4.6075-2.336 6.8604-0.173 0.4479-0.198 0.6117-0.291 0.2696-0.09-0.3295-0.176-0.5237-0.03-0.8718 0.778-1.8497 2.593-4.5082 4.305-5.5413 1.849-1.1157 0.84 2.6319 0.591 3.3905-0.278 0.852-1.03 3.1872-0.176 0.9276 0.509-1.3447 1.676-4.6868 3.643-4.2004 1.191 0.2946 0.916 1.9053 0.706 2.7571-0.389 1.5706-0.775 3.1307-1.164 4.7066-0.57 2.3028-0.262 1.0592 0.154-0.6236" stroke="#00ADB5" stroke-linecap="round" stroke-linejoin="round" stroke-width="2"/>
<path d="m249.68 28.734c-1.186 4.2688-2.643 8.5255-3.665 12.839-0.12 0.5058-0.382 2.3789 0.424 2.602 0.765 0.2119 3.788-1.6044 3.049-2.234" stroke="#00ADB5" stroke-linecap="round" stroke-linejoin="round" stroke-width="2"/>
<path d="m44.209 202.86c-2.8067 5.332-5.6044 10.669-8.4186 15.997-0.8021 1.519-2.3854 6.165-2.5814 4.459-0.2658-2.314 1.1478-5.553 1.7476-7.721 0.8465-3.059 2.5701-9.172 6.865-9.149 3.2421 0.017 6.8869 4.771 7.3896 7.737 0.355 2.095 1.3873-0.27 2.7883-0.902" stroke="#00ADB5" stroke-linecap="round" stroke-linejoin="round" stroke-width="2"/>
<path d="m52.909 219.94c1.8861 4.387 4.6664 11.802 10.392 7.723 2.6307-1.875 1.3234-5.083-1.2736-6.102-6.3646-2.497-14.384 4.476-15.972 10.207-1.5869 5.73 4.6776 7.487 8.987 8.053 2.3845 0.313 1.8497-1.725 3.9015-2.435" stroke="#00ADB5" stroke-linecap="round" stroke-linejoin="round" stroke-width="2"/>
<path d="m68.76 235.11c-4.9441-2.065-11.494-3.905-14.28 2.413-1.3429 3.045 4.6674 3.403 6.45 3.319 3.4049-0.16 10.986-8.042 8.4322-5.785-2.2416 1.98-4.5101 4.318-5.4318 7.243-0.5953 1.889 0.0884 6.063 2.2785 3.18" stroke="#00ADB5" stroke-linecap="round" stroke-linejoin="round" stroke-width="2"/>
<path d="m87.986 239.06c-7.1759 0.688-15.68 1.048-18.226 9.111-1.2515 3.963 1.6848 6.719 5.2228 7.882 2.4724 0.813 4.9928-0.951 6.4927-2.742" stroke="#00ADB5" stroke-linecap="round" stroke-linejoin="round" stroke-width="2"/>
<path d="m94.504 240.16c-0.3934 0.479-18.07 19.745-9.6441 19.894 2.3329 0.041 4.7272-1.316 6.334-2.843" stroke="#00ADB5" stroke-linecap="round" stroke-linejoin="round" stroke-width="2"/>
<path d="m79.531 243.66c3.3939 2.34 6.7401 4.818 10.463 6.627 0.9668 0.47 2.5781 0.695 3.2437 1.669 0.3738 0.547-0.214-0.753-0.2794-0.942" stroke="#00ADB5" stroke-linecap="round" stroke-linejoin="round" stroke-width="2"/>
<path d="m41.675 89.41c2.8482 4.8709 11.893 19.081 8.2211 14.797-2.3471-2.738-4.1299-6.3725-5.618-9.612-1.5616-3.3994-3.0279-9.4653 2.9229-9.1574 5.1075 0.2642 7.1465 5.48 8.0449 9.7552 0.3964 1.8862 0.4975 3.3512 1.3435 5.0672 0.8651 1.754 0.9131-5.0044 1.2419-6.7579" stroke="#00ADB5" stroke-linecap="round" stroke-linejoin="round" stroke-width="2"/>
<path d="m60.076 79.504c0.1588 0.7369 2.6208 17.581 6.1942 14.341 1.5046-1.3641 1.8353-4.726 2.0284-6.5679 0.6038-5.7569-1.8281-6.4678-5.8695-7.6861-1.928-0.5812-2.3231-0.5549-2.8526 1.4298-1.0872 4.0757 0.6266 2.9305 2.8226 0.6642" stroke="#00ADB5" stroke-linecap="round" stroke-linejoin="round" stroke-width="2"/>
<path d="m75.614 74.753c-1.9855 3.3459-4.5172 7.2818-3.1205 11.38 0.5793 1.7 1.9271 1.2509 2.8709 0.2938 1.4895-1.5103 2.266-3.9926 2.1832-6.0666-0.1588-3.976-2.6494-7.3783-5.2626-10.203-0.3624-0.3917-3.6628-3.1125-3.0165-0.7764 1.1609 4.1959 4.3918 8.2319 6.6433 11.879 3.7107 6.0106 4.8487 3.6764 6.5157-1.9656" stroke="#00ADB5" stroke-linecap="round" stroke-linejoin="round" stroke-width="2"/>
<path d="m82.78 75.793c1.2321 1.149 10.955 8.0942 11.257 1.9338 0.0274-0.5589-0.6851-0.7334-0.9199-1.2097-0.6053-1.2273-1.6079-2.0367-2.1536-2.6805" stroke="#00ADB5" stroke-linecap="round" stroke-linejoin="round" stroke-width="2"/>
<path d="m83.591 79.967c-3.8499-5.0555-9.2278-10.312-3.7149-15.31 2.3229-2.1059 7.1421-0.4406 7.0161 3.0779-0.0587 1.6389-0.4044 5.6912-2.7579 6.1191-1.2446 0.2262-1.818-0.5887-0.667-1.7272" stroke="#00ADB5" stroke-linecap="round" stroke-linejoin="round" stroke-width="2"/>
<path d="m92.38 59c2.4888 1.5838 20.225 12.065 10.935 16.647-1.448 0.714-2.722-0.9501-3.4917-2.0207-1.7352-2.4136 3.3197-5.8376 3.5307-8.3942" stroke="#00ADB5" stroke-linecap="round" stroke-linejoin="round" stroke-width="2"/>
<path d="m106.94 50.574c-1.448 1.1831-9.7583 8.5318-3.224 9.9527 3.61 0.7848 7.021-2.8119 9.764-4.6072 4.42-2.8921 5.352 2.6731 4.138 5.8142-0.744 1.9237-6.952 8.2189-5.253 3.2142" stroke="#00ADB5" stroke-linecap="round" stroke-linejoin="round" stroke-width="2"/>
<path d="m155.98 324.09c-5.529 2.782-12.773 7.855-6.796 14.587 2.867 3.229 8.159 1.906 11.934 1.533 1.061-0.105 3.988 0.915 3.191 0.207-1.723-1.532-2.964-1.433-3.481-4.019" stroke="#00ADB5" stroke-linecap="round" stroke-linejoin="round" stroke-width="2"/>
<path d="m172.39 322.23c0 4.075-0.038 6.992 4.144 8.577 1.805 0.685 2.939 1.313 3.418 3.336 0.542 2.287-1.054 5.6-2.942 6.879-2.335 1.582-5.267 2.133-7.894 1.057-2.249-0.922 0.237-2.012 1.409-3.067" stroke="#00ADB5" stroke-linecap="round" stroke-linejoin="round" stroke-width="2"/>
<path d="m190.67 317.75c-0.733 2.842-4.04 10.443-1.098 13.385 1.187 1.187 3.487 0.528 4.952 0.87 1.457 0.341 2.707 1.456 3.605 2.611 1.422 1.828 0.068 4.598-1.575 5.884-2.549 1.995-6.19 1.119-9.158 1.119-1.62 0-0.513-0.115 0.29-1.119" stroke="#00ADB5" stroke-linecap="round" stroke-linejoin="round" stroke-width="2"/>
<path d="m184.24 282.38c2.873-1.097 8.202-2.841 10.981-4.807 2.933-2.075-0.138-2.672-1.699-2.176-2.645 0.84-4.242 3.61-5.138 6.05-2.36 6.425 5.147 13.686 11.457 12.95 5.833-0.68 6.646-3.536 7.522-7.915" stroke="#00ADB5" stroke-linecap="round" stroke-linejoin="round" stroke-width="2"/>
<path d="m211.09 279.03c-0.653 1.064-6.86 13.844-8.578 7.832" stroke="#00ADB5" stroke-linecap="round" stroke-linejoin="round" stroke-width="2"/>
<path d="m199.53 279.4c2.618 3.501 8.945 16.017 15.291 15.664 0.92-0.051-0.301-3.594-0.373-4.102" stroke="#00ADB5" stroke-linecap="round" stroke-linejoin="round" stroke-width="2"/>
<path d="m216.68 279.4c1.447 8.475 4.345 34.088 2.694 25.651-0.851-4.351-8.624-27.892-1.782-26.915 2.967 0.424 10.542 4.754 8.557 8.723-1.116 2.232-8.033 3.012-4.993 1.492" stroke="#00ADB5" stroke-linecap="round" stroke-linejoin="round" stroke-width="2"/>
<path d="m230.86 285.37c0.921 4.795 1.808 9.587 2.61 14.4 0.138 0.825-0.047 0.145-0.29-0.31-1.525-2.861-3.614-7.959-3.543-11.168 0.068-3.041 4.251-5.114 6.444-2.922" stroke="#00ADB5" stroke-linecap="round" stroke-linejoin="round" stroke-width="2"/>
<path d="m242.79 290.96c-0.097 3.51 2.45 15.797 8.495 12.224 0.866-0.512 3.003-1.762 3.067-2.9 0.033-0.608-1.071-0.746-1.492-0.746-1.108 0-1.385-1.375-1.865-2.238" stroke="#00ADB5" stroke-linecap="round" stroke-linejoin="round" stroke-width="2"/>
<path d="m240.93 292.08c3.267-3.38 6.941-8.036 9.842-2.01 0.849 1.764 0.554 3.889-0.145 5.656-1.128 2.855-5.17 3.98-4.102-0.29" stroke="#00ADB5" stroke-linecap="round" stroke-linejoin="round" stroke-width="2"/>
<path d="m261.07 285.37c2.556 4.085 12.894 15.096 6.112 20.119-2.17 1.607-3.586 1.6-6.029 1.513-3.45-0.124-1.627-0.998-0.456-3.73" stroke="#00ADB5" stroke-linecap="round" stroke-linejoin="round" stroke-width="2"/>
<path d="m276.73 283.88c-0.772 0.934-10.745 10.575-4.683 11.603 2.234 0.378 4.288-0.975 6.34 0.393 3.703 2.469 2.826 5.815-0.58 7.915-1.702 1.05-3.602 1.6-5.387 2.466-1.009 0.489 0.066-0.928 0.207-1.492" stroke="#00ADB5" stroke-linecap="round" stroke-linejoin="round" stroke-width="2"/>
<path d="m268.15 279.77c-0.866 0.636-10.19 5.811-8.868 8.951 1.668 3.962 2.219-0.915 2.528-2.611" stroke="#00ADB5" stroke-linecap="round" stroke-linejoin="round" stroke-width="2"/>
<path d="m38.929 157.78c1.6611-3.917 0.9808-7.33 0.9808-11.389 0-0.789-0.1433-3.194 0.6865-3.625 1.3086-0.679 2.5315-1.132 4.0754-1.132 1.0265 0 2.0579 0.03 3.0839 0 1.0262-0.029 2.0202-0.447 3.0348-0.571 1.8878-0.231 3.8513 0.091 5.7155 0.091 1.4801 0 3.0113 0.192 4.4351 0.192 0.2527 0 1.2832 0.12 1.4493 0.267 0.5082 0.448 0.3626 1.167 0.7628 1.559" stroke="#00ADB5" stroke-linecap="round" stroke-linejoin="round"/>
<path d="m63.055 143.52c0.0646 1.156 0.0888 2.778 0.5643 3.907 0.3082 0.732 0.0625 1.706 0.1248 2.485 0.1197 1.497-0.1031 2.955-0.1031 4.407 0 1.947 0.0977 3.87 0.0977 5.806 0 1.663-1.6242 1.384-2.9086 1.151-1.1096-0.202-2.5987 0.202-3.7552 0.217-2.2311 0.027-4.4726 0.195-6.7072 0.195-1.8662 0-3.2521-0.542-4.9707-1.194-0.9177-0.348-1.4724-0.271-2.4582-0.271-0.9336 0-1.7014-0.146-2.6373 0.146-0.5476 0.172-1.5281 0.024-1.8396-0.537-0.3735-0.672 0.369-0.964 0.369-1.514 0-0.462-0.0581-1.783 0.0977-0.537" stroke="#00ADB5" stroke-linecap="round" stroke-linejoin="round"/>
<path d="m50.064 146.06s0.3907 0.195 0.7815 0.586c0.3907 0.293 1.2131 0.146 1.9047 0.146 0.3639 0 0.7481-0.283 1.0744-0.428 0.661-0.294 0.2668 0.258 0.1086 0.575-0.1752 0.35 0.0248 1.001 0.3418 1.221 0.523 0.362 1.0405 0.049 1.552-0.206 0.2124-0.107 0.1541-0.156 0.2198-0.011 0.0891 0.196 0.0732 0.48 0.0732 0.694 0 0.487-0.0319 1.296-0.293 1.72-0.3434 0.559-0.6904 0.92-1.2427 1.33-0.5455 0.405-1.2663 1.112-1.9915 1.112-1.4171 0-2.9212-0.308-3.6304-1.687-0.3005-0.585-0.8519-1.063-0.8519-1.731 0-0.558-0.1845-1.226 0-1.759 0.2236-0.645 0.7814-1.258 0.5861-1.258 0.0996 0.028 0.9767-0.5 1.3674-0.304z" stroke="#00ADB5" stroke-linecap="round" stroke-linejoin="round"/>
<path d="m51.676 145.71c0.5496-0.204 1.8047-0.63 2.1001-1.294 0.2283-0.514-0.5263-0.611-0.9279-0.611-0.4871 0-1.0643 0.673-1.1939 1.099-0.072 0.237-0.1405 0.479-0.2116 0.719-0.0343 0.116 0.0115 0.2 0.0353 0.307 0.0181 0.081 0.7633-0.31 0.7353-0.422" stroke="#00ADB5" stroke-linecap="round" stroke-linejoin="round"/>
<path d="m61.347 156.7-21.427 0.47c-2.2878 0.05-4.1161 1.919-4.1161 4.208 0 2.324 1.8842 4.208 4.2085 4.208h21.432c2.4543 0 4.4439-1.989 4.4439-4.444 0-2.492-2.0496-4.497-4.5414-4.442z" stroke="#00ADB5"/>
<path d="m44.656 157.06c0.3244 0.503 0.6044 1.107 0.9767 1.572 0.1872 0.234 0.1571 0.187 0.5201 0.052 0.6059-0.224 1.2924-0.063 1.9245-0.063 0.555 0 1.2002-0.29 1.7396-0.145 0.6248 0.168 1.3615-0.153 1.9765-0.167 0.7411-0.018 1.4475 0.052 2.1846 0.052 0.4443 0 0.8775-0.261 1.2888-0.261 0.2386 0 0.9187 0.19 0.9362-0.248 0.0085-0.213 0.104-0.42 0.104-0.636 0-0.291-0.1744-0.165-0.4681-0.312" stroke="#00ADB5" stroke-linecap="round" stroke-linejoin="round"/>
<path d="m150.47 50.285c0.401-0.5099 1.169-1.4535 0.093-1.6203-0.244-0.0378-0.471-0.1809-0.71-0.0726-0.737 0.3337-1.421 1.0682-1.421 1.9416 0 1.395 1.53 1.6971 2.642 1.6791 1.875-0.0305 2.445-1.8575 3.108-3.3374 0.669-1.4949 1.412-2.9656 2.106-4.4498 0.785-1.6794 2.073-3.0173 2.888-4.6813 0.35-0.7135 0.806-1.3419 1.256-1.9934 0.698-1.0106 1.195-2.0302 1.694-3.1508 0.41-0.9194 0.864-1.7589 1.366-2.6291 0.203-0.3519 0.126-0.891 0.514-0.5148 0.295 0.2857 0.763 0.4733 1.16 0.5459 1.733 0.3173 3.326 0.6532 5.111 0.5113 1.805-0.1435 3.609-0.4021 5.386-0.7463 0.604-0.1169 0.346 0.0239 0.061 0.3904-0.483 0.6218-0.895 1.2806-1.358 1.9106-0.604 0.8215-0.816 1.8108-1.173 2.75-0.393 1.0324-0.86 2.0185-1.235 3.0679-0.725 2.028-1.782 3.8774-3.091 5.5795-0.758 0.9864-1.695 2.7092-3.115 2.6395-2.197-0.108-0.713-4.4332 0.336-5.279 0.566-0.4553 1.184 0.0349 1.253 0.6461 0.094 0.8397-0.194 1.9906-1.009 2.4011-0.86 0.4331-1.519 0.3811-0.858-0.7359 0.401-0.6758 0.639 0.068 0.803-0.2626" stroke="#00ADB5" stroke-linecap="round" stroke-linejoin="round" stroke-width="2"/>
<path d="m316.06 200.96c0.402-0.51 1.17-1.454 0.093-1.621-0.244-0.037-0.471-0.18-0.71-0.072-0.736 0.333-1.42 1.068-1.42 1.941 0 1.395 1.53 1.698 2.641 1.679 1.875-0.03 2.446-1.857 3.108-3.337 0.669-1.495 1.412-2.965 2.106-4.45 0.786-1.679 2.074-3.017 2.889-4.681 0.349-0.713 0.805-1.342 1.255-1.993 0.698-1.011 1.196-2.031 1.695-3.151 0.409-0.92 0.863-1.759 1.365-2.629 0.203-0.352 0.127-0.891 0.515-0.515 0.294 0.286 0.763 0.473 1.159 0.546 1.733 0.317 3.327 0.653 5.111 0.511 1.805-0.143 3.609-0.402 5.386-0.746 0.604-0.117 0.347 0.024 0.062 0.39-0.483 0.622-0.896 1.281-1.359 1.911-0.603 0.821-0.816 1.811-1.173 2.75-0.392 1.032-0.86 2.018-1.235 3.068-0.725 2.028-1.782 3.877-3.091 5.579-0.758 0.987-1.694 2.709-3.114 2.64-2.198-0.108-0.714-4.433 0.336-5.279 0.565-0.456 1.183 0.035 1.252 0.646 0.095 0.84-0.193 1.99-1.009 2.401-0.86 0.433-1.519 0.381-0.857-0.736 0.4-0.676 0.638 0.068 0.803-0.263" stroke="#00ADB5" stroke-linecap="round" stroke-linejoin="round" stroke-width="2"/>
<path d="m298.36 113.07c-1.839-3.332-1.73-4.284-1.311-7.638 0.231-1.847 0.319-3.651 0.786-5.4681 0.836-3.2492 1.107-7.6245-1.509-10.241-5.148-5.1477-14.734 2.1732-11.831 8.704 1.104 2.4857 3.013 4.3257 4.392 6.6707 0.553 0.94 0.863 1.959 1.582 2.838 0.689 0.842 1.546 1.891 1.546 2.937 0 0.884-0.264 2.03 0.361 2.811 0.864 1.08 0.557 0.525 1.835 0.525 0.879 0 2.175-0.699 2.883-1.266 0.506-0.405 0.778 0.766 0.778-0.361 0-0.968-0.312-0.163 0.325-0.163" stroke="#00ADB5" stroke-linecap="round" stroke-linejoin="round"/>
<path d="m294.29 116.16c1.74-0.519 6.556-1.677 5.441-0.244-1.345 1.729-1.92 0.862-3.57 1.229-0.844 0.188-1.667 2.792-0.732 2.847 1.335 0.079 2.22-1.717 3.579-1.717 1.237 0 1.149 1.628 0.407 2.205-0.98 0.762-2.107-0.057-2.766 1.13-1.042 1.876 1.804 1.571 2.612 1.13 0.814-0.444 1.588-1.137 2.188-1.537" stroke="#00ADB5" stroke-linecap="round" stroke-linejoin="round"/>
<path d="m298.36 112.54c-0.022 0.142-0.045 1.098-0.427 1.098-0.206 0-0.301-0.125-0.488-0.02-0.221 0.123-0.429 0.411-0.64 0.58-0.186 0.149-0.739 0.131-0.845 0.317-0.173 0.303-0.526 0.469-0.854 0.506-0.426 0.047-0.584 0.261-1.037 0.16-0.139-0.03-0.153-0.119-0.283-0.119-0.2 0-0.287 0.096-0.438-0.073-0.168-0.186-0.441-0.273-0.522-0.556-0.11-0.384-0.512-0.586 0.083-0.347" stroke="#00ADB5" stroke-linecap="round" stroke-linejoin="round"/>
<path d="m290.51 96.434c0.727 0.0039 1.329 0.0508 1.577 0.8225 0.169 0.525 0.172 1.041 0.172 1.5862 0 0.5301-0.326 0.9563-0.326 1.4549 0 0.66 0.528 0.552 0.974 0.753 0.422 0.19 0.727 0.348 0.956 0.773 0.226 0.42 0.055 1.233 0.025 1.69-0.026 0.393-0.213 1.229 0.059 1.561 0.147 0.181 0.955 0.46 0.427 0.063" stroke="#00ADB5" stroke-linecap="round" stroke-linejoin="round"/>
<path d="m284.36 103.8c-0.583 0.387-1.177 0.712-1.828 0.956-0.273 0.102-0.633 0.285-0.572-0.142" stroke="#00ADB5" stroke-linecap="round" stroke-linejoin="round"/>
<path d="m282.25 98.183c-1.033 0.2486-2.058 0.5288-3.082 0.8044-0.17 0.0459 0.221-0.3846 0.235-0.3977" stroke="#00ADB5" stroke-linecap="round" stroke-linejoin="round"/>
<path d="m281.96 92.855c-1.069-0.1555-2.135-0.3483-3.199-0.5378-0.49-0.0872-0.698-0.023-0.421-0.4384" stroke="#00ADB5" stroke-linecap="round" stroke-linejoin="round"/>
<path d="m287.74 87.202c-0.845-0.1485-1.578-0.2915-2.341-0.6733-0.358-0.1788-0.702-0.3936-1.076-0.5378-0.444-0.1715-0.453-0.1193 0.041-0.4158" stroke="#00ADB5" stroke-linecap="round" stroke-linejoin="round"/>
<path d="m295.1 83.541c0.123 0.8633 0.083 1.3803-0.267 2.1625-0.188 0.4217-0.347 0.9546-0.44 1.41-0.032 0.1568-0.05 0.2461-0.156 0.3638-0.04 0.0441 0.106-0.4798 0.131-0.5604" stroke="#00ADB5" stroke-linecap="round" stroke-linejoin="round"/>
<path d="m301.33 86.998c-0.27 0.8989-0.655 1.7613-0.886 2.6618-0.117 0.4556-0.044 0.4833 0.154 0.0226" stroke="#00ADB5" stroke-linecap="round" stroke-linejoin="round"/>
<path d="m303.93 93.465c-0.924 0.7998-1.682 1.7926-2.4 2.7748-0.09 0.1231-0.194 0.1668-0.294 0.2666-0.226 0.2268 0.165-0.2854 0.213-0.357" stroke="#00ADB5" stroke-linecap="round" stroke-linejoin="round"/>
<path d="m96.831 175.05c1.3522 6.092 2.875 12.197 3.7699 18.381 0.499 3.454-0.598-1.53-0.7343-2.235-0.2952-1.526-0.6338-2.877-0.6338-4.437 0-3.139-0.0841-6.314-0.3169-9.457-0.163-2.2-2.8656-8.752 0.5504-3.286 3.4836 5.573 5.9426 11.734 8.3066 17.814 0.326 0.837 0.777 1.631 1.134 2.435 0.195 0.439-3.461-3.134-4.87-3.903" stroke="#00ADB5" stroke-linecap="round" stroke-linejoin="round" stroke-width="2"/>
<path d="m94.729 188.56c3.9032-1.557 12.51-4.495 15.012-8.873 1.048-1.834 0.844-0.986-2.102-0.434" stroke="#00ADB5" stroke-linecap="round" stroke-linejoin="round" stroke-width="2"/>
<path d="m106.44 168.15c3.013 5.963 5.194 12.312 6.022 18.931 0.076 0.613 0.219 1.287 0.65 1.718 0.08 0.08-1.445-2.774-1.868-3.536" stroke="#00ADB5" stroke-linecap="round" stroke-linejoin="round" stroke-width="2"/>
<path d="m106.44 167.85c2.336 1.399 10.915 6.566 5.321 9.857-0.491 0.289-1.066 0.556-1.418 1.018-0.743 0.978-0.833 1.265-0.3-0.067" stroke="#00ADB5" stroke-linecap="round" stroke-linejoin="round" stroke-width="2"/>
<path d="m114.24 164.84c0.995 6.741 2.702 14.148 2.702 21.016 0 1.517-0.253-1.292-0.6-2.101" stroke="#00ADB5" stroke-linecap="round" stroke-linejoin="round" stroke-width="2"/>
<path d="m121.15 176.85c1.648 4.914 2.496 7.809-2.335 9.241-1.651 0.489 0.343-1.909 0.767-2.202 1.445-1 2.884-4.221 1.267-5.838-0.643-0.643-2.182 0.17-2.635-0.6-0.667-1.135 0.828-3.282 1.735-3.836 2.606-1.593 2.278 0.652 1.201-0.067" stroke="#00ADB5" stroke-linecap="round" stroke-linejoin="round" stroke-width="2"/>
<path d="m211.34 85.678c0.995 5.2364 5.093 20.527 2.709 15.759-0.257-0.513-0.471-0.949-0.493-1.5318-0.079-2.1562-0.24-4.4104-0.985-6.457-0.622-1.7118-0.492-3.4863-0.492-5.3078 0-0.3649-0.62-3.236-0.561-3.2558 0.627-0.2089 3.213 2.9331 3.68 3.4747 2.364 2.7393 4.754 5.8872 6.443 9.0972 0.87 1.6521 1.132 2.2439-0.944 2.5034" stroke="#00ADB5" stroke-linecap="round" stroke-linejoin="round" stroke-width="2"/>
<path d="m211.09 96.266c2.311-1.1723 4.512-2.1093 6.895-2.9548" stroke="#00ADB5" stroke-linecap="round" stroke-linejoin="round" stroke-width="2"/>
<path d="m217.74 85.924c2.366 3.5442 4.619 7.3157 7.373 10.588 0.393 0.4667 1.218 1.3145 1.218 0.2189 0-1.4952-0.828-3.0403-1.204-4.4597-0.601-2.2704-1.16-4.5512-1.669-6.8399-0.491-2.2094-0.145-1.3845 0.684 0.2736 1.374 2.7476 2.82 5.2503 4.733 7.6881 1.289 1.6423 1.423 0.7277 1.423-0.7114 0-2.6142-1.276-4.7639-2.216-7.1135-1.004-2.51-0.937-5.9363-2.08-8.2217-0.444-0.8887-0.506 1.9279-0.629 2.9139" stroke="#00ADB5" stroke-linecap="round" stroke-linejoin="round" stroke-width="2"/>
<path d="m231.04 77.06c0.063 0.2892 0.98 7.4581 2.6 6.6484 0.709-0.3548 0.883-1.4404 1.614-1.8058 1.184-0.5919 2.463 0.4564 2.927 1.4775 1.228 2.6997-0.185 5.8266-2.407 7.4692-3.079 2.2754-2.025-1.8209-2.025-2.9549" stroke="#00ADB5" stroke-linecap="round" stroke-linejoin="round" stroke-width="2"/>
<path d="m232.51 76.567c-0.443 1.2109-1.249 6.833-1.491 4.6512-0.15-1.3468 0.116-2.3709 0.26-3.6663 0.341-3.0727 2.692-0.6009 1.723-2.2161" stroke="#00ADB5" stroke-linecap="round" stroke-linejoin="round" stroke-width="2"/>
<path d="m216.09 238.3c-0.082-0.15-3.634-6.268-3.327-6.444 0.427-0.243 1.222-7e-3 1.724-0.195 1.482-0.556 2.676-1.703 3.896-2.652 1.283-0.998 3.041 6.833 3.432 8.482 0.473 1.995 1.703 4.648-0.599 5.8-2.076 1.038-4.807 0.724-7.074 0.674-3.697-0.082-6.252-6.151-6.684-9.172-0.314-2.199-3.359-9.258-0.09-10.67 0.876-0.378 2.363-0.12 3.312-0.12 1.359 0 2.545-0.809 3.927-0.809 2.198 0 2.863 2.746 0.944-0.27" stroke="#00ADB5" stroke-linecap="round" stroke-linejoin="round" stroke-width="2"/>
<path d="m222.3 225.09c0.383 1.397 1.616 9.149 4.855 7.164 0.616-0.378 1.065-1.294 1.289-1.948 0.596-1.746 0.722-3.204-0.615-4.541-1.001-1.002-2.935-3.046-4.391-3.102-3.608-0.139-0.425 3.903-0.869 3.237" stroke="#00ADB5" stroke-linecap="round" stroke-linejoin="round" stroke-width="2"/>
<path d="m222.84 212.68c2.665 4.212 6.685 8.845 8.302 13.697 0.207 0.619 0.214 1.04 0.6 1.619 0.582 0.873 0.857 2.141 1.409 0.809 0.798-1.929 2.616-3.641 4.046-5.125 1.764-1.832 2.005-1.289-1.139-1.289" stroke="#00ADB5" stroke-linecap="round" stroke-linejoin="round" stroke-width="2"/>
<path d="m241.45 211.33c-0.335 0.756-5.417 10.813-0.51 8.527 0.977-0.454 1.973-1.162 1.844-2.323-0.125-1.119-1.059-1.998-1.544-2.967-0.274-0.547-1.368-3.186-0.989-2.428 1.127 2.254 2.64 6.267 4.316 7.943 1.953 1.953 3.123-0.1 1.199-1.199" stroke="#00ADB5" stroke-linecap="round" stroke-linejoin="round" stroke-width="2"/>
<path d="m244.42 212.41c7.509 11.91-1.992-1.453 0.195-3.791 2.117-2.263 4.618 2.082 5.41 3.461 1.38 2.403 2.739 8.637 0.599 2.218" stroke="#00ADB5" stroke-linecap="round" stroke-linejoin="round" stroke-width="2"/>
<path d="m253.86 202.16c-0.127 0.45-4.154 11.783-1.139 10.73 1.282-0.448 2.569-1.461 3.252-2.623 0.789-1.341 1.157-3.181 0.585-4.661-0.39-1.009-0.812-2.087-1.349-3.027-1.276-2.234 2.164 4.67 3.192 7.029 1.506 3.454 5.133 15.562-3.417 13.158-3.729-1.049-0.217-6.849-0.584-6.849" stroke="#00ADB5" stroke-linecap="round" stroke-linejoin="round" stroke-width="2"/>
<path d="m147.69 146.42c1.341-0.368 2.484-0.74 3.426-1.8 0.372-0.418 0.422-0.952 0.612-1.458 0.247-0.659-0.06-1.5-0.27-2.132-0.169-0.505 0.751-0.788 1.08-0.809 0.565-0.037 0.996 0.323 1.539 0.354 0.652 0.039 1.348 0.248 1.8 0.757 0.307 0.345 0.718 0.426 1.057 0.726 0.322 0.284 0.577 0.78 0.81 1.144 0.674 1.053 0.864 2.281 1.06 3.486 0.094 0.577 0.151 1.206 0.054 1.79-0.116 0.696 7e-3 1.366-0.268 2.034-0.19 0.461-0.494 1.072-0.927 1.344-0.444 0.28-0.856 0.381-0.97 0.961-0.237 1.211 0.371 2.397 0.137 3.619-0.207 1.086-1.642 1.252-2.529 1.426-0.612 0.12-1.725 0.307-2.315-0.014-1.099-0.597-1.895-1.344-2.71-2.295-0.722-0.842-0.995-2.074-1.09-3.151-0.098-1.1-0.099-2.294-0.074-3.406 0.016-0.738 0.231-1.479 0.301-2.215 0.057-0.602 0.248-0.65-0.06 0.121" stroke="#00ADB5" stroke-linecap="round" stroke-linejoin="round"/>
<path d="m155.46 140.94c0.453-1.168 0.951-2.335 1.298-3.539 0.156-0.542 0.193-1.115 0.388-1.643 0.226-0.614 0.338-1.308 0.435-1.95 0.069-0.461 0.103-1.276 0.525-1.566 0.308-0.212 0.483-0.696 0.813-0.95 0.424-0.327 1.025-0.631 1.325-1.068 0.295-0.428 0.609-1.314 0.361-1.809-0.137-0.276-0.119-0.573-0.254-0.843-0.176-0.353-0.335-0.639-0.468-1.021-0.117-0.334-0.484-1-0.057-1.238 1.045-0.58 1.117 0.334 1.442 1.168 0.167 0.431 0.192 0.957 0.348 1.405 0.106 0.307 0.294 0.085 0.438 0.261 0.217 0.265 0.227 0.597 0.391 0.883 0.245 0.429-0.043 1.3-0.167 1.72-0.231 0.777-0.468 1.481-0.81 2.228-0.88 1.923-2.315 3.542-3.298 5.406-0.375 0.71-0.674 1.424-0.857 2.208-0.104 0.446-0.408 0.871-0.408 1.342 0 0.43-0.106 0.65 0.12-0.03" stroke="#00ADB5" stroke-linecap="round" stroke-linejoin="round"/>
<path d="m160.15 126.43c-0.767 0.118-1.603 0.163-2.288 0.506-0.095 0.047 0.052-0.076 0.12-0.084 0.918-0.108 1.921-0.927 2.757-1.325 0.621-0.296 1.472-0.963 2.181-0.963 0.205 0-0.682 0.571-0.783 0.662" stroke="#00ADB5" stroke-linecap="round" stroke-linejoin="round"/>
<path d="m159.37 127.76c0.853-0.496 2.34-1.034 2.964-1.867 0.061-0.081 0.106-0.19 0.194-0.24 0.31-0.178-0.238 0.02-0.328 0.06" stroke="#00ADB5" stroke-linecap="round" stroke-linejoin="round"/>
<path d="m159.97 128.54c1.024-0.392 2.896-0.74 3.459-1.867 0.082-0.162-0.099-0.12-0.207-0.12" stroke="#00ADB5" stroke-linecap="round" stroke-linejoin="round"/>
<path d="m161.06 128.42c-0.065 1.38-0.051 2.785-0.84 3.967-0.384 0.577-0.651 0.961-0.786 1.636-0.144 0.722-0.302 1.325-0.632 1.984-0.325 0.651-0.707 1.182-1.027 1.807-0.166 0.323-0.575 0.635-0.495 1.023 0.04 0.197-0.057 0.373-0.121 0.556-0.188 0.543-0.54 1.023-0.87 1.492-0.223 0.319-0.221 0.891 0.074 0.301" stroke="#00ADB5" stroke-linecap="round" stroke-linejoin="round"/>
<path d="m156.18 139.56c0.544 0.118 1.37 0.482 1.927 0.482 0.011 0-0.473-0.584-0.542-0.663" stroke="#00ADB5" stroke-linecap="round" stroke-linejoin="round"/>
<path d="m156.54 137.09c0.768 0.328 1.538 0.653 2.301 0.994 0.179 0.079 0.169 0.091 0.107 0.03-0.132-0.132-0.244-0.276-0.361-0.422" stroke="#00ADB5" stroke-linecap="round" stroke-linejoin="round"/>
<path d="m157.26 135.46c0.926 0.288 1.85 0.598 2.787 0.85 0.105 0.028 0.252 0.085 0.151-0.02-0.202-0.209-0.434-0.394-0.649-0.589" stroke="#00ADB5" stroke-linecap="round" stroke-linejoin="round"/>
<path d="m157.74 133.42c1.054 0.515 2.104 1.07 3.185 1.529 0.178 0.075 0.237 0.131 0.201-0.01-0.05-0.191-0.123-0.372-0.194-0.556" stroke="#00ADB5" stroke-linecap="round" stroke-linejoin="round"/>
<path d="m159.07 131.97c0.096 0.046 3.011 1.627 2.77 1.023" stroke="#00ADB5" stroke-linecap="round" stroke-linejoin="round"/>
<path d="m159.67 131.01c0.88 0.207 1.769 0.395 2.65 0.542" stroke="#00ADB5" stroke-linecap="round" stroke-linejoin="round"/>
<path d="m160.64 130.05c0.401 0.019 0.803 0.039 1.204 0.06" stroke="#00ADB5" stroke-linecap="round" stroke-linejoin="round"/>
<path d="m152.69 148.11c-0.419 0.166-2.996 0.807-3.011 1.519-6e-3 0.278 0 0.557 0.033 0.833 0.104 0.858 0.701 1.307 1.432 1.716 0.93 0.521 1.931 0.537 2.944 0.241 0.963-0.281 1.59-1.347 1.204-2.261-0.079-0.19 0.197-0.229 0.017-0.449-0.175-0.214-0.29-0.089-0.572-0.033" stroke="#00ADB5" stroke-linecap="round" stroke-linejoin="round"/>
<path d="m151.42 150.34c0.479-1.212 1.077-2.423 1.355-3.703 0.073-0.335 0.163-0.617 0.345-0.92 0.384-0.64 0.722-1.323 0.95-2.034 0.216-0.675 0.23-1.341 0.515-2.001 0.102-0.235 0.709-0.941 0.448-0.615" stroke="#00ADB5" stroke-linecap="round" stroke-linejoin="round"/>
<path d="m156.18 141.67c-0.223 1.395-0.559 2.73-0.796 4.108-0.131 0.764-0.348 1.403-0.348 2.208 0 0.576 0.206 1.056 0.074 1.633-0.152 0.664-0.289 0.337-0.556-0.121" stroke="#00ADB5" stroke-linecap="round" stroke-linejoin="round"/>
<path d="m155.58 141.67c-0.419 0.871-1.325 2.302-1.325 3.402 0 0.625 0.041 1.289-3e-3 1.924-0.052 0.754-0.641 1.733-0.994 2.382-0.117 0.215-0.269 0.382-0.341 0.615-0.09 0.292-0.026 0.31-0.227-0.013" stroke="#00ADB5" stroke-linecap="round" stroke-linejoin="round"/>
<path d="m151.24 149.08c1.026 0.733 2.836 2.23 4.095 0.936 0.197-0.201 0.48-0.632 0.589-0.889 0.149-0.352-0.333-0.054-0.649 0.013" stroke="#00ADB5" stroke-linecap="round" stroke-linejoin="round"/>
<path d="m152.45 147.99c0.585-0.019 1.767 0.139 2.335-0.154 0.019-0.01-0.044 7e-3 -0.06 0.02-0.056 0.045-0.173-0.028-0.228-0.047" stroke="#00ADB5" stroke-linecap="round" stroke-linejoin="round"/>
<path d="m153.11 145.76c0.429 0.113 1.983 0.775 2.048 0.06" stroke="#00ADB5" stroke-linecap="round" stroke-linejoin="round"/>
<path d="m153.83 143.96c0.532 0.348 2.691 1.956 2.348 0.241" stroke="#00ADB5" stroke-linecap="round" stroke-linejoin="round"/>
<path d="m154.43 143.11c0.542 0.141 1.084 0.281 1.626 0.422" stroke="#00ADB5" stroke-linecap="round" stroke-linejoin="round"/>
<path d="m157.08 143.11c0.67 0.631 2.008 2.1 2.047 3.205 0.032 0.901 0 1.772 0 2.683 0 0.663 0.127 1.37 0.06 2.001-0.087 0.827-1.357 0.838-1.054 1.81 0.102 0.324 0.014 0.516 0.298 0.749 0.246 0.201 0.424 0.434 0.515 0.753 0.213 0.744-0.211 1.415-0.722 1.927-0.321 0.32-0.736 0.964-1.114 1.174-0.187 0.104-0.569 0.03-0.783 0.03-0.199 0-0.6 0.129-0.78 0.211-0.264 0.12-0.601-0.092-0.936 0.03" stroke="#00ADB5" stroke-linecap="round" stroke-linejoin="round"/>
<path d="m147.69 146.61c0.243 0.806 0.424 1.477 0.83 2.168 0.167 0.283 0.144 0.541 0.07 0.873-0.085 0.385-0.367 1.29-0.147 1.686 0.338 0.609 0.331 1.253 0.331 1.927 0 0.649 1.016 0.932 1.349 1.265 0.494 0.494 0.28 1.126 1.094 1.341 0.178 0.047 0.456 0.05 0.595 0.164 0.106 0.086 0.229 0.303 0.368 0.328 0.287 0.052 0.671-5e-3 0.93 0.11 0.217 0.096 0.375 0.235 0.572 0.345 0.218 0.121 0.516-0.015 0.753 0.104 0.81 0.404 0.448 0.019-0.12-0.435" stroke="#00ADB5" stroke-linecap="round" stroke-linejoin="round"/>
<path d="m87.761 116.36c-1.6092 2.058-8.5184 10.298-2.6314 12.162 1.8271 0.579 4.2051-0.752 6.1744-0.559 2.7844 0.271 4.3498 2.638 5.0349 5.097 0.7888 2.83-3.5636 7.864-1.4711 9.385 3.5836 2.607 8.7451-1.801 11.706 1.699 1.679 1.984-0.086 4.866 0.954 0.187" stroke="#00ADB5" stroke-linecap="round" stroke-linejoin="round"/>
<path d="m168.57 84.287c1.551 2.0549 5.242 6.6842 6.63 9.3237 1.182 2.2468-0.307 2.1567-1.575 1.2639-1.515-1.0675-1.302-3.338-0.87-4.9105 1.46-5.3087 10.909-10.189 11.976-2.0305 0.375 2.8658-2.187 7.6846-5.677 6.5474-4.608-1.5014-4.314-8.5334-0.829-11.147 3.565-2.6735 9.407 0.3985 9.407 4.7655 0 4.8482-5.763 6.3493-7.998 2.0719-2.031-3.8876 1.568-7.9543 5.429-8.5364 1.419-0.2141 5.087 1.426 2.527 2.2791" stroke="#00ADB5" stroke-linecap="round" stroke-linejoin="round"/>
<path d="m246.52 121.21c-2.415 2.4-10.047 7.995-3.626 10.173 3.737 1.268 7.196-0.81 9.511-3.646 2.554-3.13 2.988-8.079-1.078-10.111-3.161-1.581-5.886-4.121-8.536-0.145" stroke="#00ADB5" stroke-linecap="round" stroke-linejoin="round"/>
<path d="m328.94 154.03c-4.612 2.747-11.614 6.065-4.476 8.66 1.098 0.399 1.812 0.14 2.777-0.538 3.568-2.508 3.778-3.512 3.563-7.376-0.142-2.559-3.883-1.975-5.594-1.119-2.522 1.261-4.282 3.785-5.304 6.34-1.375 3.437 5.733 3.227 6.713-0.912 0.615-2.594-2.353-6.28-4.392-3.108-2.702 4.203 1.421 7.962 4.019 3.564 2.489-4.212-3.326-5.949-4.89-1.036-2.055 6.46 10.163-0.554 5.719-2.776-2.649-1.325-7.122 7.086-2.238 4.993 5.931-2.542-0.704-6.288-0.704-0.352 0 4.817 7.967-2.174 2.776-4.061-1.187-0.432-2.358 3.36-1.512 4.206 1.47 1.47 4.026-2.338 3.895-3.709-0.561-5.886-6.322 9.078 0.539 2.217 1.567-1.567 1.503-4.4-1.098-2.735-1.535 0.982-2.507 5.152 0.393 4.185 2.785-0.928 2.785-6.086-0.207-4.889-1.826 0.73-2.487 3.315-4.455 2.921" stroke="#00ADB5" stroke-linecap="round" stroke-linejoin="round"/>
<path d="m288.66 192.44c-0.77 0.849-13.059 16.012-6.879 8.287 1.413-1.766 2.712-3.504 4.641-4.744 1.19-0.765 2.335-1.237 3.357-2.259 1.116-1.116-0.467-1.043-0.725 1.285-0.226 2.027-0.053 10.877-0.394 10.857-2.304-0.136-3.814-2.403-5.947-3.15-1.142-0.399-4.529 0.176-3.584-0.58 2.31-1.848 9.385-7.147 7.293-5.055-1.585 1.584-4.841 7.54-3.729 5.594 0.79-1.384 2.929-5.892 2.61-5.138-0.655 1.553-1.796 4.213-1.699 5.925 0.093 1.626 3.322-2.374 3.523-2.776 1.496-2.993-1.6 3.738-0.498 2.134 0.993-1.444 4.351-5.116 1.948-1.512-0.526 0.788 2.489-2.851 1.948-2.072-0.157 0.225-1.524 2.518-0.725 1.719 2.859-2.859-1.354 0.114-1.886-0.683" stroke="#00ADB5" stroke-linecap="round" stroke-linejoin="round"/>
<path d="m263.68 254.35c1.306-1.859 8.766-10.061 2.632-10.421-1.037-0.061-3.175-0.398-4.041 0.31-2.058 1.685-1.166 6.228 1.616 6.734 3.69 0.671 7.148-4.374 3.15-6.319-4.177-2.032-14.036 6.129-9.78 9.489 8.38 6.616 15.958-12.609 5.118-9.841-9.832 2.51-1.17 12.637 3.294 6.112 4.781-6.987-9.959-7.047-7.355 0.766 1.284 3.854 5.5 1.994 6.257-1.118 1.11-4.563-3.428-2.679-3.501 0.476-0.079 3.382 5.131-2.737 2.009-2.466-2.256 0.197-2.478 3.295-4.247 3.295" stroke="#00ADB5" stroke-linecap="round" stroke-linejoin="round"/>
<path d="m115.24 219.3c0.753 3.417 2.238 13.755 2.238 10.256 0-2.415-1.846-4.67-2.217-7.086-0.13-0.844 0.138-3.341-0.581-3.916-0.491-0.393 4.153 3.222 5.387 3.916 2.253 1.267 3.867 3.633 5.823 1.119 0.939-1.207 3.701-1.374 4.081-1.678 2.762-2.21 2.509-5.506 3.15-8.392 0.228-1.028-0.352 3.514-0.352 4.849 0 1.708 0.308 3.969 0.766 5.573 0.651 2.278 0.39-4.15-0.228-5.387-1.004-2.008-0.911-3.791-0.911-5.967 0-0.859 6.234 9.911 5.138 10.733-0.458 0.343-6.563-1.341-8.412-0.746-1.593 0.512-3.048 1.109-4.558 1.865-0.413 0.206-1.095 0.958-0.829 0.745 0.947-0.757 3.844-2.828 2.693-2.444-1.58 0.526-3.132 2.055-4.558 2.9-2.688 1.593-3.558 1.371-4.683 4.103-0.162 0.393 1.845 0.343 2.238 0.456 2.823 0.806 4.596-1.392 7.086-2.404 3.214-1.305 6.909-3.986 10.36-4.392 2.605-0.307-1.356-1.22-1.492-1.492" stroke="#00ADB5" stroke-linecap="round" stroke-linejoin="round"/>
<path d="m257.71 75.709c7.029-2.2532 18.413-4.8445 24.698-9.9868 1.14-0.9331 2.906-1.8276 2.507-3.626-1.502-6.7559-4.768-8.3404-11.21-7.6247-3.572 0.3969-7.001 3.6924-10.318 5.0348-3.414 1.382-6.83 3.1977-9.945 5.1799-3.153 2.0061-1.326 2.9998-1.326 6.4645 0 1.9051 1.138 4.5583 3.17 4.5583 0.926 0 3.581-0.746 0.953-0.746-2.063 0-5.264 0.3126-7.107-0.663-1.407-0.745 1.371-2.2118 2.031-2.2998 2.357-0.3143-2.702 1.9915-3.212 2.1548-1.05 0.3359 3.788-3.3302 1.098-2.4656-2.915 0.9371 1.412-1.576 2.321-2.0305 1.026-0.5131 0.131 0.2992 0.373-0.1244 0.387-0.6776 2.628-3.1674 0.601-1.1395-0.679 0.6789 1.532-1.1579 2.279-1.7612 1.406-1.1362-0.378 0.5877-0.725 0.8702-1.6 1.3021-1.975 0.2515-3.274 0.8288-0.543 0.2413-1.865 1.0418-1.865 0.1036 0-1.6187 5.712-2.356 6.755-2.4035 6.388-0.2903 10.858-3.1083 16.741-4.579 2.831-0.7077 5.925-1.727 8.578-2.9836 1.967-0.9319 5.909-3.8497 7.998-3.2529 0.82 0.2345-11.844 7.6032-8.205 5.2006 3.009-1.9875 6.461-3.3832 1.947 0.3522-3.616 2.9925 2.746-0.4931 3.253-0.2901 0.912 0.3648-5.615 4.093-0.642 1.8026 1.902-0.8759 3.481-0.9192 3.481-2.9836 0-2.8022 0.767-6.1236-2.797-4.8276-4.113 1.4954-7.413 4.6917-11.665 5.9465-2.932 0.8649-5.787 1.9572-8.661 2.9836-3.335 1.1909-9.37 2.5225-11.748 5.4285-1.267 1.5487-3.524 7.5841 1.14 4.9727 4.278-2.3958 4.958-7.2427 7.251-11.064 1.139-1.8982-1.984 4.0091-2.445 6.1744-0.529 2.4903 1.815 5.3562 4.497 4.8898 2.941-0.5116 6.036-4.574 7.086-7.0447 5.047-11.875-4.108-0.3574-1.513 2.2377 2.754 2.7541 6.951-4.5416 7.501-6.3401 0.662-2.1671 1.051-4.8383 1.844-6.8996 1.028-2.6735-5.537 0.3375-6.154 0.6423-3.414 1.6876-5.799 3.9388-8.122 6.9203-0.841 1.0792-4.216 6.159-1.906 7.314 3.096 1.5479 6.896-3.2633 6.982-5.76 0.292-8.4577-6.672-4.1231-10.878-0.8081-2.598 2.0484-0.341 6.1425 0.125 5.6771" stroke="#00ADB5" stroke-linecap="round" stroke-linejoin="round"/>
<path d="m163.35 277.85c-0.162 0.13-6.299 5.423-6.299 3.916 0-0.882 0.679-1.826 1.284-2.403 1.197-1.14 5.926-2.017 4.787 0.767-0.764 1.867-3.886 4.618-4.766 1.098-0.365-1.463 2.144-4.396 3.668-3.15 1.68 1.375-1.932 3.126-3.067 2.507-2.027-1.105 0.407-5.041 2.362-4.226 2.044 0.851-0.767 3.18-1.699 3.646-2.178 1.089-1.873-0.671-2.984-1.782" stroke="#00ADB5" stroke-linecap="round" stroke-linejoin="round"/>
<path d="m62.283 277.48c2.1498 3.543 6.2444 7.219 2.0719 10.443-1.0762 0.832-7.4249 4.157-7.0446 0.29 0.4631-4.708 7.4804-4.813 7.9148-9.034 0.4297-4.173-9.5381-2.601-11.81-5.428-1.4233-1.771-2.5711-5.696-2.2377-7.956 0.1299-0.881 2.3618-2.589 2.1341-0.995-0.4168 2.918-9.8249 10.392-4.2475 12.846 3.7394 1.646 4.7042-2.52 7.459-3.522 5.6746-2.064-2.8178 13.241-2.8178 9.324" stroke="#00ADB5" stroke-linecap="round" stroke-linejoin="round"/>
<path d="m245.03 325.96c-1.728 4.087-5.222 16.683-5.222 12.245 0-0.691 0.134-1.238 0.373-1.885 1.123-3.039 2.423-5.866 4.31-8.537 1.03-1.457 2.257-5.725 3.729-2.486 0.687 1.511 2.653 5.719 1.824 7.376-1.04 2.08-4.269 3.274-6.423 3.357-0.561 0.021-6.444 0.794-4.538-0.953 2.241-2.054 4.408-8.301 7.791-8.723 0.522-0.066 1.613 0.284 2.072 0.538 0.808 0.449-0.177 1.26-0.56 1.886-0.459 0.75-4.095 5.822-4.102 5.594-0.103-3.398 3.383-8.333 5.263-10.898 0.673-0.92-2.912 5.324-3.73 6.733-0.633 1.091 0.193 3.408-2.652 2.839" stroke="#00ADB5" stroke-linecap="round" stroke-linejoin="round"/>
<path d="m129.41 26.107c-1.664 6.5096-3.147 12.712-3.75 19.352-0.061 0.6642-0.48 1.0936-0.062 1.6161 0.622 0.7776 2.267-4.1668 2.9-5.4907 2.007-4.1961 4.269-5.8521 4.269-11.002v-2.1963c0 2.3974 0.454 4.7669 0.29 7.169-0.125 1.8155-1.867 6.7153-0.581 5.4285 1.987-1.9862 0.395-11.945-2.714-12.204-4.244-0.3537-6.29 8.8451-6.775 11.706-0.564 3.3292 1.783 4.723 4.372 2.1341 3.533-3.5337 4.3-10.798 1.264-14.939-4.172-5.688-6.909 4.5751-7.252 7.086-0.777 5.68 2.395 7.5001 6.153 3.4602 1.383-1.4859 4.17-4.0552 3.585-6.3609-0.778-3.067-5.311-0.0888-6.216 1.2432-1.283 1.8887-1.267 6.5931 0.808 7.9355 1.937 1.2534 3.822-3.9402 3.605-5.242-0.92-5.5211-11.327 3.2434-6.153 6.3816 4.503 2.7313 7.488-9.488 1.947-7.977-1.543 0.4208-5.207 4.579-2.03 4.579" stroke="#00ADB5" stroke-linecap="round" stroke-linejoin="round"/>
<path d="m30.582 132.4c-1.6759 4.748-2.8825 7.779-7.1275 10.442-1.0659 0.669-2.4745 1.852-2.6936 3.191-0.4681 2.861 4.0447 6.014 6.6095 5.159 5.4042-1.801-2.7735-7.15-3.6466-8.702-1.5201-2.703 3.9741-7.557 6.5059-6.133 1.9708 1.108 2.8444 4.972 1.6783 6.858-1.6988 2.748-5.3501 2.857-8.2049 2.424-2.2736-0.344-6.8277 0.124-5.4907 3.502 1.673 4.226 9.5691 2.011 10.753-1.575 1.1531-3.491-5.0894-4.807-3.7502-8.08 0.9199-2.249 3.8246-5.056 6.4023-5.056 3.0877 0 0.0042 5.768-0.4558 6.672-2.0312 3.992-5.1391 4.39-9.0751 5.47-7.4079 2.031 0.5725 2.317 1.0359 0" stroke="#00ADB5" stroke-linecap="round" stroke-linejoin="round"/>
<path d="m21.631 183.49c-0.7917 2.981-3.1324 8.069-2.9007 11.313 0.1085 1.52 0.5238-3.004 0.7044-4.517 0.3443-2.883 0.738-6.139 2.2792-8.661 0.2735-0.448 6.5989 7.448 7.1689 8.744 1.5256 3.467-0.3844 2.807-2.7764 3.936-1.3294 0.628-10.401 3.83-10.401 2.984 0-0.887 1.7103-2.689 2.1134-3.439 1.2619-2.348 2.6157-5.296 3.1494-7.915 1.1397-5.596 0.29 5.919 0.29 6.796 0 0.532 0.2069 3.646-1.0359 3.646-1.5554 0 1.0515-2.927 1.5747-4.392 0.5547-1.554 2.763-6.132 2.2169-7.77-0.7734-2.32-1.1603 4.787-1.2431 7.231-0.0562 1.657-0.8579 4.422 0.4351 1.74 0.412-0.854 1.7419-4.358 1.7197-4.102-0.1875 2.156-1.0567 4.379-1.0567 6.547 0 2.22 1.1706-4.924 3.1908-5.843 0.5023-0.228-0.2072 3.984-0.2072 4.6 0 1.123 1.0774-4.313 1.0774-3.191 0 0.313-0.447 2.204-0.7873 1.617-1.3948-2.41-2.4441-3.898-5.3042-4.766-1.3026-0.395-5.443-0.124-4.0817-0.124 0.8947 0 2.2999-3.114 3.2944-2.3 1.3193 1.079-0.4914 4.525-0.9117 5.698-0.6882 1.92-1.1191-0.78 0.5801-0.58 1.7706 0.208-0.0358 6.746 0.9531 5.262 0.459-0.688 1.8493-4.085 1.8026-3.688-0.9027 7.674-0.7149-2.098 0.7667 0.125" stroke="#00ADB5" stroke-linecap="round" stroke-linejoin="round"/>
<path d="m206.24 82.049c4.745-0.2344 9.327 1.5199 8.578-4.1025-0.372-2.786-1.933-7.3405-1.119-10.07 0.864-2.8975 6.169-9.4318 1.637-11.479-3.801-1.7164-8.768 3.1373-9.469 6.423-0.292 1.3666-0.229 5.6357 2.03 5.6357 1.708 0 2.799-1.6767 4.289-0.1865 1.949 1.9482 2.296 3.7253 0.912 6.1744-3.323 5.8788-16.468-0.6875-9.386-7.7698 0.971-0.9707 4.81-5.4228 6.63-4.1439 2.504 1.7595 2.165 6.3403 0.871 8.6193-1.292 2.2727-6.031 4.6523-7.895 1.7405-0.921-1.439-0.48-2.4035 1.057-2.4035" stroke="#00ADB5" stroke-linecap="round" stroke-linejoin="round"/>
<path d="m245.97 116.95c0.438-0.177 14.081-6.912 13.447-3.211-0.341 1.986-0.113 3.838 0.166 5.822 0.106 0.759 1.956 6.672 0.103 6.672-3.452 0-6.821-1.734-10.277-1.078-1.432 0.272-4.286 1.254-4.392-1.036-0.08-1.717-1.507-9.435 1.885-8.681 2.796 0.621 2.917-1.598 0.933 3.336-0.282 0.7-2.134 5.962-1.824 5.718 3.103-2.437 4.804-7.124 7.646-9.966 1.774-1.774-1.268 5.347-1.637 6.237-1.888 4.545 2.938-3.852 3.481-4.683 2.385-3.647 0.574 2.883 0.207 3.958-1.103 3.231 2.288-2.803 3.647-3.606 4.501-2.659 0.248 6.527-0.705 4.621" stroke="#00ADB5" stroke-linecap="round" stroke-linejoin="round"/>
<path d="m209.22 187.22c0.215 5.482 0.119 8.473 4.766 5.014 1.318-0.981 0.758 1.341 0.435 1.907-0.54 0.945-3.706 5.696-0.518 3.874 0.807-0.461 2.984-1.382 2.984 0.394 0 0.28-0.976 3.71-0.021 2.756 1.565-1.566 1.593-7.466 1.678-9.759 0.019-0.501 0.238-1.083-0.207-0.829-2.286 1.306-3.371 8.145-4.558 10.815-1.025 2.305-3.978-0.41-5.677-1.491-3.221-2.05-1.195-0.594-1.119-0.746" stroke="#00ADB5" stroke-linecap="round" stroke-linejoin="round"/>
<path d="m183.49 236.08c-0.014 0.174-0.452 10.88-0.373 5.677 0.024-1.588-0.022-3.177 0-4.765 0.062-4.511 0.867-2.418 2.818-0.56 0.894 0.852 4.176 2.691 3.646 4.413-0.156 0.508-5.425 1.425-6.257 1.741-0.624 0.237-4.31 2.557-4.31 2.445 0-2.772 0.976-5.77 1.306-8.537 0.697-5.857 4.75 9.823 5.014 5.864 0.062-0.932 0.021-6.48 0.021-5.097 0 1.03 0.745 6.523 0.745 2.921v-2.445c0-0.384 0.21 1.456 0.353 1.099 0.516-1.292-0.353-3.89-0.353-0.726 0 3.553-0.995 0.995-3.17 0.995-1.86 0-2.925 6.816-1.968 5.221 0.838-1.397-0.813-7.085-0.083-4.164 0.382 1.529 1.301-0.161 1.865-0.726" stroke="#00ADB5" stroke-linecap="round" stroke-linejoin="round"/>
</svg>
