<?xml version="1.0" encoding="UTF-8"?>
<svg fill="none" viewBox="0 0 79 235" xmlns="http://www.w3.org/2000/svg">
<path d="m75.8 3.1981c-25.616 0.71841-20.895-0.25348-41.62 19.7-4.7333 4.5571-11.89 10.1-13.512 18.196-2.3934 11.948 12.257 48.095 21.849 34.791 6.1989-8.5976 5.0049-23.365-4.425-27.271-15.464-6.405-27.898 12.532-32.706 28.896-5.2928 18.015-0.84777 37.724 11.626 49.753 5.6986 5.495 14.891 3.007 9.8486-8.664-10.371-24.003-22.365 5.115-20.741 21.062 2.925 28.724 27.596 66.458 50.678 60.474 7.2169-1.871 4.858-6.045 1.8294-9.133-3.0731-3.133-10.8-14.575-8.7259-10.23 3.6269 7.595 8.2282 10.651 13.368 15.111 6.6298 5.752-7.5908 18.322-11.71 22.809-2.1626 2.355-5.3049 7.63-5.8898 11.472-1.1551 7.584 7.1832-12.233 8.6754-19.682" stroke="#00ADB5" stroke-linecap="round" stroke-linejoin="round" stroke-opacity=".2" stroke-width="5"/>
</svg>
