<?xml version="1.0" encoding="UTF-8"?>
<svg fill="none" viewBox="0 0 237 321" xmlns="http://www.w3.org/2000/svg">
<rect x="110.66" y="234.54" width="41.408" height="85.466" rx="3.5154" fill="#00ADB5" stroke="#000" stroke-linejoin="round" stroke-width="1.6449"/>
<rect x="2.3348" y="259.21" width="41.408" height="60.786" rx="3.5154" fill="#eee" stroke="#000" stroke-linejoin="round" stroke-width="1.6449"/>
<rect x="194.47" y="139.79" width="41.408" height="180.21" rx="3.5154" fill="#00ADB5" stroke="#000" stroke-linejoin="round" stroke-width="1.6449"/>
<path d="m57.247 117.86h42.574s-6.7851 62.008-16.02 72.174c-9.2346 10.166-57.564 38.047-57.564 38.047l-16.276-9.99 30.342-47.785s-3.3368-18.635 16.944-52.446z" fill="#00ADB5" stroke="#000" stroke-width="1.3989"/>
<path d="m26.925 227.52-16.965-9.428-8.5858 9.244s14.474 8.39 24.572 11.678l-4.2768-5.642 5.2553-5.852z" fill="#eee" stroke="#000" stroke-linejoin="round" stroke-width="1.3989"/>
<path d="m57.429 116.95 46.517-0.062s25.859 22.74 29.117 36.082-0.458 61.762-0.458 61.762l-18.801 8.312-19.409-51.142s-20.293-19.224-36.966-54.952z" fill="#00ADB5"/>
<path d="m57.429 116.95-9e-4 -0.7c-0.2389 0-0.4611 0.123-0.5893 0.324-0.1282 0.202-0.1446 0.455-0.0436 0.671l0.6338-0.295zm46.517-0.062 0.462-0.525-0.199-0.174h-0.264l1e-3 0.699zm28.659 97.844 0.283 0.64 0.383-0.169 0.032-0.417-0.698-0.054zm-18.801 8.312-0.653 0.249 0.261 0.69 0.675-0.299-0.283-0.64zm-19.409-51.142 0.6539-0.248-0.0567-0.15-0.1162-0.11-0.481 0.508zm-36.965-54.253 46.517-0.061-2e-3 -1.399-46.517 0.061 0.0019 1.399zm74.892 96.443-18.8 8.313 0.565 1.279 18.801-8.312-0.566-1.28zm-17.864 8.704-19.409-51.142-1.3078 0.496 19.41 51.143 1.307-0.497zm-20.063-50.894c0.481-0.508 0.4811-0.508 0.4811-0.508h-5e-4c-4e-4 -1e-3 -0.0012-1e-3 -0.0022-2e-3 -0.0022-2e-3 -0.0055-6e-3 -0.0101-0.01-0.0091-9e-3 -0.0231-0.022-0.0419-0.04-0.0375-0.036-0.0941-0.091-0.169-0.164-0.1499-0.147-0.3732-0.368-0.664-0.663-0.5817-0.59-1.4336-1.474-2.509-2.648-2.151-2.347-5.1958-5.851-8.7615-10.47-7.1316-9.239-16.344-22.933-24.655-40.743l-1.2677 0.591c8.3619 17.919 17.632 31.701 24.816 41.006 3.5918 4.653 6.6623 8.188 8.8374 10.561 1.0876 1.187 1.9514 2.084 2.5446 2.685 0.2966 0.301 0.5256 0.528 0.6811 0.68 0.0778 0.076 0.1372 0.134 0.1775 0.173 0.0201 0.019 0.0355 0.034 0.046 0.044 0.0052 5e-3 0.0093 9e-3 0.0121 0.011 0.0014 2e-3 0.0025 3e-3 0.0033 3e-3 4e-4 1e-3 7e-4 1e-3 9e-4 1e-3 3e-4 0 5e-4 1e-3 0.4815-0.507zm9.5512-55.014c-0.462 0.526-0.462 0.526-0.462 0.526h1e-3l3e-3 3e-3c3e-3 3e-3 8e-3 7e-3 0.014 0.012 0.012 0.011 0.03 0.027 0.054 0.049 0.049 0.042 0.121 0.106 0.215 0.191 0.189 0.168 0.467 0.418 0.822 0.74 0.711 0.645 1.73 1.583 2.964 2.749 2.468 2.334 5.791 5.583 9.215 9.246 3.425 3.664 6.94 7.733 9.799 11.708 2.869 3.99 5.031 7.823 5.812 11.024l1.359-0.332c-0.847-3.47-3.14-7.482-6.035-11.509-2.907-4.041-6.467-8.159-9.914-11.847-3.448-3.689-6.793-6.959-9.275-9.306-1.242-1.174-2.268-2.118-2.984-2.768-0.359-0.326-0.64-0.578-0.831-0.749-0.096-0.085-0.169-0.151-0.219-0.195-0.025-0.022-0.044-0.038-0.057-0.05-6e-3 -5e-3 -0.011-9e-3 -0.014-0.012l-4e-3 -4e-3s-1e-3 0-1e-3 -1e-3l-0.462 0.525zm28.437 36.248c0.794 3.251 1.173 8.707 1.283 15.125 0.11 6.398-0.049 13.687-0.309 20.567-0.261 6.879-0.623 13.342-0.92 18.086-0.149 2.372-0.281 4.314-0.376 5.662-0.048 0.674-0.086 1.2-0.112 1.558-0.014 0.178-0.024 0.315-0.031 0.406-3e-3 0.046-6e-3 0.081-7e-3 0.104-1e-3 0.011-2e-3 0.02-2e-3 0.026-1e-3 3e-3 -1e-3 5e-3 -1e-3 6e-3v2e-3s0 1e-3 0.697 0.054c0.698 0.054 0.698 0.053 0.698 0.053v-2e-3 -6e-3c1e-3 -6e-3 1e-3 -0.015 2e-3 -0.027 2e-3 -0.024 5e-3 -0.059 8e-3 -0.105 7e-3 -0.092 0.017-0.229 0.031-0.408 0.026-0.359 0.065-0.886 0.112-1.562 0.096-1.352 0.228-3.297 0.377-5.673 0.298-4.752 0.661-11.227 0.922-18.121 0.261-6.893 0.42-14.21 0.31-20.644-0.11-6.413-0.488-12.013-1.323-15.433l-1.359 0.332z" fill="#000"/>
<path d="m98.228 41.089c1.0581-0.386 2.0659-0.9502 2.9849-1.7335 6.941-5.9131 3.965-14.834-0.236-19.479-4.2-4.6445-29.896-2.7919-17.774 18.724 0.0511 0.0307 0.1032 0.0617 0.1562 0.0928 1.3551 4.3123 0.2122 8.011-1.1591 12.449-0.5593 1.81-1.1566 3.743-1.6379 5.8908l12.856-0.9212c3.5335-4.7981 4.8732-9.6347 4.8101-15.023z" clip-rule="evenodd" fill="#F5B9AB" fill-rule="evenodd"/>
<path d="m101.21 39.356-0.533-0.626 0.533 0.626zm-2.9849 1.7335-0.2819-0.7727c-0.3279 0.1197-0.5446 0.4333-0.5405 0.7823l0.8224-0.0096zm2.7489-21.212 0.61-0.5516-0.61 0.5516zm-17.774 18.724-0.7165 0.4036c0.0698 0.1239 0.1704 0.2275 0.2922 0.3009l0.4243-0.7045zm0.1562 0.0928 0.7846-0.2465c-0.0611-0.1945-0.1923-0.3593-0.368-0.4626l-0.4166 0.7091zm-1.1591 12.449-0.7858-0.2429v1e-4l0.7858 0.2428zm-1.6379 5.8908-0.8025-0.1798c-0.0569 0.2537 0.0096 0.5194 0.1793 0.7165 0.1697 0.197 0.4226 0.3022 0.682 0.2836l-0.0588-0.8203zm12.856-0.9212 0.0587 0.8204c0.2402-0.0172 0.4607-0.1388 0.6035-0.3327l-0.6622-0.4877zm7.262-17.383c-0.8405 0.7159-1.7616 1.2322-2.7338 1.5868l0.5637 1.5453c1.1441-0.4174 2.2381-1.0294 3.2371-1.8801l-1.067-1.252zm-0.313-18.301c2.005 2.2164 3.71 5.4525 4.089 8.8044 0.375 3.3141-0.54 6.7397-3.776 9.4967l1.067 1.252c3.704-3.156 4.772-7.1475 4.343-10.934-0.424-3.7481-2.307-7.2948-4.503-9.7229l-1.22 1.1033zm-16.448 17.769c-2.975-5.2808-3.546-9.2097-2.8451-12.056 0.6953-2.8238 2.6876-4.7583 5.2469-5.9698 2.571-1.217 5.6577-1.6711 8.3603-1.5333 1.3478 0.0687 2.5752 0.2835 3.5743 0.6087 1.0144 0.3302 1.7224 0.7508 2.1111 1.1811l1.22-1.1033c-0.661-0.7309-1.6745-1.2684-2.822-1.6419-1.1627-0.3784-2.5372-0.6128-3.9996-0.6873-2.9179-0.1488-6.2851 0.3342-9.1478 1.6893-2.8744 1.3606-5.2958 3.6333-6.1404 7.0632-0.8392 3.4077-0.0765 7.779 3.0092 13.256l1.4331-0.8073zm-0.1438-0.2126c-0.0505-0.0296-0.0999-0.059-0.1484-0.0882l-0.8487 1.409c0.0537 0.0323 0.1083 0.0648 0.1639 0.0974l0.8332-1.4182zm-0.7899 13.401c1.3606-4.4035 2.601-8.3459 1.1579-12.938l-1.5692 0.4931c1.2671 4.0322 0.2217 7.4871-1.1603 11.959l1.5716 0.4857zm-1.6212 5.8279c0.4732-2.1116 1.0611-4.0152 1.6212-5.8279l-1.5716-0.4856c-0.5584 1.8073-1.1652 3.7698-1.6546 5.9538l1.605 0.3597zm11.995-1.9214-12.856 0.9212 0.1176 1.6406 12.856-0.9211-0.1175-1.6407zm4.0465-14.194c0.0612 5.2232-1.23 9.8822-4.65 14.526l1.3245 0.9753c3.6471-4.9524 5.0353-9.9665 4.9702-15.521l-1.6447 0.0193z" fill="#000"/>
<path d="m80.897 25.608c-2.0117 2.7988 0.155 9.7113 1.7537 11.44-13.247-7.3503-4.8604-23.934-0.7731-20.91 0.6661-6.1313 7.7015-8.2946 12.498-3.1091 12.024-9.7105 12.657 6.8359 8.4132 9.3522-4.2444 2.5163-9.3936 0.12-12.066 1.4176s-4.3214 9.1576-5.187 4.7951c-0.8656-4.3624-2.1238-6.4845-4.6384-2.9859z" fill="#00ADB5" stroke="#000" stroke-width="1.6449"/>
<path d="m105.5 117.94c13.865-9.222 8.079-41.089 6.106-50.149-0.355-1.6301-0.88-3.1938-1.518-4.7354-5.241-12.67-18.171-22.875-30.555-16.989-26.378 12.536-22.456 52.524-22.207 72.173l48.174-0.299z" fill="#eee" stroke="#000" stroke-linejoin="round" stroke-width="1.6449"/>
<path d="m147.2 74.825-11.129-13.581-37.498 26.235-12.12-24.395-15.693 24.395s17.001 26.404 25.637 25.637c15.738-1.398 50.802-38.291 50.802-38.291z" fill="#eee"/>
<path d="m87.289 64.864 11.183 21.866 37.603-25.485 11.129 13.581s-33.054 36.664-52.369 38.38c-6.0792 0.54-23.791-25.991-23.791-25.991" stroke="#000" stroke-width="1.6449"/>
<path d="m139.78 58.794-4.408 2.829 11.064 14.019 3.481-2.8194c3.702-2.9995 4.289-8.4256 1.313-12.147-2.772-3.4665-7.715-4.2785-11.45-1.8812z" fill="#F5B9AB" stroke="#000" stroke-linejoin="round" stroke-width="1.6449"/>
<path d="m132.83 212.97-19.028 9.921 3.273 12.397 25.408-15.647-7.476 1.016-2.177-7.687z" fill="#eee" stroke="#000" stroke-linejoin="round" stroke-width="1.3989"/>
</svg>
