<?xml version="1.0" encoding="UTF-8"?>
<svg fill="none" viewBox="0 0 24 24" xmlns="http://www.w3.org/2000/svg">
<path d="m22 16.92v3c0.0011 0.2785-0.056 0.5542-0.1675 0.8093-0.1116 0.2552-0.2752 0.4843-0.4805 0.6726-0.2052 0.1882-0.4475 0.3316-0.7113 0.4208s-0.5434 0.1224-0.8207 0.0973c-3.0772-0.3344-6.033-1.3859-8.63-3.07-2.4162-1.5353-4.4647-3.5838-6-6-1.69-2.6088-2.7418-5.579-3.07-8.67-0.02499-0.27654 0.00787-0.55524 0.0965-0.81838 0.08862-0.26313 0.23107-0.50493 0.41826-0.71 0.1872-0.20507 0.41504-0.36891 0.66903-0.4811 0.25398-0.11219 0.52855-0.17026 0.80621-0.17052h3c0.4853-0.00478 0.95579 0.16708 1.3238 0.48353s0.60831 0.75591 0.67623 1.2365c0.12663 0.96006 0.36146 1.9027 0.70001 2.81 0.13454 0.35792 0.16366 0.74691 0.0839 1.1209-0.07975 0.37396-0.26504 0.71723-0.53391 0.98912l-1.27 1.27c1.4236 2.5035 3.4964 4.5764 6 6l1.27-1.27c0.2718-0.2689 0.6151-0.4542 0.9891-0.5339 0.3739-0.0798 0.7629-0.0506 1.1209 0.0839 0.9072 0.3385 1.8499 0.5734 2.81 0.7 0.4857 0.0685 0.9294 0.3132 1.2465 0.6875s0.4856 0.8521 0.4735 1.3425z" stroke="#eee" stroke-linecap="round" stroke-linejoin="round" stroke-width="2"/>
</svg>
