<?xml version="1.0" encoding="UTF-8"?>
<svg fill="none" viewBox="0 0 414 355" xmlns="http://www.w3.org/2000/svg">
<path d="m108.74 198.22 67.998-3.289s59.816-23.984 87.658 24.085-51.76 108.39-51.76 108.39l-27.989-5.934 16.071-60.279s-68.696 17.038-91.978-62.974z" fill="#00ADB5"/>
<path d="m108.74 198.22-0.034-0.698c-0.214 0.01-0.411 0.118-0.535 0.292-0.125 0.174-0.162 0.396-0.103 0.602l0.672-0.196zm67.998-3.289 0.034 0.699 0.118-6e-3 0.109-0.043-0.261-0.65zm35.898 132.48-0.145 0.684 0.313 0.067 0.254-0.193-0.422-0.558zm-27.989-5.934-0.676-0.18-0.19 0.711 0.721 0.153 0.145-0.684zm16.071-60.279 0.676 0.18 0.305-1.144-1.149 0.285 0.168 0.679zm-91.944-62.275 67.998-3.289-0.067-1.397-67.999 3.289 0.068 1.397zm104.01 127.8-27.989-5.934-0.29 1.368 27.989 5.934 0.29-1.368zm-27.459-5.07 16.072-60.279-1.352-0.36-16.071 60.279 1.351 0.36zm15.396-60.459c-0.168-0.679-0.168-0.679-0.168-0.679-1e-3 0-1e-3 0-2e-3 1e-3 -1e-3 0-4e-3 1e-3 -8e-3 1e-3 -7e-3 2e-3 -0.018 5e-3 -0.034 9e-3 -0.031 7e-3 -0.078 0.018-0.141 0.032-0.126 0.029-0.316 0.071-0.566 0.123-0.499 0.103-1.238 0.245-2.189 0.398-1.903 0.306-4.652 0.656-8.025 0.828-6.749 0.345-15.984-0.023-25.933-2.868-19.854-5.676-42.667-21.24-54.24-61.014l-1.344 0.391c11.709 40.237 34.885 56.16 55.199 61.968 10.135 2.897 19.53 3.27 26.389 2.921 3.431-0.175 6.231-0.532 8.176-0.845 0.973-0.156 1.732-0.302 2.251-0.409 0.259-0.054 0.458-0.098 0.593-0.129 0.067-0.015 0.119-0.027 0.154-0.036 0.018-4e-3 0.031-7e-3 0.041-9e-3 5e-3 -1e-3 8e-3 -2e-3 0.011-3e-3 1e-3 0 2e-3 -1e-3 3e-3 -1e-3s2e-3 0-0.167-0.679zm-23.98-66.263c0.261 0.65 0.261 0.65 0.261 0.65 0-1e-3 1e-3 -1e-3 1e-3 -1e-3 2e-3 -1e-3 4e-3 -2e-3 7e-3 -3e-3 7e-3 -2e-3 0.017-6e-3 0.031-0.012 0.027-0.011 0.069-0.027 0.124-0.048 0.111-0.043 0.278-0.106 0.497-0.187 0.438-0.161 1.087-0.393 1.925-0.672 1.675-0.557 4.102-1.3 7.104-2.044 6.005-1.488 14.293-2.973 23.438-2.967 18.278 0.013 39.909 5.971 53.665 29.72l1.21-0.702c-14.086-24.32-36.284-30.404-54.874-30.417-9.29-6e-3 -17.696 1.501-23.776 3.008-3.041 0.754-5.504 1.508-7.209 2.075-0.852 0.284-1.516 0.52-1.967 0.687-0.226 0.083-0.399 0.148-0.516 0.193-0.058 0.023-0.103 0.04-0.133 0.052-0.015 6e-3 -0.027 0.011-0.035 0.014-4e-3 2e-3 -7e-3 3e-3 -9e-3 4e-3 -1e-3 0-2e-3 1e-3 -3e-3 1e-3 0 0-1e-3 0 0.259 0.649zm87.053 24.436c6.843 11.815 7.099 24.393 3.591 36.672-3.513 12.295-10.795 24.26-18.977 34.769-8.178 10.503-17.228 19.516-24.237 25.906-3.504 3.194-6.496 5.73-8.61 7.467-1.057 0.868-1.895 1.537-2.468 1.987-0.286 0.226-0.506 0.397-0.654 0.511-0.074 0.057-0.13 0.1-0.167 0.129-0.019 0.014-0.033 0.025-0.042 0.032-5e-3 3e-3 -8e-3 6e-3 -0.01 7e-3s-2e-3 2e-3 -3e-3 2e-3c0 1e-3 -1e-3 1e-3 0.422 0.558 0.422 0.558 0.423 0.557 0.424 0.557 0-1e-3 1e-3 -2e-3 3e-3 -3e-3 2e-3 -2e-3 6e-3 -4e-3 0.011-8e-3 0.01-8e-3 0.025-0.019 0.044-0.034 0.039-0.03 0.097-0.074 0.173-0.133 0.151-0.117 0.375-0.29 0.665-0.518 0.579-0.457 1.425-1.131 2.49-2.006 2.13-1.75 5.14-4.302 8.664-7.514 7.046-6.423 16.156-15.495 24.399-26.081 8.238-10.58 15.636-22.708 19.218-35.244 3.586-12.551 3.352-25.538-3.726-37.758l-1.21 0.702z" fill="#000"/>
<path d="m213.92 326.46-27.965-8.868-10.778 23.771s23.943 8.264 40.029 8.857l-7.836-8.817 6.55-14.943z" fill="#eee" stroke="#000" stroke-linejoin="round" stroke-width="1.3989"/>
<path d="m105.98 200.59 89.741-0.759s63.113 13.036 59.78 68.486c-3.332 55.45-103.01 61.783-103.01 61.783l-20.058-20.404 49.521-47.429s-67.504 15.268-75.977-61.677z" fill="#00ADB5" stroke="#000" stroke-width="1.3989"/>
<path d="m154.08 330.02-18.417-22.837-22.113 13.867s15.397 20.111 28.481 29.489l-1.664-11.679 13.713-8.84z" fill="#eee" stroke="#000" stroke-linejoin="round" stroke-width="1.3989"/>
<path d="m114.38 107.67c1.29-1.791 2.301-3.815 2.929-6.098 4.735-17.23-9.916-28.411-21.841-31.312-11.924-2.9008-51.532 28.409-8.1821 49.93 0.117-6e-3 0.2358-0.014 0.3563-0.022 6.946 5.497 9.1681 12.75 11.834 21.454 1.0875 3.55 2.2485 7.341 3.8345 11.352l19.823-15.655c0.441-11.67-2.715-20.984-8.754-29.649z" clip-rule="evenodd" fill="#F5B9AB" fill-rule="evenodd"/>
<path d="m117.3 101.57 0.675 0.186-0.675-0.186zm-2.928 6.098-0.568-0.409c-0.173 0.241-0.176 0.566-6e-3 0.809l0.574-0.4zm-18.912-37.41 0.1653-0.6796-0.1653 0.6796zm-8.1822 49.93-0.311 0.627c0.1083 0.053 0.2287 0.078 0.3494 0.071l-0.0384-0.698zm0.3564-0.021 0.434-0.549c-0.1359-0.108-0.307-0.161-0.48-0.149l0.046 0.698zm11.834 21.453 0.6688-0.205-0.6688 0.205zm3.8348 11.352-0.651 0.257c0.082 0.206 0.256 0.361 0.469 0.419 0.214 0.057 0.442 0.01 0.615-0.127l-0.433-0.549zm19.822-15.655 0.434 0.549c0.16-0.127 0.257-0.318 0.265-0.523l-0.699-0.026zm-6.499-35.932c-0.604 2.197-1.578 4.146-2.822 5.874l1.136 0.818c1.335-1.855 2.384-3.954 3.035-6.321l-1.349-0.371zm-21.331-30.447c5.8444 1.4217 12.351 4.8756 16.802 10.059 4.43 5.1584 6.827 12.026 4.529 20.388l1.349 0.371c2.437-8.8675-0.124-16.206-4.817-21.671-4.672-5.4402-11.453-9.0274-17.533-10.506l-0.3306 1.3592zm-7.7058 48.624c-10.752-5.338-16.231-11.22-18.342-16.906-2.1041-5.6675-0.9147-11.287 1.997-16.236 2.9172-4.9591 7.5396-9.1962 12.174-12.012 2.3147-1.4064 4.6143-2.4473 6.6836-3.0474 2.0824-0.604 3.87-0.7439 5.1931-0.422l0.3306-1.3592c-1.658-0.4034-3.7166-0.1994-5.9134 0.4377-2.2098 0.6409-4.6222 1.7383-7.0203 3.1954-4.791 2.9112-9.5969 7.3027-12.653 12.498-3.062 5.2052-4.3916 11.267-2.1027 17.433 2.2822 6.147 8.1079 12.249 19.031 17.672l0.6221-1.253zm-7e-4 -0.093c-0.118 7e-3 -0.2343 0.014-0.3487 0.021l0.0767 1.396c0.1196-6e-3 0.2409-0.013 0.364-0.022l-0.092-1.395zm12.549 21.946c-2.6571-8.674-4.9271-16.146-12.069-21.797l-0.868 1.097c6.7502 5.342 8.9243 12.377 11.599 21.11l1.3376-0.41zm3.816 11.3c-1.574-3.982-2.728-7.748-3.816-11.3l-1.3376 0.41c1.0868 3.547 2.2556 7.364 3.8526 11.404l1.301-0.514zm18.739-15.947-19.823 15.655 0.867 1.098 19.823-15.655-0.867-1.098zm-8.894-28.7c5.958 8.549 9.064 17.716 8.628 29.223l1.398 0.052c0.448-11.832-2.759-21.295-8.878-30.075l-1.148 0.8z" fill="#000"/>
<path d="m69.229 101.67c-0.1774 6.752 10.95 15.569 15.445 16.611-29.568 2.679-34.245-33.44-24.288-33.041-5.6749-10.672 3.3453-21.928 16.831-18.807 8.7924-28.986 28.045-2.8635 23.938 5.8905-4.1066 8.754-15.092 10.542-17.994 15.589-2.9019 5.0471 3.084 19.604-3.1248 13.486-6.2087-6.1174-10.586-8.1709-10.807 0.27z" fill="#00ADB5" stroke="#000" stroke-width="1.3989"/>
<path d="m197.86 196.77c12.756-29.39-28.212-59.373-37.249-65.531-1.161-0.791-2.34-1.487-3.569-2.169-23.517-13.061-56.612-14.77-68.659 9.282-21.058 42.042 31.442 85.933 50.833 113.89l58.644-55.473z" fill="#eee"/>
<path d="m160.62 131.24 0.394-0.578-0.394 0.578zm37.249 65.531 0.481 0.508 0.104-0.098 0.057-0.132-0.642-0.278zm-58.644 55.473-0.575 0.398c0.116 0.168 0.3 0.276 0.502 0.297 0.203 0.021 0.405-0.047 0.553-0.187l-0.48-0.508zm-50.833-113.89-0.6253-0.314 0.6253 0.314zm68.659-9.282 0.34-0.611-0.34 0.611zm3.175 2.747c4.5 3.067 16.936 12.057 26.65 23.919 9.738 11.892 16.564 26.442 10.351 40.755l1.284 0.557c6.543-15.076-0.737-30.212-10.553-42.199-9.841-12.016-22.407-21.096-26.944-24.188l-0.788 1.156zm37.162 64.445-58.644 55.473 0.961 1.016 58.645-55.473-0.962-1.016zm-57.589 55.582c-4.871-7.024-11.818-15.044-19.123-23.729-7.319-8.703-15.017-18.096-21.451-27.919-12.884-19.673-20.561-40.862-10.208-61.531l-1.2507-0.627c-10.705 21.373-2.6613 43.151 10.288 62.924 6.4829 9.9 14.23 19.349 21.55 28.053 7.334 8.721 14.221 16.671 19.045 23.626l1.149-0.797zm16.913-122.16c1.218 0.677 2.378 1.361 3.514 2.136l0.788-1.156c-1.185-0.808-2.385-1.515-3.623-2.202l-0.679 1.222zm0.679-1.222c-11.856-6.585-26.144-10.321-39.022-9.363-12.896 0.96-24.44 6.64-30.602 18.942l1.2507 0.627c5.8855-11.75 16.911-17.241 29.455-18.174 12.56-0.935 26.578 2.714 38.239 9.19l0.679-1.222z" fill="#000"/>
<path d="m213.68 181.57-20.341-23.947-29.562 23.026c-4.686-33.747-42.231-60.955-56.758-57.188-39.054 10.129 5.224 97.78 33.472 110.46 28.248 12.684 73.189-52.354 73.189-52.354z" fill="#eee" stroke="#000" stroke-width="1.3989"/>
<path d="m195.1 155.68-2.582 2.576 20.669 24.013 4.219-4.197c7.075-7.039 5.936-18.792-2.36-24.34-6.263-4.188-14.612-3.373-19.946 1.948z" fill="#F5B9AB" stroke="#000" stroke-linejoin="round" stroke-width="1.3989"/>
<path d="m91.935 249.66c-0.3298-0.086-0.6618 0.157-0.6612 0.498l0.1588 91.176h-18.245c-0.2773 0-0.5022 0.225-0.5022 0.502v11.1c0 0.277 0.2249 0.502 0.5022 0.502h51.906c0.277 0 0.502-0.225 0.502-0.502v-11.1c0-0.277-0.225-0.502-0.502-0.502h-19.815v-91.651c0-0.299-0.26-0.532-0.558-0.498-0.994 0.113-1.928 0.231-2.811 0.342-4.0619 0.512-7.0552 0.889-9.9747 0.133z" clip-rule="evenodd" fill="#00ADB5" fill-rule="evenodd"/>
<path d="m91.274 250.16-0.6995 1e-3 0.6995-1e-3zm0.6612-0.498 0.1753-0.677-0.1753 0.677zm-0.5024 91.674v0.7h0.7007l-0.0012-0.701-0.6995 1e-3zm-18.747 0.502h0.6994-0.6994zm0 11.1h-0.6994 0.6994zm32.593-11.602h-0.7v0.7h0.7v-0.7zm-0.557-92.149-0.08-0.695 0.08 0.695zm-2.812 0.342-0.087-0.694 0.087 0.694zm-9.9363 0.629c1e-4 0.069-0.0359 0.125-0.0747 0.154-0.0369 0.027-0.0881 0.04-0.1389 0.027l0.3507-1.354c-0.7448-0.193-1.5374 0.348-1.536 1.176l1.3989-3e-3zm0.1589 91.177-0.1589-91.177-1.3989 3e-3 0.1589 91.176 1.3989-2e-3zm-18.944 0.701h18.245v-1.399h-18.245v1.399zm0.1972-0.198c0 0.109-0.0883 0.198-0.1972 0.198v-1.399c-0.6636 0-1.2016 0.538-1.2016 1.201h1.3988zm0 11.1v-11.1h-1.3988v11.1h1.3988zm-0.1972-0.198c0.1089 0 0.1972 0.089 0.1972 0.198h-1.3988c0 0.663 0.538 1.201 1.2016 1.201v-1.399zm51.906 0h-51.906v1.399h51.906v-1.399zm-0.197 0.198c0-0.109 0.088-0.198 0.197-0.198v1.399c0.664 0 1.202-0.538 1.202-1.201h-1.399zm0-11.1v11.1h1.399v-11.1h-1.399zm0.197 0.198c-0.109 0-0.197-0.089-0.197-0.198h1.399c0-0.663-0.538-1.201-1.202-1.201v1.399zm-19.815 0h19.815v-1.399h-19.815v1.399zm-0.7-92.351v91.651h1.399v-91.651h-1.399zm0.222 0.197c-0.119 0.013-0.222-0.08-0.222-0.197h1.399c0-0.716-0.622-1.275-1.336-1.193l0.159 1.39zm-2.803 0.341c0.883-0.111 1.813-0.228 2.803-0.341l-0.159-1.39c-0.999 0.114-1.936 0.232-2.819 0.343l0.175 1.388zm-10.238 0.116c3.0745 0.796 6.2111 0.391 10.238-0.116l-0.175-1.388c-4.0977 0.516-6.9476 0.866-9.7122 0.15l-0.3507 1.354z" fill="#000"/>
<path d="m70.389 158.79c11.933 28.443-10.479 38.864-10.218 57.772 0.3614 26.166 43.035 51.414 69.741-3.258" stroke="#000" stroke-width="1.3989"/>
<rect transform="rotate(-22.76 22.37 103.92)" x="22.37" y="103.92" width="32.507" height="105.13" rx="15.819" fill="#00ADB5" stroke="#000" stroke-width="1.3989"/>
<rect x="316.19" y="211.31" width="15.562" height="142.13" rx=".50219" fill="#00ADB5" stroke="#000" stroke-width="1.3989"/>
<rect transform="rotate(88.749 199.86 210.66)" x="199.86" y="210.66" width="52.107" height="112.52" rx="24.562" fill="#00ADB5" stroke="#000" stroke-width="1.3989"/>
<rect transform="rotate(88.749 411.97 184.05)" x="411.97" y="184.05" width="32.507" height="176.82" rx="15.819" fill="#00ADB5" stroke="#000" stroke-width="1.3989"/>
<rect transform="rotate(105 386.42 98.903)" x="386.42" y="98.903" width="82.997" height="15.562" rx="2.0088" fill="#00ADB5" stroke="#000" stroke-width="1.3989"/>
<rect x="285.24" y="170.96" width="82.997" height="15.562" rx="2.0088" fill="#eee" stroke="#000" stroke-width="1.3989"/>
</svg>
