<?xml version="1.0" encoding="UTF-8"?>
<svg fill="none" viewBox="0 0 401 473" xmlns="http://www.w3.org/2000/svg">
<path d="m290.61 94.861c-2.442-0.8912-4.769-2.1936-6.891-4.002-16.024-13.651-9.153-34.247 0.544-44.97 9.698-10.723 69.02-6.4456 41.035 43.228-0.118 0.0711-0.238 0.1426-0.36 0.2145-3.129 9.9555-0.49 18.495 2.676 28.74 1.291 4.179 2.67 8.642 3.781 13.6l-29.68-2.126c-8.158-11.078-11.25-22.244-11.105-34.685z" clip-rule="evenodd" fill="#F5B9AB" fill-rule="evenodd"/>
<path d="m283.72 90.859-0.454 0.5324 0.454-0.5324zm6.891 4.002 0.24-0.6571c0.279 0.1017 0.463 0.3684 0.46 0.6653l-0.7-0.0082zm-6.347-48.972 0.519 0.4691-0.519-0.4691zm41.035 43.228 0.61 0.3433c-0.06 0.1053-0.145 0.1935-0.249 0.2559l-0.361-0.5992zm-0.36 0.2145-0.667-0.2097c0.052-0.1654 0.163-0.3056 0.313-0.3934l0.354 0.6031zm2.676 28.74-0.669 0.207 0.669-0.207zm3.781 13.6 0.682-0.153c0.049 0.216-8e-3 0.442-0.152 0.61-0.144 0.167-0.359 0.257-0.58 0.241l0.05-0.698zm-29.68-2.126-0.05 0.697c-0.204-0.014-0.392-0.118-0.513-0.283l0.563-0.414zm-17.543-39.219c2.056 1.7511 4.308 3.0128 6.678 3.8773l-0.479 1.3141c-2.516-0.9178-4.916-2.2609-7.106-4.1266l0.907-1.0648zm0.61-43.968c-4.767 5.2714-8.833 12.969-9.741 20.996-0.904 7.995 1.319 16.316 9.131 22.972l-0.907 1.0648c-8.211-6.9953-10.564-15.798-9.614-24.194 0.946-8.3642 5.164-16.326 10.094-21.777l1.037 0.9383zm39.907 42.416c6.949-12.335 8.407-21.728 6.688-28.708-1.714-6.9611-6.626-11.674-12.765-14.579-6.148-2.9104-13.479-3.9798-19.875-3.6537-3.195 0.1629-6.136 0.6731-8.562 1.4627-2.439 0.7938-4.296 1.85-5.393 3.0625l-1.037-0.9383c1.327-1.4681 3.445-2.6238 5.997-3.4544 2.565-0.8349 5.631-1.3617 8.924-1.5295 6.579-0.3355 14.148 0.7585 20.545 3.7863 6.406 3.0325 11.683 8.0328 13.524 15.509 1.837 7.4576 0.216 17.227-6.827 29.729l-1.219-0.6866zm-0.105-0.0453c0.12-0.0706 0.238-0.1408 0.354-0.2105l0.721 1.1983c-0.12 0.0723-0.242 0.1452-0.367 0.2183l-0.708-1.2061zm2.361 29.55c-3.156-10.216-5.878-18.963-2.674-29.157l1.334 0.4194c-3.054 9.7173-0.498 18.049 2.677 28.324l-1.337 0.413zm3.767 13.546c-1.104-4.927-2.475-9.365-3.767-13.546l1.337-0.413c1.29 4.176 2.677 8.664 3.795 13.653l-1.365 0.306zm-28.947-2.977 29.68 2.127-0.1 1.395-29.68-2.127 0.1-1.395zm-10.455-33.978c-0.144 12.3 2.907 23.316 10.968 34.262l-1.126 0.829c-8.254-11.208-11.389-22.525-11.241-35.107l1.399 0.0164z" fill="#000"/>
<path d="m330.62 59.12c4.644 6.4615-0.358 22.42-4.049 26.412 30.583-16.969 11.221-55.256 1.785-48.274-1.538-14.155-17.78-19.15-28.853-7.1779-27.76-22.418-29.221 15.782-19.422 21.591 9.798 5.8093 21.686 0.277 27.855 3.2727 6.17 2.9957 9.977 21.142 11.975 11.07 1.999-10.071 4.903-14.97 10.709-6.8936z" fill="#00ADB5" stroke="#000" stroke-width="1.3989"/>
<path d="m358.07 340.99-43.049-3.124 10.36-115.88s-49.946-118.36-7.071-118.36c60.581 0 80.839 93.336 80.084 118.36-0.756 25.023-40.324 119-40.324 119z" fill="#eee" stroke="#000" stroke-width="1.3989"/>
<path d="m314.7 342.88 0.602-5.232 43.352 1.742-0.956 8.408c-1.545 13.594-15.161 22.36-28.176 18.14-9.799-3.178-15.999-12.824-14.822-23.058z" fill="#F5B9AB" stroke="#000" stroke-linejoin="round" stroke-width="1.3989"/>
<path d="m252.21 257.6c-28.003-27.151 6.797-117.09 12.473-127.79 8.263-15.252 33.066-41.785 66.168-25.901 50.057 24.02 27.183 142.87 18.185 184.07l-96.826-30.376z" fill="#eee" stroke="#000" stroke-width="1.3989"/>
<path d="m34.154 351.86-4.5126-40.792s104.77-33.954 191.12-46.694l118.56 10.241c17.809 42.084 9.026 119.43-123.06 83.869l-182.1-6.624z" fill="#00ADB5" stroke="#000" stroke-width="1.3989"/>
<path d="m161.11 280.39-18.615 57.896-39.056-1.908-17.821-108.01c-2.9523-17.892 10.852-34.161 28.986-34.161h24.164l1.669-2.609 8.112 2.609c6.483 8e-3 12.353 2.071 17.11 5.504l164.13 52.796c25.382 8.165 36.799 37.634 23.541 60.768l-25.108 43.814c-13.033 22.743-43.505 28.087-63.499 11.136l-103.61-87.839z" clip-rule="evenodd" fill="#00ADB5" fill-rule="evenodd"/>
<path d="m161.11 280.39 0.452-0.534-0.798-0.676-0.32 0.996 0.666 0.214zm-18.615 57.896-0.034 0.698 0.536 0.026 0.164-0.51-0.666-0.214zm-39.056-1.908-0.691 0.113 0.092 0.558 0.564 0.027 0.035-0.698zm-17.821-108.01 0.6901-0.114-0.6901 0.114zm28.986-34.161v0.7-0.7zm24.164 0v0.7h0.383l0.206-0.323-0.589-0.377zm1.669-2.609 0.215-0.666-0.513-0.165-0.291 0.454 0.589 0.377zm8.112 2.609-0.214 0.666 0.104 0.034h0.109l1e-3 -0.7zm17.11 5.504-0.409 0.567 0.09 0.065 0.105 0.034 0.214-0.666zm164.13 52.796 0.214-0.666-0.214 0.666zm23.541 60.768 0.607 0.348-0.607-0.348zm-25.108 43.814-0.607-0.348 0.607 0.348zm-63.499 11.136 0.452-0.534-0.452 0.534zm-104.28-88.053-18.615 57.895 1.332 0.429 18.615-57.896-1.332-0.428zm-17.915 57.411-39.056-1.908-0.069 1.397 39.057 1.908 0.068-1.397zm-38.4-1.323-17.821-108.01-1.3802 0.228 17.82 108 1.381-0.227zm-17.821-108.01c-2.882-17.466 10.593-33.347 28.296-33.347v-1.399c-18.566 0-32.699 16.655-29.676 34.974l1.3802-0.228zm28.296-33.347h24.164v-1.399h-24.164v1.399zm24.753-0.323 1.67-2.609-1.179-0.754-1.669 2.609 1.178 0.754zm0.866-2.32 8.112 2.609 0.428-1.332-8.111-2.609-0.429 1.332zm8.325 2.643c6.332 7e-3 12.059 2.021 16.702 5.371l0.819-1.134c-4.873-3.516-10.885-5.628-17.519-5.636l-2e-3 1.399zm16.897 5.47 164.13 52.796 0.429-1.332-164.13-52.796-0.429 1.332zm164.13 52.796c24.959 8.028 36.186 37.006 23.149 59.755l1.214 0.695c13.478-23.52 1.872-53.481-23.934-61.782l-0.429 1.332zm23.149 59.755-25.108 43.813 1.214 0.696 25.108-43.814-1.214-0.695zm-25.108 43.813c-12.816 22.364-42.779 27.619-62.44 10.95l-0.905 1.067c20.328 17.234 51.308 11.801 64.559-11.321l-1.214-0.696zm-62.44 10.95-103.61-87.839-0.904 1.068 103.61 87.838 0.905-1.067z" fill="#000"/>
<path d="m102.99 335.94 39.938 2.362 3.096 33.527s-35.036-1.016-56.29-7.664l14.286-7.021-1.03-21.204z" fill="#eee" stroke="#000" stroke-linejoin="round" stroke-width="1.3989"/>
<rect transform="matrix(.25882 .96593 .96593 -.25882 89.528 91.538)" width="97.773" height="18.332" rx="2.0088" fill="#eee" stroke="#000" stroke-width="1.3989"/>
<rect transform="matrix(-1 0 0 1 208.72 176.42)" width="97.773" height="18.332" rx="2.0088" fill="#00ADB5" stroke="#000" stroke-width="1.3989"/>
<path d="m29.952 311.1 4.9398 40.782-29.811 8.228s-5.6167-35.139-2.8949-57.584l9.8453 12.935 17.921-4.361z" fill="#eee" stroke="#000" stroke-linejoin="round" stroke-width="1.3989"/>
<path d="m177.99 205.62 22.372-37.277 68.594 37.351c-3.145-43.107 26.442-105.14 57.511-101.36 54.505 6.628 14.35 140.98-21.355 164.66-35.706 23.681-127.12-63.368-127.12-63.368z" fill="#eee"/>
<path d="m348.17 186.78c-8.436 35.347-26.241 71.052-43.058 82.206-35.706 23.681-127.12-63.368-127.12-63.368l22.372-37.277 68.594 37.351 23.314-58.489" stroke="#000" stroke-width="1.3989"/>
<path d="m196.29 165.51 4.285 3.063-22.54 37.072-6.89-4.911c-11.141-7.942-12.208-24.101-2.207-33.438 7.53-7.03 18.972-7.777 27.352-1.786z" fill="#F5B9AB" stroke="#000" stroke-linejoin="round" stroke-width="1.3989"/>
</svg>
