<?xml version="1.0" encoding="UTF-8"?>
<svg fill="none" viewBox="0 0 48 48" xmlns="http://www.w3.org/2000/svg">
<g clip-path="url(#a)">
<rect width="48" height="48" rx="24" fill="#393E46"/>
<rect width="48" height="48" rx="24" fill="#393E46"/>
<rect width="48" height="48" rx="24" fill="#393E46"/>
<path d="m35 15c-0.9576 0.6755-2.0179 1.1922-3.14 1.53-0.6023-0.6924-1.4027-1.1833-2.293-1.406-0.8903-0.2228-1.8275-0.1668-2.6849 0.1605s-1.5937 0.9099-2.1091 1.6693c-0.5155 0.7593-0.7853 1.6586-0.773 2.5762v1c-1.7574 0.0456-3.4987-0.3441-5.069-1.1345s-2.9207-1.9568-3.931-3.3955c0 0-4 9 5 13-2.0595 1.398-4.5128 2.099-7 2 9 5 20 0 20-11.5-9e-4 -0.2785-0.0277-0.5564-0.08-0.83 1.0206-1.0065 1.7408-2.2772 2.08-3.67v0z" stroke="#eee" stroke-linecap="round" stroke-linejoin="round" stroke-opacity=".75" stroke-width="2"/>
</g>
<defs>
<clipPath id="a">
<rect width="48" height="48" rx="24" fill="#fff"/>
</clipPath>
</defs>
</svg>
