<svg width="135.000000" height="135.000000" viewBox="0 0 135 135" fill="none" xmlns="http://www.w3.org/2000/svg" xmlns:xlink="http://www.w3.org/1999/xlink">
	<desc>
			Created with Pixso.
	</desc>
	<defs>
		<clipPath id="clip1_796">
			<rect width="135.000000" height="135.000000" fill="white" fill-opacity="0"/>
		</clipPath>
	</defs>
	<rect width="135.000000" height="135.000000" fill="#FFFFFF" fill-opacity="0"/>
	<g clip-path="url(#clip1_796)">
		<path d="M47.37 115C47.13 114.46 46.52 114.22 45.98 114.45C38.68 117.65 28.43 116.09 19.86 110.49C8.57 103.11 2.1 90.2 2.1 75.06C2.1 58.11 7 46.32 16.25 40.96C25.73 35.48 38.25 37.69 45.88 42.07C46.38 42.35 47.03 42.18 47.32 41.68C47.61 41.17 47.43 40.53 46.93 40.24C38.52 35.41 25.45 33.2 15.2 39.13C8.26 43.15 0 52.64 0 75.06C0 90.92 6.81 104.48 18.7 112.25C24.65 116.15 31.4 118.19 37.58 118.19C40.9 118.19 44.05 117.6 46.82 116.39C47.36 116.15 47.6 115.53 47.37 115Z" fill="#FFFFFF" fill-opacity="1.000000" fill-rule="nonzero"/>
		<path d="M65.2 113.74C64.87 113.26 64.21 113.14 63.73 113.47C59.6 116.33 51.11 116.32 46.83 114.41C46.3 114.17 45.68 114.42 45.44 114.94C45.2 115.48 45.44 116.1 45.97 116.34C48.2 117.33 51.27 117.88 54.41 117.88C58.28 117.88 62.27 117.05 64.93 115.21C65.41 114.87 65.53 114.22 65.2 113.74Z" fill="#FFFFFF" fill-opacity="1.000000" fill-rule="nonzero"/>
		<path d="M77.61 39.09C67.35 33.15 54.28 35.36 45.88 40.19C45.37 40.48 45.2 41.13 45.49 41.63C45.78 42.14 46.42 42.31 46.93 42.02C54.55 37.64 67.07 35.42 76.55 40.91C85.8 46.27 90.7 58.06 90.7 75.01C90.7 77.96 90.46 80.84 90 83.58C89.9 84.15 90.29 84.69 90.86 84.79C90.92 84.8 90.98 84.81 91.04 84.81C91.54 84.81 91.99 84.44 92.07 83.93C92.56 81.08 92.81 78.08 92.81 75.01C92.81 52.59 84.54 43.1 77.61 39.09Z" fill="#FFFFFF" fill-opacity="1.000000" fill-rule="nonzero"/>
		<path d="M46.4 114.67C45.82 114.67 45.35 115.15 45.35 115.73L45.35 117.07C45.35 117.65 45.82 118.12 46.4 118.12C46.98 118.12 47.46 117.65 47.46 117.07L47.46 115.73C47.46 115.15 46.98 114.67 46.4 114.67Z" fill="#FFFFFF" fill-opacity="1.000000" fill-rule="nonzero"/>
		<path d="M43.26 115.73C42.67 115.73 42.2 116.21 42.2 116.79L42.2 117.1C42.2 117.68 42.67 118.15 43.26 118.15C43.84 118.15 44.31 117.68 44.31 117.1L44.31 116.79C44.31 116.21 43.84 115.73 43.26 115.73Z" fill="#FFFFFF" fill-opacity="1.000000" fill-rule="nonzero"/>
		<path d="M49.59 115.73C49 115.73 48.53 116.21 48.53 116.79L48.53 117.1C48.53 117.68 49 118.15 49.59 118.15C50.17 118.15 50.64 117.68 50.64 117.1L50.64 116.79C50.64 116.21 50.17 115.73 49.59 115.73Z" fill="#FFFFFF" fill-opacity="1.000000" fill-rule="nonzero"/>
		<path d="M35.36 8.61C34.88 8.29 34.22 8.42 33.9 8.9C33.58 9.39 33.71 10.04 34.19 10.37C34.32 10.45 46.34 18.68 45.35 37.17C45.32 37.75 45.76 38.25 46.34 38.28C46.36 38.28 46.38 38.28 46.4 38.28C46.96 38.28 47.42 37.84 47.46 37.28C48.51 17.61 35.9 8.97 35.36 8.61Z" fill="#FFFFFF" fill-opacity="1.000000" fill-rule="nonzero"/>
		<path d="M23.15 45.41C22.95 44.87 22.34 44.59 21.79 44.8C4.4 51.35 8.29 78.54 8.46 79.69C8.54 80.21 8.99 80.59 9.51 80.59C9.56 80.59 9.61 80.58 9.67 80.58C10.24 80.49 10.64 79.95 10.55 79.38C10.51 79.11 6.72 52.73 22.54 46.77C23.08 46.56 23.36 45.96 23.15 45.41Z" fill="#FFFFFF" fill-opacity="1.000000" fill-rule="nonzero"/>
		<path d="M78.62 13.64C77.73 11.8 74.44 10.86 68.83 10.86C63.33 10.86 57.37 11.81 54.64 13.12C49.25 15.71 46.97 22.2 49.56 27.59C51.36 31.33 55.2 33.75 59.35 33.75C60.98 33.75 62.55 33.39 64.03 32.68C68.6 30.48 80.76 18.11 78.62 13.64ZM63.12 30.77C61.93 31.35 60.66 31.64 59.35 31.64C56 31.64 52.91 29.69 51.46 26.68C49.38 22.34 51.22 17.11 55.56 15.02C57.99 13.85 63.7 12.97 68.83 12.97C74.47 12.97 76.46 14.01 76.72 14.55C77.85 16.91 68.32 28.28 63.12 30.77Z" fill="#FFFFFF" fill-opacity="1.000000" fill-rule="nonzero"/>
		<path d="M68.73 18.61C68.58 18.05 68 17.71 67.44 17.86C67.03 17.97 57.38 20.55 53.62 24.55C53.22 24.98 53.24 25.64 53.67 26.04C53.87 26.23 54.13 26.33 54.39 26.33C54.67 26.33 54.95 26.22 55.16 25.99C58.5 22.43 67.88 19.92 67.97 19.9C68.54 19.75 68.87 19.17 68.73 18.61Z" fill="#FFFFFF" fill-opacity="1.000000" fill-rule="nonzero"/>
		<path d="M133.94 86.48L60.11 86.48C59.53 86.48 59.06 86.95 59.06 87.53C59.06 88.12 59.53 88.59 60.11 88.59L133.94 88.59C134.52 88.59 135 88.12 135 87.53C135 86.95 134.52 86.48 133.94 86.48Z" fill="#FFFFFF" fill-opacity="1.000000" fill-rule="nonzero"/>
		<path d="M133.94 87.53C133.36 87.53 132.89 88.01 132.89 88.59C132.89 108.36 116.8 124.45 97.03 124.45C77.25 124.45 61.17 108.36 61.17 88.59C61.17 88.01 60.7 87.53 60.11 87.53C59.53 87.53 59.06 88.01 59.06 88.59C59.06 109.53 76.09 126.56 97.03 126.56C117.96 126.56 135 109.53 135 88.59C135 88.01 134.52 87.53 133.94 87.53Z" fill="#FFFFFF" fill-opacity="1.000000" fill-rule="nonzero"/>
		<path d="M110.09 90.78C109.56 90.56 108.94 90.81 108.71 91.35C106.74 96.08 102.15 99.14 97.03 99.14C91.93 99.14 87.35 96.1 85.36 91.41C85.14 90.87 84.52 90.62 83.98 90.85C83.44 91.07 83.2 91.69 83.42 92.23C85.74 97.71 91.08 101.25 97.03 101.25C103.01 101.25 108.36 97.68 110.66 92.16C110.89 91.62 110.63 91 110.09 90.78Z" fill="#FFFFFF" fill-opacity="1.000000" fill-rule="nonzero"/>
		<path d="M129.67 90.71C129.1 90.63 128.58 91.07 128.52 91.65C126.96 107.94 113.42 120.23 97.03 120.23C80.63 120.23 67.09 107.94 65.53 91.65C65.48 91.07 64.97 90.62 64.38 90.7C63.8 90.76 63.38 91.27 63.43 91.85C65.1 109.23 79.54 122.34 97.03 122.34C114.51 122.34 128.95 109.23 130.62 91.85C130.68 91.28 130.25 90.76 129.67 90.71Z" fill="#FFFFFF" fill-opacity="1.000000" fill-rule="nonzero"/>
		<path d="M60.11 86.48C59.53 86.48 59.06 86.95 59.06 87.53L59.06 88.59C59.06 89.17 59.53 89.64 60.11 89.64C60.7 89.64 61.17 89.17 61.17 88.59L61.17 87.53C61.17 86.95 60.7 86.48 60.11 86.48Z" fill="#FFFFFF" fill-opacity="1.000000" fill-rule="nonzero"/>
		<path d="M133.94 86.48C133.36 86.48 132.89 86.95 132.89 87.53L132.89 88.59C132.89 89.17 133.36 89.64 133.94 89.64C134.52 89.64 135 89.17 135 88.59L135 87.53C135 86.95 134.52 86.48 133.94 86.48Z" fill="#FFFFFF" fill-opacity="1.000000" fill-rule="nonzero"/>
		<path d="M93.92 92.81L93.9 92.81C93.32 92.81 92.86 93.28 92.86 93.86C92.86 94.45 93.34 94.92 93.92 94.92C94.51 94.92 94.98 94.45 94.98 93.86C94.98 93.28 94.51 92.81 93.92 92.81Z" fill="#FFFFFF" fill-opacity="1.000000" fill-rule="nonzero"/>
		<path d="M102.36 90.7L102.34 90.7C101.76 90.7 101.3 91.17 101.3 91.75C101.3 92.34 101.78 92.81 102.36 92.81C102.95 92.81 103.42 92.34 103.42 91.75C103.42 91.17 102.95 90.7 102.36 90.7Z" fill="#FFFFFF" fill-opacity="1.000000" fill-rule="nonzero"/>
	</g>
</svg>
