<svg width="120.000000" height="120.000000" viewBox="0 0 120 120" fill="none" xmlns="http://www.w3.org/2000/svg" xmlns:xlink="http://www.w3.org/1999/xlink">
	<desc>
			Created with Pixso.
	</desc>
	<defs>
		<clipPath id="clip1_934">
			<rect width="120.000000" height="120.000000" fill="white" fill-opacity="0"/>
		</clipPath>
	</defs>
	<rect width="120.000000" height="120.000000" fill="#FFFFFF" fill-opacity="0"/>
	<g clip-path="url(#clip1_934)">
		<path d="M119.88 29.61C119.36 28.66 116.67 23.89 114.41 23.38C113.86 23.25 113.33 23.35 112.89 23.67C110.92 25.08 109.02 27.5 108.94 27.6C108.62 28.01 108.7 28.6 109.11 28.92C109.51 29.24 110.1 29.17 110.42 28.76C110.44 28.74 112.23 26.45 113.95 25.2C113.96 25.2 113.96 25.2 113.97 25.2C114.64 25.2 116.53 27.5 117.99 30.07C116.31 33.39 108.68 48.86 111.02 53.77C114.72 61.55 111.28 68.62 107.73 73.19C96.97 87.03 69.03 98.75 42.64 93.53C28.33 90.7 9.74 81.7 2.04 54.96L8.11 51.89C16.19 63.84 30.08 70.79 47.34 71.47C68.32 72.3 90.17 63.48 100.53 49.95L112.25 32.45C112.54 32.02 112.43 31.44 112 31.15C111.56 30.86 110.98 30.98 110.7 31.41L99.01 48.85C89.03 61.88 67.82 70.41 47.41 69.6C30.45 68.93 16.88 62.02 9.22 50.17C8.96 49.77 8.44 49.63 8.01 49.84L0.51 53.63C0.11 53.83 -0.09 54.29 0.03 54.72C7.85 82.96 27.32 92.41 42.28 95.37C46.75 96.26 51.28 96.66 55.76 96.66C78.39 96.66 99.95 86.26 109.21 74.34C114.76 67.19 115.97 59.81 112.71 52.96C111.14 49.69 116.28 37.44 119.89 30.49C120.03 30.21 120.03 29.88 119.88 29.61Z" fill="#FFFFFF" fill-opacity="1.000000" fill-rule="nonzero"/>
		<path d="M116.86 34.88C113.47 32.81 110.04 29.7 110.54 28.56C110.75 28.08 110.53 27.53 110.06 27.32C109.59 27.11 109.03 27.33 108.82 27.81C107.43 31 113.87 35.25 115.88 36.48C116.03 36.57 116.2 36.62 116.37 36.62C116.68 36.62 116.99 36.46 117.17 36.17C117.44 35.73 117.3 35.15 116.86 34.88Z" fill="#FFFFFF" fill-opacity="1.000000" fill-rule="nonzero"/>
		<path d="M102.57 53.58C102.1 53.36 101.55 53.57 101.33 54.04C97.08 63.4 78.44 75.03 57.46 77.45C37.97 79.7 21.39 73.31 10.74 59.48C10.42 59.07 9.83 59 9.42 59.31C9.01 59.63 8.94 60.22 9.25 60.63C18.87 73.12 33.12 79.77 49.92 79.77C52.45 79.77 55.04 79.62 57.68 79.31C75.12 77.3 97.51 66.98 103.04 54.82C103.25 54.35 103.04 53.79 102.57 53.58Z" fill="#FFFFFF" fill-opacity="1.000000" fill-rule="nonzero"/>
		<path d="M97.3 47.61C96.98 47.2 96.39 47.12 95.98 47.44C95.72 47.65 95.44 47.85 95.17 48.05C81.64 57.88 59.16 61.13 40.49 55.94C25.77 51.85 14.88 43.02 9.84 31.08C9.65 30.64 9.16 30.4 8.7 30.55L0.66 32.98C0.23 33.11 -0.04 33.52 0 33.96C0.52 39.36 1.59 44.45 3.18 49.1C3.34 49.59 3.88 49.85 4.37 49.68C4.86 49.52 5.12 48.98 4.95 48.49C3.49 44.2 2.47 39.52 1.94 34.55L8.45 32.58C13.86 44.66 25.03 53.58 39.99 57.75C46.25 59.48 52.83 60.33 59.35 60.33C73.13 60.33 86.64 56.56 96.27 49.56C96.56 49.35 96.85 49.14 97.13 48.92C97.54 48.61 97.62 48.02 97.3 47.61Z" fill="#FFFFFF" fill-opacity="1.000000" fill-rule="nonzero"/>
		<path d="M47.97 65.9C36.04 63.8 19.45 57.31 8.17 38.3C7.91 37.85 7.33 37.71 6.89 37.97C6.44 38.23 6.3 38.81 6.56 39.25C18.19 58.87 35.32 65.58 47.64 67.75C47.7 67.76 47.75 67.76 47.81 67.76C48.25 67.76 48.65 67.44 48.73 66.99C48.82 66.48 48.48 65.99 47.97 65.9Z" fill="#FFFFFF" fill-opacity="1.000000" fill-rule="nonzero"/>
	</g>
</svg>
