<svg width="1005.000000" height="88.000000" viewBox="0 0 1005 88" fill="none" xmlns="http://www.w3.org/2000/svg" xmlns:xlink="http://www.w3.org/1999/xlink">
	<desc>
			Created with Pixso.
	</desc>
	<defs/>
	<path id="Vector" d="M-0.55 68.4L-0.55 56.42C3.16 56.42 7.27 56.42 11.57 57.33C10.98 56.96 10.79 56.42 10.98 55.69C12.35 55.51 13.33 55.15 15.29 55.33C16.07 56.78 17.63 56.96 15.87 58.41C16.85 58.78 20.17 59.68 20.76 58.41C20.17 58.41 19.59 58.41 19 58.41C18.61 57.14 21.54 56.96 20.17 56.24C17.63 54.97 24.48 53.88 24.48 51.88C22.33 50.61 17.63 50.61 16.07 49.16L17.05 48.8L16.66 48.25C21.35 48.61 26.63 50.25 31.13 48.8C35.23 49.7 38.56 50.97 44.42 50.97C43.84 50.07 45.4 50.07 45.6 49.34C47.75 49.7 52.24 49.52 52.83 48.07C51.07 48.07 48.72 48.25 48.53 47.53L49.51 47.16L49.11 46.62C50.09 45.89 54.39 46.8 55.18 46.07C54.39 44.99 53.22 44.26 51.66 43.53C46.96 43.9 45.2 41.72 40.9 40.99C40.51 39.36 39.73 37.91 35.43 38.27C35.43 37.54 35.43 36.82 36.01 36.46C38.75 37 39.73 36.64 42.08 37C40.51 34.64 31.91 35.55 29.37 37C27.21 36.82 22.91 37.54 23.3 36.09C24.87 36.09 26.24 35.91 27.02 35.55C25.06 34.82 24.09 33.55 20.96 33.37C20.96 34.1 20.96 34.82 20.37 35.19C19.2 35.19 18.02 35.19 16.85 35.19C17.24 36.82 13.33 36.46 13.92 37.36C13.33 36.46 11.18 36.27 9.62 35.73C10.2 34.64 13.14 34.64 11.38 33.19C14.11 32.28 17.44 31.37 21.54 31.92C23.89 31.01 24.67 30.1 28.78 30.65L28.39 31.19L29.37 31.01C31.52 31.92 33.67 30.65 36.6 30.1C39.34 29.56 40.71 30.47 40.12 28.83L41.1 28.47L40.71 27.93C43.44 27.93 46.77 28.11 47.35 27.02L48.33 26.84L47.94 26.29C56.35 26.29 64.17 23.39 71.41 24.66L70.43 25.02L73.95 25.2C76.49 25.2 78.84 25.02 81.18 25.57L80.79 25.02C82.55 24.84 84.31 24.48 84.51 23.39C82.16 23.03 80.79 23.03 78.45 23.39C79.03 22.48 76.49 23.03 76.69 22.12L77.66 21.94C77.08 21.94 76.69 21.94 76.1 21.76C75.71 21.57 75.51 21.21 75.32 20.85L74.93 21.39C72.58 20.85 72.58 19.03 70.04 18.67C67.3 18.67 63.39 19.76 62.22 19.58C64.95 17.76 58.11 16.31 54.39 15.95C54.2 15.22 54.39 14.68 54.98 14.32C54 13.95 52.44 13.95 52.05 13.41L52.44 12.86L51.46 12.68C63.19 11.96 75.51 10.69 84.7 13.59C87.05 12.68 89.2 13.05 91.35 13.23C91.16 12.32 92.72 12.32 92.52 11.41C89.59 9.6 83.14 11.23 79.23 9.6L80.21 9.23L79.81 8.69C87.64 8.69 93.7 8.69 102.11 8.33C102.69 7.96 102.69 7.24 103.28 6.69C100.54 5.42 98 4.15 97.22 1.79L98.2 1.61L98.59 1.07C101.52 1.61 103.87 4.15 107.58 3.25C106.21 1.79 102.5 1.43 102.11 -0.38C106.41 0.52 112.08 0.52 114.23 2.34C114.82 1.79 116.19 1.98 117.16 1.79C117.16 2.88 118.92 3.06 118.34 4.33L117.36 4.52L117.75 5.06C115.79 5.42 116.97 3.97 115.4 4.15C113.25 4.7 111.3 4.88 108.75 4.52C110.71 6.51 113.64 7.78 118.92 7.96C119.9 9.6 117.36 9.6 117.75 11.05C119.71 11.23 121.66 11.23 122.05 12.32C119.12 13.59 114.03 11.05 109.93 12.68C108.75 12.32 107.58 12.14 106.21 11.77C105.43 12.32 103.08 11.96 103.28 13.05C103.67 14.13 105.43 14.5 106.8 15.22C115.99 14.86 121.66 17.4 128.5 16.13C128.31 15.4 128.5 14.86 129.09 14.5C134.17 14.86 136.91 16.49 141.8 17.04C142.39 15.95 143.95 15.59 145.52 14.86C146.89 15.04 147.86 15.4 149.82 15.22C150.6 17.22 153.73 17.95 158.81 17.76C158.81 17.4 159.01 17.04 159.4 16.86C166.63 16.67 167.61 19.76 173.87 20.3C173.87 21.03 174.26 21.57 175.04 21.94C179.54 21.94 188.73 20.49 193.03 22.48C200.66 21.21 213.76 23.03 221.39 21.94C223.34 21.57 225.88 21.94 229.21 21.57C229.01 20.67 230.77 20.67 230.97 19.94C229.6 19.4 229.6 18.13 229.79 16.86C231.75 16.86 234.88 17.95 236.44 17.22C235.66 15.22 231.55 15.95 228.62 15.95C224.71 15.95 220.8 14.5 218.45 15.04C218.84 13.95 220.99 13.95 219.63 12.86C220.99 12.86 221.97 12.86 221.97 12.32C221.39 11.59 219.82 11.41 220.21 10.14C227.84 8.15 235.66 11.59 243.09 11.96C244.26 11.96 243.87 11.41 245.44 11.41C246.81 11.41 247.98 12.14 248.37 11.96C249.74 11.77 250.33 10.5 252.09 11.05C253.65 12.32 260.89 12.32 263.62 11.05C261.86 8.87 254.24 11.59 252.87 9.42C248.57 10.87 245.83 8.69 242.7 7.78L243.09 7.24L243.48 6.69C252.67 3.25 260.69 9.6 267.53 8.33C266.56 7.6 264.4 7.24 261.47 7.42C259.32 5.6 258.15 3.06 253.65 2.52C253.65 1.98 253.65 1.43 253.65 0.89C258.73 2.16 262.25 3.43 269.29 3.06C271.25 3.43 270.27 5.42 272.81 5.6C273.4 5.6 273.79 5.24 273.99 5.06C274.18 3.61 271.44 3.61 272.23 1.98C278.29 2.34 284.54 5.42 287.87 8.15C284.35 7.78 282.79 8.69 282.39 9.96C283.57 10.14 284.94 10.14 284.74 10.87C284.15 11.41 283.57 11.96 281.81 11.77C278.68 9.23 271.44 11.77 266.75 11.23C267.14 14.13 279.46 12.32 279.46 14.32C282.79 14.32 290.8 14.13 295.1 15.22L294.71 15.77L295.1 16.31C294.71 16.86 291.78 16.31 291.39 16.86C290.41 17.4 291.98 17.95 291.39 19.03C290.41 19.58 289.04 19.94 287.87 20.3C289.82 20.3 290.8 20.85 293.34 20.67C293.54 23.21 289.04 23.39 287.28 25.02C288.06 25.02 289.04 25.02 289.04 25.39L288.06 25.75L288.46 26.29C287.48 27.02 290.61 28.11 290.8 29.02C293.15 29.2 293.34 28.29 295.1 28.11C297.26 29.38 301.75 29.38 303.51 30.83C302.73 31.37 301.95 31.74 301.17 32.1C302.93 32.64 307.23 32.46 308.99 32.1L308.6 32.64L309.57 32.83C308.99 33.55 311.53 33.91 311.33 33.37C310.55 33.37 310.75 32.83 310.16 32.83L310.55 32.28L310.16 31.74C311.14 30.83 312.9 31.92 314.46 31.74C315.25 32.83 312.51 31.92 313.29 33.01C314.66 33.37 315.25 33.01 317 33.55C318.76 32.64 320.92 31.74 323.65 31.37C330.69 33.37 339.88 35.37 348.29 35.73C346.92 37.18 347.51 38.27 349.46 39.36C349.86 39 348.68 37.73 350.05 37.73C350.25 38.45 353.96 38.09 355.53 39C356.11 38.09 359.24 38.63 360.41 38.09C360.61 38.63 359.44 38.81 360.41 39C364.91 39.36 367.65 38.09 371.17 38.45C370.39 40.27 378.6 38.45 381.34 39.72C381.34 40.45 380.36 40.63 380.75 41.54C376.06 41.54 372.93 43.9 368.63 43.17L369.02 42.63L368.63 42.08C368.04 41.54 366.67 41.36 364.91 41.54C364.91 41.9 365.89 41.9 366.09 42.08L365.5 42.63L366.09 43.17C365.5 43.9 362.37 42.63 361.2 43.53L361.2 43.17L360.61 43.17C359.83 41.9 358.26 43.53 360.61 43.53L360.22 44.08L361.2 43.9C363.15 46.44 373.91 45.89 374.49 48.25C376.64 47.71 377.82 46.8 379.38 46.07C380.75 47.89 384.66 46.8 385.44 48.61C385.25 47.89 386.62 47.89 387.79 47.71C391.7 48.43 394.63 49.7 399.33 50.25C398.74 52.06 404.41 52.79 405.39 51.16C403.63 51.34 403.63 50.61 401.87 50.79C401.87 48.98 405 48.98 407.34 48.25C409.5 48.61 408.71 50.43 412.23 50.07C412.04 49.52 412.82 49.34 412.82 48.8L413.8 48.98L413.21 47.71L412.82 48.25C410.67 47.16 407.34 46.62 406.76 44.62C403.63 45.17 405 43.53 403.24 43.35C401.67 43.9 400.11 44.44 397.76 44.62C396.98 44.44 397.76 43.35 396.59 43.35C395.22 43.9 392.09 43.53 389.94 43.71C388.77 43.17 388.96 41.9 387.59 41.54C385.83 41.54 383.88 41.54 384.08 40.63C384.08 39.54 387.79 40.45 387.59 39.36C386.23 39 384.27 38.81 384.08 37.73C387.01 37.91 387.99 37.18 390.72 37.36C390.53 36.27 391.51 35.91 393.07 35.73C394.83 37 397.76 39.36 401.48 39.18C402.85 39.18 403.82 38.09 405.78 37.91C404.02 37.54 403.43 36.64 400.3 37C401.87 35.55 398.55 35.19 398.55 33.55C400.89 33.01 402.85 33.37 404.61 33.01C400.89 31.74 393.07 32.64 393.85 35.55C387.79 35.37 383.88 35.73 382.32 33.01C383.49 32.1 386.81 32.64 388.96 33.01C389.94 32.64 389.55 31.37 389.55 30.47C393.07 29.56 395.81 31.01 399.13 31.01C400.3 30.47 400.11 29.38 402.06 29.38C409.1 31.19 412.43 27.56 417.71 26.66C422.4 27.2 426.12 25.2 431.59 25.02C435.7 26.29 443.71 25.57 446.65 27.56C447.63 27.56 448.6 27.56 449.58 27.56C452.32 28.29 456.23 30.65 459.75 31.92C462.29 32.83 463.66 32.64 464.05 32.28C465.22 33.01 467.18 33.55 469.53 33.91L468.55 34.28L468.94 34.82C464.64 35.55 471.48 37.18 473.24 37.91C473.24 38.27 473.24 38.81 473.24 39.18L472.26 39C473.05 39.36 473.63 39.9 473.44 40.63L473.83 40.09C476.37 40.99 478.52 40.27 481.06 40.99L482.04 41.17L481.65 40.63C482.04 40.63 482.43 40.63 482.82 40.63C484 38.45 491.43 39.54 491.82 41.17C494.36 39.54 498.86 40.99 503.94 40.63C504.33 41.72 507.07 43.17 508.83 41.9C507.85 41.9 506.68 41.9 507.07 41.36C510.39 40.81 512.35 43.35 516.06 43.53C519.58 42.63 524.86 43.35 525.06 45.17C519.78 46.62 514.5 44.26 509.42 45.53C512.35 46.8 515.67 46.62 517.82 48.61C517.04 49.16 515.28 48.98 515.48 49.88C515.67 51.16 519.39 50.43 519 51.7C518.21 52.24 516.85 52.43 517.24 53.51C517.82 53.51 518.02 53.7 518.41 53.88C520.56 53.7 522.52 53.33 525.06 53.33L525.45 53.88L525.84 53.33C527.4 55.51 535.23 55.15 540.9 55.15L541.88 55.33L542.27 54.78C543.05 54.97 543.44 55.15 544.61 55.15C543.83 54.78 544.81 53.7 545.2 52.97C550.28 52.24 556.34 54.97 559.67 52.61L560.65 52.43L560.26 51.88C560.84 51.88 561.43 51.88 562.02 51.88C562.02 51.52 562.02 50.97 562.02 50.61C563.78 50.79 563.58 50.25 564.95 50.25C565.14 51.7 567.49 52.06 569.84 52.43C569.84 51.88 570.23 51.7 571.01 51.52C571.01 52.06 571.4 52.24 572.18 52.43C572.77 52.06 572.77 51.34 573.94 51.16C576.68 52.24 580.2 49.52 582.94 50.61C583.33 51.34 580.2 51.88 582.35 52.43C584.11 52.79 583.33 51.7 583.53 51.16C586.46 51.34 590.17 51.34 591.93 50.25C589.59 50.61 587.44 50.07 585.28 48.98C582.74 48.98 581.77 49.88 579.22 49.88C577.66 48.98 575.12 48.8 573.16 48.07C573.16 47.53 573.16 46.8 573.16 46.26C570.23 46.07 569.84 44.62 566.51 44.62C565.53 42.63 569.06 42.81 570.23 41.9L570.62 42.44L571.01 41.9C573.16 42.81 576.68 41.36 578.25 42.26C579.81 42.44 578.64 40.99 580.59 41.36C577.27 40.27 574.14 41.17 571.01 41.72L570.62 41.17L569.64 40.99C568.86 39.36 568.47 40.09 566.12 40.45L565.34 39.9L564.17 40.09C563.97 39.9 564.17 39.54 563.58 39.54C561.82 38.63 562.8 40.45 560.65 40.09C559.08 39.9 558.11 39.36 555.76 39.54C555.95 39.9 556.74 40.09 556.93 40.45C553.61 40.45 553.22 40.45 550.87 40.45C553.02 40.45 548.33 40.09 547.94 40.09C547.74 40.09 547.55 40.27 547.35 40.27C547.15 40.27 546.96 40.09 546.57 40.09C545.4 39.9 543.44 40.27 541.68 40.09C539.92 38.81 535.62 38.81 533.27 37.91C532.1 38.27 531.12 38.63 529.75 38.81C528.77 38.45 528.58 37.73 527.4 37.54C527.4 38.27 526.62 38.81 525.06 38.81C523.69 38.27 521.74 38.09 519 38.27L518.61 37.73L517.63 37.91C515.09 37 509.81 37.54 508.63 36.09C505.7 36.27 503.55 35.91 501.4 35.73L501.79 35.19L500.81 34.82C503.16 34.28 504.53 33.37 507.46 33.91C507.85 34.82 507.66 34.64 509.22 35.19C511.18 35.19 512.74 34.64 515.28 34.82C515.28 34.1 514.11 33.91 515.28 33.19C515.67 33.19 516.46 33.19 516.46 32.83C519.98 33.55 522.91 33.37 523.1 35C526.43 33.73 527.8 31.56 532.1 31.01C528.97 30.65 527.8 30.47 525.45 30.47C527.6 32.1 516.85 32.28 517.04 29.92C519.19 29.74 522.91 29.02 524.86 29.56C525.06 28.65 528.97 29.38 529.75 28.65C528.38 27.56 526.62 26.84 524.28 26.11L524.67 25.57L523.3 25.39C524.28 22.85 517.82 24.12 516.06 22.85L516.46 22.3L516.06 21.76C519 21.21 522.32 20.12 525.65 21.21C533.66 18.31 547.15 20.12 551.65 23.39C554.98 23.21 555.56 24.3 558.3 24.3L557.91 24.84L558.3 25.39C558.5 26.11 555.56 25.2 556.54 26.29L555.56 26.66L555.95 27.2C551.26 26.84 549.89 27.74 545.79 26.66C545.79 27.74 548.72 28.65 546.37 29.2C547.35 29.2 548.33 29.2 549.31 29.2L550.09 29.74C550.48 29.2 551.65 28.65 552.63 28.83L552.43 28.29C555.56 28.11 554 30.1 555.95 30.47C558.5 30.47 560.26 30.83 562.02 31.01C561.82 32.83 558.89 31.56 555.37 31.92C555.37 33.01 553.41 33.01 553.61 34.1C554.19 34.46 554.19 35.19 555.37 35.37C560.06 34.82 565.53 35.19 569.84 35.37C568.27 35.19 568.47 33.91 569.84 33.55C572.77 33.73 575.31 35.73 578.83 34.46C579.61 33.37 576.88 34.28 577.66 33.19L578.64 32.83L578.25 32.28C580.4 32.1 581.57 32.64 583.13 32.83C583.53 34.1 579.81 34.82 581.96 35.91C583.33 35 585.48 34.46 588.61 34.28C588.81 34.82 588.81 35.55 590.37 35.55C590.96 35.55 591.35 35.19 591.54 35C590.96 34.46 589.59 34.28 589.78 33.37C591.54 32.64 592.52 33.01 595.26 33.01C594.87 31.92 597.6 32.28 597.6 31.37C593.69 30.65 589.98 27.74 585.48 29.2L584.5 29.38C584.31 29.56 584.31 29.92 584.11 30.1L584.89 30.47C584.89 30.83 584.7 31.19 584.31 31.37C580.98 31.56 579.03 31.19 578.83 29.74C580.01 29.02 582.16 30.29 583.72 29.38C580.79 29.2 577.46 27.56 572.97 27.2C571.6 27.74 567.49 28.29 565.73 27.74C567.1 26.47 569.84 25.75 572.38 25.02C572.18 26.29 574.53 25.75 575.31 25.39C576.09 24.12 573.36 24.84 574.14 23.57C575.9 23.21 576.68 23.75 579.61 23.57L579.22 24.12L580.2 24.48C581.57 25.75 585.48 25.02 588.02 25.02C588.81 25.02 589.78 25.57 590.37 25.57C594.08 25.75 597.41 25.2 600.54 25.2C602.3 25.2 604.84 26.29 606.01 25.2C606.21 24.48 603.67 25.02 604.25 23.93L604.64 23.57L604.25 23.21C607.58 23.21 609.92 21.21 612.07 22.66C612.07 22.12 612.27 21.76 612.66 21.39C617.55 21.39 617.16 23.93 619.31 25.39C620.29 25.02 622.24 25.2 623.02 24.84C621.85 24.84 621.66 24.48 621.85 23.93C625.18 22.3 631.04 23.03 633.97 24.3C633.97 23.75 635.93 24.12 635.73 23.39C633.97 23.03 633.97 21.57 630.26 22.12C630.65 20.85 629.28 20.49 627.33 20.49L627.72 19.94L626.74 19.76C626.74 19.58 626.74 19.4 626.74 19.22L627.72 18.85L627.33 18.31C633.19 19.03 638.08 16.49 639.45 14.86C636.71 14.86 635.34 15.59 633.97 16.49C629.67 16.67 626.15 15.95 623.81 16.86C623.22 16.13 620.87 16.31 620.87 15.22C622.24 15.04 624.2 15.04 624.39 14.32C621.07 13.59 617.35 13.05 614.23 12.14C612.86 11.96 612.86 12.68 611.29 12.5C610.12 11.05 613.64 10.5 614.81 11.23C622.24 11.23 631.24 10.14 638.28 11.59C639.06 11.05 640.62 11.05 641.21 10.69C642.97 10.87 643.75 11.59 646.69 11.23C647.27 10.32 647.86 9.42 649.03 8.69C656.46 9.6 668.78 12.14 676.21 9.23C676.6 10.14 674.45 11.23 676.21 11.77C687.36 9.78 696.55 13.05 705.15 13.05C706.72 14.5 707.69 14.13 711.21 14.32C711.02 15.4 709.84 16.13 709.45 17.04C711.8 16.49 709.65 18.31 711.21 18.31C716.69 18.49 718.84 21.39 724.51 21.76C728.62 21.94 732.92 19.94 738.39 20.49C741.13 20.85 743.09 21.57 746.21 20.85L746.61 21.39L747.58 21.21C748.37 21.57 748.17 22.3 748.17 23.03C747.39 23.39 746.41 23.57 745.82 23.93C746.8 24.48 746.61 25.57 747.58 26.11L747.19 26.47C748.76 26.29 750.71 27.02 749.93 27.93L751.1 27.74C751.1 28.47 751.89 29.92 754.82 29.02C755.6 29.56 755.6 30.29 756.58 30.65C759.9 31.01 761.66 29.38 764.4 30.29C764.6 29.92 765.18 29.74 764.99 29.02C770.27 30.47 772.81 28.29 777.7 27.74C777.89 29.02 780.24 29.74 777.11 30.29C780.04 30.1 780.43 31.19 783.17 31.19C783.37 30.29 781.8 30.29 782 29.38C784.54 29.02 788.06 27.56 790.99 28.47C790.41 28.47 789.43 29.92 790.41 29.74C795.1 29.92 796.47 28.11 800.57 29.38C799.99 29.38 799.79 29.92 800.57 29.92L801.55 30.1C801.75 29.74 801.94 29.56 802.33 29.38C802.92 29.38 803.9 29.2 804.68 29.2L804.29 28.65C809.37 28.47 818.56 28.83 822.28 30.29C823.26 30.29 822.67 29.56 824.04 29.74C825.6 29.74 824.82 31.01 826.39 31.01C827.36 29.92 829.71 29.56 829.32 27.93C826.58 28.29 825.41 27.56 823.84 26.66C826.97 25.75 833.82 25.39 837.14 27.02C838.9 26.66 840.07 25.75 842.62 26.47C843.01 27.56 840.46 27.02 840.27 27.74C845.94 30.1 852.78 29.74 857.67 31.74C864.71 31.92 869.99 29.92 877.03 29.2C877.03 28.65 878.6 29.02 878.2 28.29C875.66 26.84 872.34 25.02 866.67 26.11C865.3 25.57 860.61 24.3 859.43 25.57C861.19 26.47 860.02 27.38 859.43 28.65L858.45 28.47L858.06 29.02C856.3 29.2 856.11 30.1 853.76 29.92C853.37 28.47 848.29 26.84 850.83 25.93C847.11 26.47 847.31 24.84 844.77 24.66C838.31 24.84 834.99 23.03 828.54 24.12C828.34 23.03 826.39 22.85 825.02 22.3C826 21.21 825.21 19.22 827.95 19.22C828.15 21.21 830.49 21.94 834.01 22.3C837.53 21.21 838.9 22.12 843.01 21.03C846.53 21.94 848.87 21.94 851.42 23.57C854.94 22.66 858.06 20.49 862.95 21.94L863.34 22.48C863.54 22.3 863.54 22.12 863.73 21.94C866.67 20.85 870.38 21.21 873.71 21.21L864.32 22.3C865.3 25.02 872.92 23.03 875.08 21.94C875.86 22.3 875.27 23.39 876.84 23.57C882.7 21.03 893.26 21.94 900.89 23.03C900.89 22.12 900.89 21.21 900.89 20.3C904.41 19.76 904.41 20.67 906.95 21.21C906.56 21.57 904.6 21.21 904.6 21.76C904.8 22.12 905.38 22.3 905.19 23.03C905.97 22.66 908.12 22.66 908.9 23.03C910.47 23.75 907.93 23.57 908.32 24.66C912.42 26.11 918.88 23.57 914.38 21.94C913.4 22.85 910.86 21.94 910.08 21.57C910.86 20.12 911.84 19.4 911.84 18.13C914.38 18.49 917.7 17.4 920.25 17.76C919.66 18.85 918.09 19.58 916.73 20.3C918.09 20.49 916.73 21.94 918.49 21.94C925.33 20.85 930.41 23.39 935.3 21.39C932.76 20.85 930.22 21.39 926.89 20.85C928.26 19.58 924.55 19.58 925.72 17.4C929.44 17.58 932.96 16.49 935.89 17.4C936.08 17.95 935.11 17.95 934.72 18.31C939.6 18.31 944.49 17.95 949.19 18.67C950.75 18.49 951.92 17.04 953.49 17.76C955.05 18.13 954.66 19.58 956.42 19.94C960.14 20.3 960.53 19.03 961.9 18.13C976.37 19.03 991.23 16.86 1004.53 17.76L1004.53 29.02L1004.53 36.27L1004.53 88L505.31 88L500.81 88L498.07 88L495.34 88L490.45 88L488.69 88L480.67 88L476.96 88L476.37 88L441.56 88L441.37 88L426.12 88L413.99 88L405.58 88L30.34 88L30.15 88L1.79 88C2.97 87.63 3.95 87.45 5.51 87.63C3.55 86.72 1.6 86.72 -0.55 86.91L-0.55 77.83C3.55 78.38 7.66 76.2 11.57 78.2C12.16 77.65 12.94 77.29 13.33 76.56C9.81 76.74 8.64 75.65 5.51 74.93C2.58 75.11 1.4 74.38 -0.55 74.02L-0.55 70.75C1.4 70.75 3.36 70.94 4.34 70.39C4.34 70.03 4.34 69.48 4.34 69.12C3.16 69.67 1.21 68.76 -0.55 68.4Z" fill="#FFFFFF" fill-opacity="1.000000" fill-rule="nonzero"/>
</svg>
