<svg width="119.000000" height="119.000000" viewBox="0 0 119 119" fill="none" xmlns="http://www.w3.org/2000/svg" xmlns:xlink="http://www.w3.org/1999/xlink">
	<desc>
			Created with Pixso.
	</desc>
	<defs>
		<clipPath id="clip1_853">
			<rect width="119.000000" height="119.000000" fill="white" fill-opacity="0"/>
		</clipPath>
	</defs>
	<rect width="119.000000" height="119.000000" fill="#FFFFFF" fill-opacity="0"/>
	<g clip-path="url(#clip1_853)">
		<path d="M65.57 42.77C48.19 42.77 34.89 45.57 34.89 80.88C34.89 119 49.11 119 65.57 119L67.06 119C67.08 119 67.09 119 67.11 119C74.54 119 82.22 118.99 87.72 113.89C93.54 108.51 96.24 98.02 96.24 80.88C96.24 45.57 82.95 42.77 65.57 42.77ZM86.46 112.53C81.49 117.13 74.18 117.14 67.11 117.14C67.09 117.14 67.08 117.14 67.06 117.14L65.57 117.14C49.46 117.14 36.75 117.14 36.75 80.88C36.75 44.63 51.4 44.63 65.57 44.63C79.73 44.63 94.38 44.63 94.38 80.88C94.38 97.47 91.87 107.52 86.46 112.53Z" fill="#FFFFFF" fill-opacity="1.000000" fill-rule="nonzero"/>
		<path d="M58.34 46.58C57.97 46.22 57.38 46.22 57.02 46.58L39.58 64.03C39.21 64.39 39.21 64.98 39.58 65.34C39.76 65.52 40 65.61 40.23 65.61C40.47 65.61 40.71 65.52 40.89 65.34L58.34 47.9C58.7 47.54 58.7 46.95 58.34 46.58Z" fill="#FFFFFF" fill-opacity="1.000000" fill-rule="nonzero"/>
		<path d="M74.11 46.58C73.75 46.22 73.16 46.22 72.8 46.58L38.88 80.5C38.52 80.86 38.52 81.45 38.88 81.81C39.06 82 39.3 82.09 39.54 82.09C39.77 82.09 40.01 82 40.19 81.81L74.11 47.9C74.48 47.53 74.48 46.95 74.11 46.58Z" fill="#FFFFFF" fill-opacity="1.000000" fill-rule="nonzero"/>
		<path d="M83.89 52.59C83.52 52.23 82.93 52.23 82.57 52.59L40.39 94.77C40.02 95.14 40.02 95.73 40.39 96.09C40.57 96.27 40.8 96.36 41.04 96.36C41.28 96.36 41.52 96.27 41.7 96.09L83.89 53.9C84.25 53.54 84.25 52.95 83.89 52.59Z" fill="#FFFFFF" fill-opacity="1.000000" fill-rule="nonzero"/>
		<path d="M89.89 62.36C89.52 62 88.94 62 88.57 62.36L44.95 105.98C44.59 106.34 44.59 106.93 44.95 107.3C45.13 107.48 45.37 107.57 45.61 107.57C45.85 107.57 46.09 107.48 46.27 107.3L89.89 63.67C90.25 63.31 90.25 62.72 89.89 62.36Z" fill="#FFFFFF" fill-opacity="1.000000" fill-rule="nonzero"/>
		<path d="M92 76.03C91.63 75.67 91.05 75.67 90.68 76.03L54.18 112.53C53.82 112.89 53.82 113.48 54.18 113.84C54.36 114.02 54.6 114.11 54.84 114.11C55.07 114.11 55.31 114.02 55.49 113.84L92 77.34C92.36 76.98 92.36 76.39 92 76.03Z" fill="#FFFFFF" fill-opacity="1.000000" fill-rule="nonzero"/>
		<path d="M92.03 91.76C91.67 91.4 91.08 91.4 90.72 91.76L68.79 113.69C68.43 114.05 68.43 114.64 68.79 115C68.98 115.19 69.21 115.28 69.45 115.28C69.69 115.28 69.93 115.19 70.11 115L92.03 93.08C92.4 92.72 92.4 92.13 92.03 91.76Z" fill="#FFFFFF" fill-opacity="1.000000" fill-rule="nonzero"/>
		<path d="M91.55 64.02L74.27 46.74C73.9 46.37 73.31 46.37 72.95 46.74C72.59 47.1 72.59 47.69 72.95 48.05L90.23 65.33C90.41 65.51 90.65 65.6 90.89 65.6C91.13 65.6 91.37 65.51 91.55 65.33C91.91 64.97 91.91 64.38 91.55 64.02Z" fill="#FFFFFF" fill-opacity="1.000000" fill-rule="nonzero"/>
		<path d="M92.11 80.36L58.34 46.58C57.97 46.22 57.38 46.22 57.02 46.58C56.66 46.95 56.66 47.54 57.02 47.9L90.8 81.68C90.98 81.86 91.22 81.95 91.46 81.95C91.69 81.95 91.93 81.86 92.11 81.68C92.48 81.31 92.48 80.73 92.11 80.36Z" fill="#FFFFFF" fill-opacity="1.000000" fill-rule="nonzero"/>
		<path d="M89.89 93.91L48.49 52.52C48.13 52.15 47.54 52.15 47.18 52.52C46.81 52.88 46.81 53.47 47.18 53.83L88.57 95.23C88.75 95.41 88.99 95.5 89.23 95.5C89.47 95.5 89.71 95.41 89.89 95.23C90.25 94.86 90.25 94.28 89.89 93.91Z" fill="#FFFFFF" fill-opacity="1.000000" fill-rule="nonzero"/>
		<path d="M86.31 106.11L42.56 62.36C42.2 62 41.61 62 41.25 62.36C40.88 62.72 40.88 63.31 41.25 63.67L85 107.43C85.18 107.61 85.42 107.7 85.65 107.7C85.89 107.7 86.13 107.61 86.31 107.43C86.67 107.06 86.67 106.47 86.31 106.11Z" fill="#FFFFFF" fill-opacity="1.000000" fill-rule="nonzero"/>
		<path d="M77.01 112.58L40.45 76.03C40.09 75.67 39.5 75.67 39.14 76.03C38.77 76.39 38.77 76.98 39.14 77.34L75.69 113.9C75.87 114.08 76.11 114.17 76.35 114.17C76.59 114.17 76.83 114.08 77.01 113.9C77.37 113.53 77.37 112.95 77.01 112.58Z" fill="#FFFFFF" fill-opacity="1.000000" fill-rule="nonzero"/>
		<path d="M62.34 113.69L40.42 91.77C40.06 91.41 39.47 91.41 39.11 91.77C38.75 92.14 38.75 92.72 39.11 93.09L61.02 115C61.2 115.19 61.44 115.28 61.68 115.28C61.92 115.28 62.16 115.19 62.34 115C62.7 114.64 62.7 114.05 62.34 113.69Z" fill="#FFFFFF" fill-opacity="1.000000" fill-rule="nonzero"/>
		<path d="M98.1 27.89C81.22 27.89 76.95 39.18 76.78 39.66C76.6 40.15 76.85 40.68 77.33 40.85C77.44 40.89 77.55 40.91 77.65 40.91C78.03 40.91 78.39 40.67 78.52 40.3C78.68 39.87 82.58 29.75 98.1 29.75C98.62 29.75 99.03 29.34 99.03 28.82C99.03 28.31 98.62 27.89 98.1 27.89Z" fill="#FFFFFF" fill-opacity="1.000000" fill-rule="nonzero"/>
		<path d="M98.98 28.53C98.82 28.04 98.29 27.78 97.81 27.94C97.33 28.1 86.1 31.97 84.17 43.54C84.09 44.05 84.43 44.53 84.93 44.61C84.99 44.62 85.04 44.63 85.09 44.63C85.53 44.63 85.93 44.3 86 43.85C87.75 33.4 98.29 29.74 98.4 29.71C98.88 29.54 99.15 29.02 98.98 28.53Z" fill="#FFFFFF" fill-opacity="1.000000" fill-rule="nonzero"/>
		<path d="M66.93 28C66.66 27.86 66.35 27.86 66.08 27.99C65.75 28.16 58.13 32.06 58.13 39.98C58.13 40.49 58.54 40.91 59.06 40.91C59.57 40.91 59.99 40.49 59.99 39.98C59.99 34.21 64.98 30.79 66.49 29.89C68 30.82 73 34.33 73 39.98C73 40.49 73.42 40.91 73.93 40.91C74.45 40.91 74.86 40.49 74.86 39.98C74.86 32.24 67.25 28.17 66.93 28Z" fill="#FFFFFF" fill-opacity="1.000000" fill-rule="nonzero"/>
		<path d="M67.06 16.93C66.73 16.68 66.27 16.67 65.94 16.93C65.62 17.16 58.13 22.87 58.13 30.68C58.13 31.2 58.54 31.61 59.06 31.61C59.57 31.61 59.99 31.2 59.99 30.68C59.99 24.98 64.81 20.32 66.49 18.88C68.16 20.36 73 25.11 73 30.68C73 31.2 73.42 31.61 73.93 31.61C74.45 31.61 74.86 31.2 74.86 30.68C74.86 23.05 67.38 17.18 67.06 16.93Z" fill="#FFFFFF" fill-opacity="1.000000" fill-rule="nonzero"/>
		<path d="M67.25 0.39C67.07 0.15 66.82 -0.06 66.5 0.01C66.2 0.01 65.92 0.15 65.75 0.39C65.44 0.81 58.13 10.82 58.13 19.53C58.13 20.04 58.54 20.46 59.06 20.46C59.57 20.46 59.99 20.04 59.99 19.53C59.99 13.02 64.63 5.38 66.49 2.58C68.34 5.41 73 13.16 73 19.53C73 20.04 73.42 20.46 73.93 20.46C74.45 20.46 74.86 20.04 74.86 19.53C74.86 11.03 67.56 0.82 67.25 0.39Z" fill="#FFFFFF" fill-opacity="1.000000" fill-rule="nonzero"/>
		<path d="M97.16 17.55C97.1 17.04 96.62 16.69 96.13 16.75C80.85 18.66 76.93 29.91 76.77 30.39C76.61 30.88 76.87 31.4 77.36 31.56C77.45 31.6 77.55 31.61 77.65 31.61C78.04 31.61 78.4 31.37 78.53 30.98C78.57 30.87 82.23 20.36 96.36 18.59C96.87 18.53 97.23 18.06 97.16 17.55Z" fill="#FFFFFF" fill-opacity="1.000000" fill-rule="nonzero"/>
		<path d="M97.13 17.41C96.99 16.92 96.48 16.63 95.98 16.78C95.7 16.86 89.16 18.85 86.08 26.62C85.89 27.1 86.13 27.64 86.6 27.83C86.72 27.87 86.83 27.89 86.95 27.89C87.32 27.89 87.67 27.67 87.81 27.31C90.54 20.41 96.45 18.58 96.51 18.56C97 18.41 97.28 17.9 97.13 17.41Z" fill="#FFFFFF" fill-opacity="1.000000" fill-rule="nonzero"/>
		<path d="M93.1 8.08C92.97 7.7 92.62 7.45 92.22 7.44C92.21 7.46 80.66 7.47 76.77 19.24C76.61 19.72 76.87 20.25 77.36 20.41C77.46 20.44 77.55 20.46 77.65 20.46C78.04 20.46 78.4 20.21 78.53 19.82C80.81 12.93 85.85 10.55 89.14 9.73C84.18 14.29 84.14 17.33 84.16 17.71C84.18 18.21 84.68 18.59 85.11 18.59C85.61 18.58 86.01 18.16 86.02 17.65C86.02 17.62 86.1 14.22 92.78 9.11C93.1 8.87 93.22 8.45 93.1 8.08Z" fill="#FFFFFF" fill-opacity="1.000000" fill-rule="nonzero"/>
		<path d="M56.21 39.66C56.04 39.18 51.77 27.89 34.89 27.89C34.38 27.89 33.96 28.31 33.96 28.82C33.96 29.34 34.38 29.75 34.89 29.75C50.41 29.75 54.31 39.87 54.47 40.3C54.6 40.67 54.96 40.91 55.34 40.91C55.45 40.91 55.55 40.89 55.66 40.85C56.14 40.68 56.39 40.15 56.21 39.66Z" fill="#FFFFFF" fill-opacity="1.000000" fill-rule="nonzero"/>
		<path d="M48.82 43.55C46.89 31.97 35.66 28.1 35.18 27.94C34.69 27.78 34.17 28.04 34.01 28.53C33.84 29.02 34.11 29.54 34.59 29.71C34.7 29.74 45.24 33.37 46.99 43.85C47.06 44.3 47.45 44.63 47.9 44.63C47.95 44.63 48 44.62 48.06 44.61C48.56 44.53 48.9 44.05 48.82 43.55Z" fill="#FFFFFF" fill-opacity="1.000000" fill-rule="nonzero"/>
		<path d="M56.22 30.39C56.06 29.91 52.14 18.66 36.86 16.75C36.35 16.69 35.89 17.04 35.83 17.55C35.76 18.06 36.12 18.53 36.63 18.59C50.71 20.35 54.31 30.55 54.46 30.98C54.59 31.37 54.95 31.61 55.34 31.61C55.44 31.61 55.54 31.6 55.64 31.56C56.12 31.4 56.38 30.88 56.22 30.39Z" fill="#FFFFFF" fill-opacity="1.000000" fill-rule="nonzero"/>
		<path d="M46.91 26.62C43.83 18.85 37.29 16.86 37.01 16.78C36.52 16.63 36 16.91 35.86 17.41C35.71 17.9 35.99 18.41 36.49 18.56C36.54 18.58 42.45 20.41 45.18 27.31C45.32 27.67 45.67 27.89 46.04 27.89C46.16 27.89 46.27 27.87 46.39 27.83C46.86 27.64 47.1 27.1 46.91 26.62Z" fill="#FFFFFF" fill-opacity="1.000000" fill-rule="nonzero"/>
		<path d="M56.22 19.24C52.33 7.47 40.95 7.44 40.77 7.44C40.37 7.45 40.02 7.7 39.9 8.08C39.77 8.45 39.9 8.87 40.21 9.11C46.82 14.17 46.97 17.55 46.97 17.65C46.96 18.15 47.36 18.58 47.86 18.6C48.37 18.64 48.81 18.22 48.83 17.71C48.85 17.33 48.81 14.31 43.89 9.77C47.19 10.63 52.21 13.03 54.46 19.82C54.59 20.21 54.95 20.46 55.34 20.46C55.44 20.46 55.53 20.44 55.63 20.41C56.12 20.25 56.38 19.72 56.22 19.24Z" fill="#FFFFFF" fill-opacity="1.000000" fill-rule="nonzero"/>
	</g>
</svg>
